<?xml version="1.0" standalone="no"?>
<!DOCTYPE svg PUBLIC "-//W3C//DTD SVG 1.1//EN" "http://www.w3.org/Graphics/SVG/1.1/DTD/svg11.dtd" >
<svg xmlns="http://www.w3.org/2000/svg" xmlns:xlink="http://www.w3.org/1999/xlink" version="1.1">
<metadata>
Created by FontForge 20141024 at Thu Mar  5 17:58:26 2015
 By System Administrator
Copyright 2000, 2002, 2004 Adobe Systems Incorporated. All Rights Reserved. (Latin design U.S. Patent Des. 337,604; Arabic design U.S. Patent Des. 529,537.)
</metadata>
<defs>
<font id="AdobeArabic" horiz-adv-x="0" >
  <font-face 
    font-family="Adobe Arabic"
    font-weight="400"
    font-stretch="normal"
    units-per-em="2048"
    panose-1="2 4 5 3 5 2 1 2 2 3"
    ascent="1368"
    descent="-680"
    x-height="638"
    cap-height="951"
    bbox="-1788 -1122 3564 1792"
    underline-thickness="50"
    underline-position="-50"
    unicode-range="U+0020-FEFC"
  />
<missing-glyph horiz-adv-x="728" 
d="M728 0h-728v1020h728v-1020zM612 947h-495l247 -372zM655 138v743l-247 -371zM117 73h495l-248 371zM73 881v-743l247 372z" />
    <glyph glyph-name="uniFC64" unicode="&#xfe8c;&#xfeae;" horiz-adv-x="910" arabic-form="final" 
d="M834 699v-3c-13 -27 -26 -50 -39 -68c-97 -15 -184 -40 -260 -75l-2 3l24 42c13 16 29 27 46 33v3c-52 15 -78 44 -78 87c0 27 16 57 47 88c43 38 84 57 121 57c19 0 35 -5 47 -15c11 -9 16 -20 16 -34c0 -18 -11 -40 -32 -65h-2c-12 23 -23 36 -32 39c-7 2 -17 3 -31 3
c-17 0 -33 -4 -48 -12c-15 -7 -22 -14 -22 -23c0 -23 16 -39 49 -50c28 -9 59 -14 94 -14c28 0 62 1 102 4zM696 479h10l27 -156c17 -91 45 -148 85 -173c27 -15 54 -22 81 -22h13v-128h-18c-59 0 -104 16 -134 47s-55 87 -75 169l-25 102h-5c-37 -75 -87 -111 -148 -107
c9 -41 14 -87 14 -138c0 -9 -1 -27 -2 -52c-4 -38 -23 -83 -57 -134c-69 -101 -135 -152 -197 -152c-69 0 -156 26 -261 79l14 32c35 -17 67 -25 94 -25c103 0 194 47 274 142c54 63 81 110 81 141c-15 43 -57 99 -125 170l33 128h9c33 -30 58 -51 73 -63
c21 -15 49 -22 84 -22c25 0 49 9 71 27z" />
    <glyph glyph-name="_615" unicode="&#xfe8b;&#xfee4;" horiz-adv-x="811" 
d="M-70 128h9c94 0 175 29 244 88c17 110 61 198 133 265c71 63 142 95 212 95c38 0 69 -9 94 -27c26 -19 39 -43 39 -73c0 -31 -7 -65 -20 -101l-7 -1c-26 50 -67 75 -124 75c-44 0 -89 -13 -134 -39c-65 -43 -104 -93 -118 -150l3 -3c35 16 69 24 101 24
c55 0 98 -18 130 -53c32 -34 48 -74 48 -121c0 -43 -8 -80 -24 -112c-35 -65 -81 -98 -137 -98s-103 23 -142 70c-35 39 -53 82 -54 128h-5c-61 -63 -141 -95 -238 -95h-10c-47 0 -70 22 -70 67c0 16 5 29 15 40c13 14 32 21 55 21zM255 148c9 -39 29 -71 59 -96
c31 -27 64 -40 99 -40s56 9 64 28c0 35 -14 65 -42 90c-29 25 -63 37 -104 37c-28 0 -53 -6 -76 -19zM662 789v-3c-13 -27 -26 -50 -39 -68c-97 -15 -184 -40 -260 -75l-2 3l24 42c13 16 29 27 46 33v3c-52 15 -78 44 -78 87c0 27 16 57 47 88c43 38 84 57 121 57
c19 0 35 -5 47 -15c11 -9 16 -20 16 -34c0 -18 -11 -40 -32 -65h-2c-12 23 -23 36 -32 39c-7 2 -17 3 -31 3c-17 0 -33 -4 -48 -12c-15 -7 -22 -14 -22 -23c0 -23 16 -39 49 -50c28 -9 59 -14 94 -14c28 0 62 1 102 4z" />
    <glyph glyph-name="uniFC67" unicode="&#xfe8c;&#xfee6;" horiz-adv-x="1120" arabic-form="final" 
d="M405 640c33 43 60 77 81 102c39 -28 79 -64 120 -107c-23 -38 -51 -71 -83 -98c-27 25 -66 60 -118 103zM1152 699v-3c-13 -27 -26 -50 -39 -68c-97 -15 -184 -40 -260 -75l-2 3l24 42c13 16 29 27 46 33v3c-52 15 -78 44 -78 87c0 27 16 57 47 88c43 38 84 57 121 57
c19 0 35 -5 47 -15c11 -9 16 -20 16 -34c0 -18 -11 -40 -32 -65h-2c-12 23 -23 36 -32 39c-7 2 -17 3 -31 3c-17 0 -33 -4 -48 -12c-15 -7 -22 -14 -22 -23c0 -23 16 -39 49 -50c28 -9 59 -14 94 -14c28 0 62 1 102 4zM999 489h10l10 -53c6 -27 12 -61 19 -101
c18 -96 46 -156 84 -180c33 -18 60 -27 79 -27h14v-128h-16c-59 0 -104 17 -135 52c-29 33 -54 90 -75 173l-26 103h-5c-33 -67 -80 -102 -141 -104c20 -50 30 -113 30 -188c0 -58 -10 -112 -29 -162c-27 -40 -62 -76 -106 -107c-71 -45 -146 -68 -225 -68
c-91 0 -164 30 -218 89c-53 57 -79 132 -79 227c0 79 17 157 50 236l35 -13c-18 -61 -27 -115 -27 -163c0 -70 25 -129 74 -176c47 -43 102 -65 165 -65c69 0 136 19 201 56c69 47 104 89 104 124c0 25 -7 59 -22 100c-17 47 -59 103 -126 170l36 130l10 1
c33 -31 57 -52 74 -64c20 -14 47 -21 81 -21c27 0 50 8 70 24z" />
    <glyph glyph-name="_617" unicode="&#xfe8b;&#xfef0;" horiz-adv-x="999" 
d="M824 653h7c65 -129 98 -226 98 -291c0 -53 -18 -110 -54 -169c57 -13 95 -30 114 -53c17 -19 25 -50 25 -95c0 -37 -14 -82 -41 -135c-137 -135 -287 -202 -450 -202c-94 0 -174 31 -239 94c-69 73 -104 163 -104 268c0 95 25 199 75 314l39 -15
c-30 -84 -45 -154 -45 -210c0 -77 19 -142 58 -197c62 -76 138 -114 228 -114c109 0 205 25 288 75c66 40 108 73 127 99c0 18 -34 35 -102 52c-59 15 -130 25 -213 31l-7 9l48 104c93 14 153 38 180 73c-17 67 -52 150 -106 251c29 46 53 83 74 111zM938 849v-3
c-13 -27 -26 -50 -39 -68c-97 -15 -184 -40 -260 -75l-2 3l24 42c13 16 29 27 46 33v3c-52 15 -78 44 -78 87c0 27 16 57 47 88c43 38 84 57 121 57c19 0 35 -5 47 -15c11 -9 16 -20 16 -34c0 -18 -11 -40 -32 -65h-2c-12 23 -23 36 -32 39c-7 2 -17 3 -31 3
c-17 0 -33 -4 -48 -12c-15 -7 -22 -14 -22 -23c0 -23 16 -39 49 -50c28 -9 59 -14 94 -14c28 0 62 1 102 4z" />
    <glyph glyph-name="_618" unicode="&#xfe8b;&#xfef2;" horiz-adv-x="999" 
d="M824 653h7c65 -129 98 -226 98 -291c0 -53 -18 -110 -54 -169c57 -13 95 -30 114 -53c17 -19 25 -50 25 -95c0 -37 -14 -82 -41 -135c-137 -135 -287 -202 -450 -202c-94 0 -174 31 -239 94c-69 73 -104 163 -104 268c0 95 25 199 75 314l39 -15
c-30 -84 -45 -154 -45 -210c0 -77 19 -142 58 -197c62 -76 138 -114 228 -114c109 0 205 25 288 75c66 40 108 73 127 99c0 18 -34 35 -102 52c-59 15 -130 25 -213 31l-7 9l48 104c93 14 153 38 180 73c-17 67 -52 150 -106 251c29 46 53 83 74 111zM938 849v-3
c-13 -27 -26 -50 -39 -68c-97 -15 -184 -40 -260 -75l-2 3l24 42c13 16 29 27 46 33v3c-52 15 -78 44 -78 87c0 27 16 57 47 88c43 38 84 57 121 57c19 0 35 -5 47 -15c11 -9 16 -20 16 -34c0 -18 -11 -40 -32 -65h-2c-12 23 -23 36 -32 39c-7 2 -17 3 -31 3
c-17 0 -33 -4 -48 -12c-15 -7 -22 -14 -22 -23c0 -23 16 -39 49 -50c28 -9 59 -14 94 -14c28 0 62 1 102 4zM770 -493c-28 -40 -53 -71 -76 -92c-41 39 -80 74 -117 104c24 34 50 66 79 95c33 -27 71 -62 114 -107zM577 -506c-28 -40 -53 -71 -76 -92
c-41 39 -80 74 -117 104c24 34 50 66 79 95c33 -27 71 -62 114 -107z" />
    <glyph glyph-name="uniFC6A" unicode="&#xfe92;&#xfeae;" horiz-adv-x="910" arabic-form="final" 
d="M587 -301c33 43 60 77 81 102c39 -28 79 -64 120 -107c-23 -38 -51 -71 -83 -98c-27 25 -66 60 -118 103zM696 479h10l27 -156c17 -91 45 -148 85 -173c27 -15 54 -22 81 -22h13v-128h-18c-59 0 -104 16 -134 47s-55 87 -75 169l-25 102h-5c-37 -75 -87 -111 -148 -107
c9 -41 14 -87 14 -138c0 -9 -1 -27 -2 -52c-4 -38 -23 -83 -57 -134c-69 -101 -135 -152 -197 -152c-69 0 -156 26 -261 79l14 32c35 -17 67 -25 94 -25c103 0 194 47 274 142c54 63 81 110 81 141c-15 43 -57 99 -125 170l33 128h9c33 -30 58 -51 73 -63
c21 -15 49 -22 84 -22c25 0 49 9 71 27z" />
    <glyph glyph-name="_620" unicode="&#xfe91;&#xfee4;" horiz-adv-x="810" 
d="M425 -331c33 43 60 77 81 102c39 -28 79 -64 120 -107c-23 -38 -51 -71 -83 -98c-27 25 -66 60 -118 103zM-70 128h9c94 0 175 29 244 88c17 110 61 198 133 265c71 63 142 95 212 95c38 0 69 -9 94 -27c26 -19 39 -43 39 -73c0 -31 -7 -65 -20 -101l-7 -1
c-26 50 -67 75 -124 75c-44 0 -89 -13 -134 -39c-65 -43 -104 -93 -118 -150l3 -3c35 16 69 24 101 24c55 0 98 -18 130 -53c32 -34 48 -74 48 -121c0 -43 -8 -80 -24 -112c-35 -65 -81 -98 -137 -98s-103 23 -142 70c-35 39 -53 82 -54 128h-5c-61 -63 -141 -95 -238 -95
h-10c-47 0 -70 22 -70 67c0 16 5 29 15 40c13 14 32 21 55 21zM255 148c9 -39 29 -71 59 -96c31 -27 64 -40 99 -40s56 9 64 28c0 35 -14 65 -42 90c-29 25 -63 37 -104 37c-28 0 -53 -6 -76 -19z" />
    <glyph glyph-name="_621" unicode="&#xfe92;&#xfee6;" horiz-adv-x="1120" 
d="M405 640c33 43 60 77 81 102c39 -28 79 -64 120 -107c-23 -38 -51 -71 -83 -98c-27 25 -66 60 -118 103zM915 -301c33 43 60 77 81 102c39 -28 79 -64 120 -107c-23 -38 -51 -71 -83 -98c-27 25 -66 60 -118 103zM999 489h10l10 -53c6 -27 12 -61 19 -101
c18 -96 46 -156 84 -180c33 -18 60 -27 79 -27h14v-128h-16c-59 0 -104 17 -135 52c-29 33 -54 90 -75 173l-26 103h-5c-33 -67 -80 -102 -141 -104c20 -50 30 -113 30 -188c0 -58 -10 -112 -29 -162c-27 -40 -62 -76 -106 -107c-71 -45 -146 -68 -225 -68
c-91 0 -164 30 -218 89c-53 57 -79 132 -79 227c0 79 17 157 50 236l35 -13c-18 -61 -27 -115 -27 -163c0 -70 25 -129 74 -176c47 -43 102 -65 165 -65c69 0 136 19 201 56c69 47 104 89 104 124c0 25 -7 59 -22 100c-17 47 -59 103 -126 170l36 130l10 1
c33 -31 57 -52 74 -64c20 -14 47 -21 81 -21c27 0 50 8 70 24z" />
    <glyph glyph-name="_622" unicode="&#xfe91;&#xfef0;" horiz-adv-x="999" 
d="M824 653h7c65 -129 98 -226 98 -291c0 -53 -18 -110 -54 -169c57 -13 95 -30 114 -53c17 -19 25 -50 25 -95c0 -37 -14 -82 -41 -135c-137 -135 -287 -202 -450 -202c-94 0 -174 31 -239 94c-69 73 -104 163 -104 268c0 95 25 199 75 314l39 -15
c-30 -84 -45 -154 -45 -210c0 -77 19 -142 58 -197c62 -76 138 -114 228 -114c109 0 205 25 288 75c66 40 108 73 127 99c0 18 -34 35 -102 52c-59 15 -130 25 -213 31l-7 9l48 104c93 14 153 38 180 73c-17 67 -52 150 -106 251c29 46 53 83 74 111zM771 -431
c33 43 60 77 81 102c39 -28 79 -64 120 -107c-23 -38 -51 -71 -83 -98c-27 25 -66 60 -118 103z" />
    <glyph glyph-name="_623" unicode="&#xfe91;&#xfef2;" horiz-adv-x="1011" 
d="M824 653h7c65 -129 98 -226 98 -291c0 -53 -18 -110 -54 -169c57 -13 95 -30 114 -53c17 -19 25 -50 25 -95c0 -37 -14 -82 -41 -135c-137 -135 -287 -202 -450 -202c-94 0 -174 31 -239 94c-69 73 -104 163 -104 268c0 95 25 199 75 314l39 -15
c-30 -84 -45 -154 -45 -210c0 -77 19 -142 58 -197c62 -76 138 -114 228 -114c109 0 205 25 288 75c66 40 108 73 127 99c0 18 -34 35 -102 52c-59 15 -130 25 -213 31l-7 9l48 104c93 14 153 38 180 73c-17 67 -52 150 -106 251c29 46 53 83 74 111zM720 -503
c-28 -40 -53 -71 -76 -92c-41 39 -80 74 -117 104c24 34 50 66 79 95c33 -27 71 -62 114 -107zM527 -516c-28 -40 -53 -71 -76 -92c-41 39 -80 74 -117 104c24 34 50 66 79 95c33 -27 71 -62 114 -107zM841 -381c33 43 60 77 81 102c39 -28 79 -64 120 -107
c-23 -38 -51 -71 -83 -98c-27 25 -66 60 -118 103z" />
    <glyph glyph-name="uniFC70" unicode="&#xfe98;&#xfeae;" horiz-adv-x="910" arabic-form="final" 
d="M853 692c-28 -40 -53 -71 -76 -92c-41 39 -80 74 -117 104c24 34 50 66 79 95c33 -27 71 -62 114 -107zM660 679c-28 -40 -53 -71 -76 -92c-41 39 -80 74 -117 104c24 34 50 66 79 95c33 -27 71 -62 114 -107zM696 479h10l27 -156c17 -91 45 -148 85 -173
c27 -15 54 -22 81 -22h13v-128h-18c-59 0 -104 16 -134 47s-55 87 -75 169l-25 102h-5c-37 -75 -87 -111 -148 -107c9 -41 14 -87 14 -138c0 -9 -1 -27 -2 -52c-4 -38 -23 -83 -57 -134c-69 -101 -135 -152 -197 -152c-69 0 -156 26 -261 79l14 32c35 -17 67 -25 94 -25
c103 0 194 47 274 142c54 63 81 110 81 141c-15 43 -57 99 -125 170l33 128h9c33 -30 58 -51 73 -63c21 -15 49 -22 84 -22c25 0 49 9 71 27z" />
    <glyph glyph-name="_625" unicode="&#xfe97;&#xfee4;" horiz-adv-x="820" 
d="M671 772c-28 -40 -53 -71 -76 -92c-41 39 -80 74 -117 104c24 34 50 66 79 95c33 -27 71 -62 114 -107zM478 759c-28 -40 -53 -71 -76 -92c-41 39 -80 74 -117 104c24 34 50 66 79 95c33 -27 71 -62 114 -107zM-70 128h9c94 0 175 29 244 88c17 110 61 198 133 265
c71 63 142 95 212 95c38 0 69 -9 94 -27c26 -19 39 -43 39 -73c0 -31 -7 -65 -20 -101l-7 -1c-26 50 -67 75 -124 75c-44 0 -89 -13 -134 -39c-65 -43 -104 -93 -118 -150l3 -3c35 16 69 24 101 24c55 0 98 -18 130 -53c32 -34 48 -74 48 -121c0 -43 -8 -80 -24 -112
c-35 -65 -81 -98 -137 -98s-103 23 -142 70c-35 39 -53 82 -54 128h-5c-61 -63 -141 -95 -238 -95h-10c-47 0 -70 22 -70 67c0 16 5 29 15 40c13 14 32 21 55 21zM255 148c9 -39 29 -71 59 -96c31 -27 64 -40 99 -40s56 9 64 28c0 35 -14 65 -42 90c-29 25 -63 37 -104 37
c-28 0 -53 -6 -76 -19z" />
    <glyph glyph-name="_626" unicode="&#xfe98;&#xfee6;" horiz-adv-x="1120" 
d="M405 640c33 43 60 77 81 102c39 -28 79 -64 120 -107c-23 -38 -51 -71 -83 -98c-27 25 -66 60 -118 103zM1161 702c-28 -40 -53 -71 -76 -92c-41 39 -80 74 -117 104c24 34 50 66 79 95c33 -27 71 -62 114 -107zM968 689c-28 -40 -53 -71 -76 -92c-41 39 -80 74 -117 104
c24 34 50 66 79 95c33 -27 71 -62 114 -107zM999 489h10l10 -53c6 -27 12 -61 19 -101c18 -96 46 -156 84 -180c33 -18 60 -27 79 -27h14v-128h-16c-59 0 -104 17 -135 52c-29 33 -54 90 -75 173l-26 103h-5c-33 -67 -80 -102 -141 -104c20 -50 30 -113 30 -188
c0 -58 -10 -112 -29 -162c-27 -40 -62 -76 -106 -107c-71 -45 -146 -68 -225 -68c-91 0 -164 30 -218 89c-53 57 -79 132 -79 227c0 79 17 157 50 236l35 -13c-18 -61 -27 -115 -27 -163c0 -70 25 -129 74 -176c47 -43 102 -65 165 -65c69 0 136 19 201 56
c69 47 104 89 104 124c0 25 -7 59 -22 100c-17 47 -59 103 -126 170l36 130l10 1c33 -31 57 -52 74 -64c20 -14 47 -21 81 -21c27 0 50 8 70 24z" />
    <glyph glyph-name="_627" unicode="&#xfe97;&#xfef0;" horiz-adv-x="1004" 
d="M824 653h7c65 -129 98 -226 98 -291c0 -53 -18 -110 -54 -169c57 -13 95 -30 114 -53c17 -19 25 -50 25 -95c0 -37 -14 -82 -41 -135c-137 -135 -287 -202 -450 -202c-94 0 -174 31 -239 94c-69 73 -104 163 -104 268c0 95 25 199 75 314l39 -15
c-30 -84 -45 -154 -45 -210c0 -77 19 -142 58 -197c62 -76 138 -114 228 -114c109 0 205 25 288 75c66 40 108 73 127 99c0 18 -34 35 -102 52c-59 15 -130 25 -213 31l-7 9l48 104c93 14 153 38 180 73c-17 67 -52 150 -106 251c29 46 53 83 74 111zM957 842
c-28 -40 -53 -71 -76 -92c-41 39 -80 74 -117 104c24 34 50 66 79 95c33 -27 71 -62 114 -107zM764 829c-28 -40 -53 -71 -76 -92c-41 39 -80 74 -117 104c24 34 50 66 79 95c33 -27 71 -62 114 -107z" />
    <glyph glyph-name="_628" unicode="&#xfe97;&#xfef2;" horiz-adv-x="1004" 
d="M824 653h7c65 -129 98 -226 98 -291c0 -53 -18 -110 -54 -169c57 -13 95 -30 114 -53c17 -19 25 -50 25 -95c0 -37 -14 -82 -41 -135c-137 -135 -287 -202 -450 -202c-94 0 -174 31 -239 94c-69 73 -104 163 -104 268c0 95 25 199 75 314l39 -15
c-30 -84 -45 -154 -45 -210c0 -77 19 -142 58 -197c62 -76 138 -114 228 -114c109 0 205 25 288 75c66 40 108 73 127 99c0 18 -34 35 -102 52c-59 15 -130 25 -213 31l-7 9l48 104c93 14 153 38 180 73c-17 67 -52 150 -106 251c29 46 53 83 74 111zM770 -493
c-28 -40 -53 -71 -76 -92c-41 39 -80 74 -117 104c24 34 50 66 79 95c33 -27 71 -62 114 -107zM577 -506c-28 -40 -53 -71 -76 -92c-41 39 -80 74 -117 104c24 34 50 66 79 95c33 -27 71 -62 114 -107zM957 842c-28 -40 -53 -71 -76 -92c-41 39 -80 74 -117 104
c24 34 50 66 79 95c33 -27 71 -62 114 -107zM764 829c-28 -40 -53 -71 -76 -92c-41 39 -80 74 -117 104c24 34 50 66 79 95c33 -27 71 -62 114 -107z" />
    <glyph glyph-name="_629" unicode="&#xfe9c;&#xfeae;" horiz-adv-x="910" 
d="M660 679c-28 -40 -53 -71 -76 -92c-41 39 -80 74 -117 104c24 34 50 66 79 95c33 -27 71 -62 114 -107zM714 892c-28 -40 -53 -71 -76 -92c-41 39 -80 74 -117 104c24 34 50 66 79 95c33 -27 71 -62 114 -107zM853 692c-28 -40 -53 -71 -76 -92c-41 39 -80 74 -117 104
c24 34 50 66 79 95c33 -27 71 -62 114 -107zM696 479h10l27 -156c17 -91 45 -148 85 -173c27 -15 54 -22 81 -22h13v-128h-18c-59 0 -104 16 -134 47s-55 87 -75 169l-25 102h-5c-37 -75 -87 -111 -148 -107c9 -41 14 -87 14 -138c0 -9 -1 -27 -2 -52
c-4 -38 -23 -83 -57 -134c-69 -101 -135 -152 -197 -152c-69 0 -156 26 -261 79l14 32c35 -17 67 -25 94 -25c103 0 194 47 274 142c54 63 81 110 81 141c-15 43 -57 99 -125 170l33 128h9c33 -30 58 -51 73 -63c21 -15 49 -22 84 -22c25 0 49 9 71 27z" />
    <glyph glyph-name="_630" unicode="&#xfe9b;&#xfee4;" horiz-adv-x="820" 
d="M478 739c-28 -40 -53 -71 -76 -92c-41 39 -80 74 -117 104c24 34 50 66 79 95c33 -27 71 -62 114 -107zM532 952c-28 -40 -53 -71 -76 -92c-41 39 -80 74 -117 104c24 34 50 66 79 95c33 -27 71 -62 114 -107zM671 752c-28 -40 -53 -71 -76 -92c-41 39 -80 74 -117 104
c24 34 50 66 79 95c33 -27 71 -62 114 -107zM-70 128h9c94 0 175 29 244 88c17 110 61 198 133 265c71 63 142 95 212 95c38 0 69 -9 94 -27c26 -19 39 -43 39 -73c0 -31 -7 -65 -20 -101l-7 -1c-26 50 -67 75 -124 75c-44 0 -89 -13 -134 -39c-65 -43 -104 -93 -118 -150
l3 -3c35 16 69 24 101 24c55 0 98 -18 130 -53c32 -34 48 -74 48 -121c0 -43 -8 -80 -24 -112c-35 -65 -81 -98 -137 -98s-103 23 -142 70c-35 39 -53 82 -54 128h-5c-61 -63 -141 -95 -238 -95h-10c-47 0 -70 22 -70 67c0 16 5 29 15 40c13 14 32 21 55 21zM255 148
c9 -39 29 -71 59 -96c31 -27 64 -40 99 -40s56 9 64 28c0 35 -14 65 -42 90c-29 25 -63 37 -104 37c-28 0 -53 -6 -76 -19z" />
    <glyph glyph-name="_631" unicode="&#xfe9c;&#xfee6;" horiz-adv-x="1120" 
d="M405 640c33 43 60 77 81 102c39 -28 79 -64 120 -107c-23 -38 -51 -71 -83 -98c-27 25 -66 60 -118 103zM968 689c-28 -40 -53 -71 -76 -92c-41 39 -80 74 -117 104c24 34 50 66 79 95c33 -27 71 -62 114 -107zM1022 902c-28 -40 -53 -71 -76 -92c-41 39 -80 74 -117 104
c24 34 50 66 79 95c33 -27 71 -62 114 -107zM1161 702c-28 -40 -53 -71 -76 -92c-41 39 -80 74 -117 104c24 34 50 66 79 95c33 -27 71 -62 114 -107zM999 489h10l10 -53c6 -27 12 -61 19 -101c18 -96 46 -156 84 -180c33 -18 60 -27 79 -27h14v-128h-16
c-59 0 -104 17 -135 52c-29 33 -54 90 -75 173l-26 103h-5c-33 -67 -80 -102 -141 -104c20 -50 30 -113 30 -188c0 -58 -10 -112 -29 -162c-27 -40 -62 -76 -106 -107c-71 -45 -146 -68 -225 -68c-91 0 -164 30 -218 89c-53 57 -79 132 -79 227c0 79 17 157 50 236l35 -13
c-18 -61 -27 -115 -27 -163c0 -70 25 -129 74 -176c47 -43 102 -65 165 -65c69 0 136 19 201 56c69 47 104 89 104 124c0 25 -7 59 -22 100c-17 47 -59 103 -126 170l36 130l10 1c33 -31 57 -52 74 -64c20 -14 47 -21 81 -21c27 0 50 8 70 24z" />
    <glyph glyph-name="_632" unicode="&#xfe9b;&#xfef0;" horiz-adv-x="1004" 
d="M824 653h7c65 -129 98 -226 98 -291c0 -53 -18 -110 -54 -169c57 -13 95 -30 114 -53c17 -19 25 -50 25 -95c0 -37 -14 -82 -41 -135c-137 -135 -287 -202 -450 -202c-94 0 -174 31 -239 94c-69 73 -104 163 -104 268c0 95 25 199 75 314l39 -15
c-30 -84 -45 -154 -45 -210c0 -77 19 -142 58 -197c62 -76 138 -114 228 -114c109 0 205 25 288 75c66 40 108 73 127 99c0 18 -34 35 -102 52c-59 15 -130 25 -213 31l-7 9l48 104c93 14 153 38 180 73c-17 67 -52 150 -106 251c29 46 53 83 74 111zM764 819
c-28 -40 -53 -71 -76 -92c-41 39 -80 74 -117 104c24 34 50 66 79 95c33 -27 71 -62 114 -107zM818 1032c-28 -40 -53 -71 -76 -92c-41 39 -80 74 -117 104c24 34 50 66 79 95c33 -27 71 -62 114 -107zM957 832c-28 -40 -53 -71 -76 -92c-41 39 -80 74 -117 104
c24 34 50 66 79 95c33 -27 71 -62 114 -107z" />
    <glyph glyph-name="_633" unicode="&#xfe9b;&#xfef2;" horiz-adv-x="1004" 
d="M824 653h7c65 -129 98 -226 98 -291c0 -53 -18 -110 -54 -169c57 -13 95 -30 114 -53c17 -19 25 -50 25 -95c0 -37 -14 -82 -41 -135c-137 -135 -287 -202 -450 -202c-94 0 -174 31 -239 94c-69 73 -104 163 -104 268c0 95 25 199 75 314l39 -15
c-30 -84 -45 -154 -45 -210c0 -77 19 -142 58 -197c62 -76 138 -114 228 -114c109 0 205 25 288 75c66 40 108 73 127 99c0 18 -34 35 -102 52c-59 15 -130 25 -213 31l-7 9l48 104c93 14 153 38 180 73c-17 67 -52 150 -106 251c29 46 53 83 74 111zM770 -493
c-28 -40 -53 -71 -76 -92c-41 39 -80 74 -117 104c24 34 50 66 79 95c33 -27 71 -62 114 -107zM577 -506c-28 -40 -53 -71 -76 -92c-41 39 -80 74 -117 104c24 34 50 66 79 95c33 -27 71 -62 114 -107zM764 819c-28 -40 -53 -71 -76 -92c-41 39 -80 74 -117 104
c24 34 50 66 79 95c33 -27 71 -62 114 -107zM818 1032c-28 -40 -53 -71 -76 -92c-41 39 -80 74 -117 104c24 34 50 66 79 95c33 -27 71 -62 114 -107zM957 832c-28 -40 -53 -71 -76 -92c-41 39 -80 74 -117 104c24 34 50 66 79 95c33 -27 71 -62 114 -107z" />
    <glyph glyph-name="uniFD0E" unicode="&#xfeb3;&#xfeae;" horiz-adv-x="1490" arabic-form="isolated" 
d="M953 128c32 0 62 10 89 29c21 15 44 68 71 159l60 35l6 -4c-9 -34 -13 -67 -13 -98c0 -35 11 -64 34 -86c21 -19 44 -29 70 -29c35 0 53 15 53 45c0 35 -8 89 -25 162c28 33 58 63 90 90l6 -3c11 -65 16 -124 16 -178c0 -44 -12 -90 -36 -137c-44 -73 -93 -110 -148 -110
c-44 0 -86 28 -125 83h-8c-51 -57 -104 -86 -158 -86c-49 0 -88 17 -119 52c-31 36 -47 82 -46 139c-114 -36 -191 -64 -232 -84c8 -25 12 -49 12 -74c0 -34 -1 -76 -4 -126c-3 -69 -29 -132 -77 -190c-78 -81 -152 -122 -221 -122c-70 0 -151 32 -242 97l15 28
c39 -17 79 -26 122 -26c85 0 171 37 258 111c66 68 99 122 99 163c0 27 -24 67 -73 120c6 38 16 78 30 121c128 53 252 92 373 118l2 -7c-4 -16 -6 -36 -6 -60c0 -33 13 -64 38 -91c26 -27 56 -41 89 -41z" />
    <glyph glyph-name="uniFD2A" unicode="&#xfeb4;&#xfeae;" horiz-adv-x="1601" arabic-form="final" 
d="M830 327l2 -7c-4 -16 -6 -36 -6 -60c0 -33 13 -64 38 -91c26 -27 56 -41 89 -41s61 9 84 26c28 19 54 70 79 153l67 35l4 -4c-18 -95 -27 -145 -27 -152c0 -15 4 -28 13 -39c11 -13 25 -19 43 -19c25 0 48 7 69 22c26 17 45 49 58 96l20 79l76 51l4 -3
c-17 -56 -25 -102 -25 -137c0 -72 55 -108 164 -108h22v-128h-25c-109 0 -178 31 -206 94h-6c-53 -63 -110 -94 -171 -94c-58 0 -94 28 -108 83h-5c-41 -55 -91 -83 -150 -83c-48 0 -87 17 -117 52c-31 37 -47 83 -46 139c-114 -36 -191 -64 -232 -84c8 -25 12 -49 12 -74
c0 -34 -1 -76 -4 -126c-3 -69 -29 -132 -77 -190c-78 -81 -152 -122 -221 -122c-70 0 -151 32 -242 97l15 28c39 -17 79 -26 122 -26c85 0 171 37 258 111c66 68 99 122 99 163c0 27 -24 67 -73 120c6 38 16 78 30 121c128 53 252 92 373 118z" />
    <glyph glyph-name="uniFCFB" unicode="&#xfeb3;&#xfef0;" horiz-adv-x="1587" arabic-form="isolated" 
d="M1134 128c32 0 62 10 89 29c21 15 44 68 71 159l60 35l6 -4c-9 -34 -13 -67 -13 -98c0 -35 11 -64 34 -86c21 -19 44 -29 70 -29c35 0 53 15 53 45c0 35 -8 89 -25 162c28 33 58 63 90 90l6 -3c11 -65 16 -124 16 -178c0 -44 -12 -90 -36 -137
c-44 -73 -93 -110 -148 -110c-44 0 -86 28 -125 83h-8c-53 -57 -108 -86 -164 -86c-45 0 -83 20 -114 59c-30 37 -45 80 -45 129c0 19 -10 37 -29 52s-41 22 -68 22c-43 0 -87 -17 -132 -51c-45 -33 -67 -65 -67 -96c0 -36 55 -64 164 -83c82 -14 130 -40 145 -78
c8 -20 12 -40 12 -60c0 -25 -11 -62 -32 -110c-22 -34 -67 -69 -136 -106c-105 -55 -204 -82 -299 -82c-98 0 -177 29 -238 86c-65 63 -97 152 -97 268c0 84 22 176 65 276l42 -19c-27 -59 -41 -124 -41 -195c0 -88 29 -159 87 -212c55 -50 125 -75 209 -75
c57 0 120 13 191 39c93 37 154 73 185 109c0 12 -44 26 -132 43c-62 10 -108 25 -138 44c-37 25 -56 63 -56 113c0 79 32 152 96 218c65 68 134 102 205 102c37 0 65 -12 83 -37c13 -18 24 -49 33 -94c10 -41 27 -74 52 -99c25 -23 51 -35 79 -35z" />
    <glyph glyph-name="uniFD17" unicode="&#xfeb4;&#xfef0;" horiz-adv-x="1697" arabic-form="final" 
d="M887 393c37 0 65 -12 83 -37c13 -18 24 -49 33 -94c10 -41 27 -74 52 -99c25 -23 51 -35 79 -35c33 0 62 9 87 28c28 25 52 76 73 154l70 36l6 -4c-20 -92 -30 -144 -30 -156c0 -15 4 -28 13 -39c11 -13 25 -19 43 -19c25 0 48 7 69 22c26 17 45 49 58 96l20 79l76 51
l4 -3c-17 -56 -25 -102 -25 -137c0 -72 55 -108 164 -108h22v-128h-25c-109 0 -178 31 -206 94h-6c-53 -63 -110 -94 -171 -94c-59 0 -96 28 -109 83h-4c-46 -55 -97 -83 -153 -83c-45 0 -83 20 -114 59c-30 37 -45 80 -45 129c0 19 -10 37 -29 52s-41 22 -68 22
c-43 0 -87 -17 -132 -51c-45 -33 -67 -65 -67 -96c0 -36 55 -64 164 -83c82 -14 130 -40 145 -78c8 -20 12 -40 12 -60c0 -25 -11 -62 -32 -110c-22 -34 -67 -69 -136 -106c-105 -55 -204 -82 -299 -82c-98 0 -177 29 -238 86c-65 63 -97 152 -97 268c0 84 22 176 65 276
l42 -19c-27 -59 -41 -124 -41 -195c0 -88 29 -159 87 -212c55 -50 125 -75 209 -75c57 0 120 13 191 39c93 37 154 73 185 109c0 12 -44 26 -132 43c-62 10 -108 25 -138 44c-37 25 -56 63 -56 113c0 79 32 152 96 218c65 68 134 102 205 102z" />
    <glyph glyph-name="uniFCFC" unicode="&#xfeb3;&#xfef2;" horiz-adv-x="1587" arabic-form="isolated" 
d="M1134 128c32 0 62 10 89 29c21 15 44 68 71 159l60 35l6 -4c-9 -34 -13 -67 -13 -98c0 -35 11 -64 34 -86c21 -19 44 -29 70 -29c35 0 53 15 53 45c0 35 -8 89 -25 162c28 33 58 63 90 90l6 -3c11 -65 16 -124 16 -178c0 -44 -12 -90 -36 -137
c-44 -73 -93 -110 -148 -110c-44 0 -86 28 -125 83h-8c-53 -57 -108 -86 -164 -86c-45 0 -83 20 -114 59c-30 37 -45 80 -45 129c0 19 -10 37 -29 52s-41 22 -68 22c-43 0 -87 -17 -132 -51c-45 -33 -67 -65 -67 -96c0 -36 55 -64 164 -83c82 -14 130 -40 145 -78
c8 -20 12 -40 12 -60c0 -25 -11 -62 -32 -110c-22 -34 -67 -69 -136 -106c-105 -55 -204 -82 -299 -82c-98 0 -177 29 -238 86c-65 63 -97 152 -97 268c0 84 22 176 65 276l42 -19c-27 -59 -41 -124 -41 -195c0 -88 29 -159 87 -212c55 -50 125 -75 209 -75
c57 0 120 13 191 39c93 37 154 73 185 109c0 12 -44 26 -132 43c-62 10 -108 25 -138 44c-37 25 -56 63 -56 113c0 79 32 152 96 218c65 68 134 102 205 102c37 0 65 -12 83 -37c13 -18 24 -49 33 -94c10 -41 27 -74 52 -99c25 -23 51 -35 79 -35zM761 -573
c-28 -40 -53 -71 -76 -92c-41 39 -80 74 -117 104c24 34 50 66 79 95c33 -27 71 -62 114 -107zM568 -586c-28 -40 -53 -71 -76 -92c-41 39 -80 74 -117 104c24 34 50 66 79 95c33 -27 71 -62 114 -107z" />
    <glyph glyph-name="uniFD18" unicode="&#xfeb4;&#xfef2;" horiz-adv-x="1697" arabic-form="final" 
d="M887 393c37 0 65 -12 83 -37c13 -18 24 -49 33 -94c10 -41 27 -74 52 -99c25 -23 51 -35 79 -35c33 0 62 9 87 28c28 25 52 76 73 154l70 36l6 -4c-20 -92 -30 -144 -30 -156c0 -15 4 -28 13 -39c11 -13 25 -19 43 -19c25 0 48 7 69 22c26 17 45 49 58 96l20 79l76 51
l4 -3c-17 -56 -25 -102 -25 -137c0 -72 55 -108 164 -108h22v-128h-25c-109 0 -178 31 -206 94h-6c-53 -63 -110 -94 -171 -94c-59 0 -96 28 -109 83h-4c-46 -55 -97 -83 -153 -83c-45 0 -83 20 -114 59c-30 37 -45 80 -45 129c0 19 -10 37 -29 52s-41 22 -68 22
c-43 0 -87 -17 -132 -51c-45 -33 -67 -65 -67 -96c0 -36 55 -64 164 -83c82 -14 130 -40 145 -78c8 -20 12 -40 12 -60c0 -25 -11 -62 -32 -110c-22 -34 -67 -69 -136 -106c-105 -55 -204 -82 -299 -82c-98 0 -177 29 -238 86c-65 63 -97 152 -97 268c0 84 22 176 65 276
l42 -19c-27 -59 -41 -124 -41 -195c0 -88 29 -159 87 -212c55 -50 125 -75 209 -75c57 0 120 13 191 39c93 37 154 73 185 109c0 12 -44 26 -132 43c-62 10 -108 25 -138 44c-37 25 -56 63 -56 113c0 79 32 152 96 218c65 68 134 102 205 102zM761 -573
c-28 -40 -53 -71 -76 -92c-41 39 -80 74 -117 104c24 34 50 66 79 95c33 -27 71 -62 114 -107zM568 -586c-28 -40 -53 -71 -76 -92c-41 39 -80 74 -117 104c24 34 50 66 79 95c33 -27 71 -62 114 -107z" />
    <glyph glyph-name="uniFD0D" unicode="&#xfeb7;&#xfeae;" horiz-adv-x="1490" arabic-form="isolated" 
d="M953 128c32 0 62 10 89 29c21 15 44 68 71 159l60 35l6 -4c-9 -34 -13 -67 -13 -98c0 -35 11 -64 34 -86c21 -19 44 -29 70 -29c35 0 53 15 53 45c0 35 -8 89 -25 162c28 33 58 63 90 90l6 -3c11 -65 16 -124 16 -178c0 -44 -12 -90 -36 -137c-44 -73 -93 -110 -148 -110
c-44 0 -86 28 -125 83h-8c-51 -57 -104 -86 -158 -86c-49 0 -88 17 -119 52c-31 36 -47 82 -46 139c-114 -36 -191 -64 -232 -84c8 -25 12 -49 12 -74c0 -34 -1 -76 -4 -126c-3 -69 -29 -132 -77 -190c-78 -81 -152 -122 -221 -122c-70 0 -151 32 -242 97l15 28
c39 -17 79 -26 122 -26c85 0 171 37 258 111c66 68 99 122 99 163c0 27 -24 67 -73 120c6 38 16 78 30 121c128 53 252 92 373 118l2 -7c-4 -16 -6 -36 -6 -60c0 -33 13 -64 38 -91c26 -27 56 -41 89 -41zM1175 802c-28 -40 -53 -71 -76 -92c-41 39 -80 74 -117 104
c24 34 50 66 79 95c33 -27 71 -62 114 -107zM1121 589c-28 -40 -53 -71 -76 -92c-41 39 -80 74 -117 104c24 34 50 66 79 95c33 -27 71 -62 114 -107zM1314 602c-28 -40 -53 -71 -76 -92c-41 39 -80 74 -117 104c24 34 50 66 79 95c33 -27 71 -62 114 -107z" />
    <glyph glyph-name="uniFD29" unicode="&#xfeb8;&#xfeae;" horiz-adv-x="1601" arabic-form="final" 
d="M830 327l2 -7c-4 -16 -6 -36 -6 -60c0 -33 13 -64 38 -91c26 -27 56 -41 89 -41s61 9 84 26c28 19 54 70 79 153l67 35l4 -4c-18 -95 -27 -145 -27 -152c0 -15 4 -28 13 -39c11 -13 25 -19 43 -19c25 0 48 7 69 22c26 17 45 49 58 96l20 79l76 51l4 -3
c-17 -56 -25 -102 -25 -137c0 -72 55 -108 164 -108h22v-128h-25c-109 0 -178 31 -206 94h-6c-53 -63 -110 -94 -171 -94c-58 0 -94 28 -108 83h-5c-41 -55 -91 -83 -150 -83c-48 0 -87 17 -117 52c-31 37 -47 83 -46 139c-114 -36 -191 -64 -232 -84c8 -25 12 -49 12 -74
c0 -34 -1 -76 -4 -126c-3 -69 -29 -132 -77 -190c-78 -81 -152 -122 -221 -122c-70 0 -151 32 -242 97l15 28c39 -17 79 -26 122 -26c85 0 171 37 258 111c66 68 99 122 99 163c0 27 -24 67 -73 120c6 38 16 78 30 121c128 53 252 92 373 118zM1205 802
c-28 -40 -53 -71 -76 -92c-41 39 -80 74 -117 104c24 34 50 66 79 95c33 -27 71 -62 114 -107zM1151 589c-28 -40 -53 -71 -76 -92c-41 39 -80 74 -117 104c24 34 50 66 79 95c33 -27 71 -62 114 -107zM1344 602c-28 -40 -53 -71 -76 -92c-41 39 -80 74 -117 104
c24 34 50 66 79 95c33 -27 71 -62 114 -107z" />
    <glyph glyph-name="uniFCFD" unicode="&#xfeb7;&#xfef0;" horiz-adv-x="1587" arabic-form="isolated" 
d="M1134 128c32 0 62 10 89 29c21 15 44 68 71 159l60 35l6 -4c-9 -34 -13 -67 -13 -98c0 -35 11 -64 34 -86c21 -19 44 -29 70 -29c35 0 53 15 53 45c0 35 -8 89 -25 162c28 33 58 63 90 90l6 -3c11 -65 16 -124 16 -178c0 -44 -12 -90 -36 -137
c-44 -73 -93 -110 -148 -110c-44 0 -86 28 -125 83h-8c-53 -57 -108 -86 -164 -86c-45 0 -83 20 -114 59c-30 37 -45 80 -45 129c0 19 -10 37 -29 52s-41 22 -68 22c-43 0 -87 -17 -132 -51c-45 -33 -67 -65 -67 -96c0 -36 55 -64 164 -83c82 -14 130 -40 145 -78
c8 -20 12 -40 12 -60c0 -25 -11 -62 -32 -110c-22 -34 -67 -69 -136 -106c-105 -55 -204 -82 -299 -82c-98 0 -177 29 -238 86c-65 63 -97 152 -97 268c0 84 22 176 65 276l42 -19c-27 -59 -41 -124 -41 -195c0 -88 29 -159 87 -212c55 -50 125 -75 209 -75
c57 0 120 13 191 39c93 37 154 73 185 109c0 12 -44 26 -132 43c-62 10 -108 25 -138 44c-37 25 -56 63 -56 113c0 79 32 152 96 218c65 68 134 102 205 102c37 0 65 -12 83 -37c13 -18 24 -49 33 -94c10 -41 27 -74 52 -99c25 -23 51 -35 79 -35zM1349 802
c-28 -40 -53 -71 -76 -92c-41 39 -80 74 -117 104c24 34 50 66 79 95c33 -27 71 -62 114 -107zM1295 589c-28 -40 -53 -71 -76 -92c-41 39 -80 74 -117 104c24 34 50 66 79 95c33 -27 71 -62 114 -107zM1488 602c-28 -40 -53 -71 -76 -92c-41 39 -80 74 -117 104
c24 34 50 66 79 95c33 -27 71 -62 114 -107z" />
    <glyph glyph-name="uniFD19" unicode="&#xfeb8;&#xfef0;" horiz-adv-x="1697" arabic-form="final" 
d="M887 393c37 0 65 -12 83 -37c13 -18 24 -49 33 -94c10 -41 27 -74 52 -99c25 -23 51 -35 79 -35c33 0 62 9 87 28c28 25 52 76 73 154l70 36l6 -4c-20 -92 -30 -144 -30 -156c0 -15 4 -28 13 -39c11 -13 25 -19 43 -19c25 0 48 7 69 22c26 17 45 49 58 96l20 79l76 51
l4 -3c-17 -56 -25 -102 -25 -137c0 -72 55 -108 164 -108h22v-128h-25c-109 0 -178 31 -206 94h-6c-53 -63 -110 -94 -171 -94c-59 0 -96 28 -109 83h-4c-46 -55 -97 -83 -153 -83c-45 0 -83 20 -114 59c-30 37 -45 80 -45 129c0 19 -10 37 -29 52s-41 22 -68 22
c-43 0 -87 -17 -132 -51c-45 -33 -67 -65 -67 -96c0 -36 55 -64 164 -83c82 -14 130 -40 145 -78c8 -20 12 -40 12 -60c0 -25 -11 -62 -32 -110c-22 -34 -67 -69 -136 -106c-105 -55 -204 -82 -299 -82c-98 0 -177 29 -238 86c-65 63 -97 152 -97 268c0 84 22 176 65 276
l42 -19c-27 -59 -41 -124 -41 -195c0 -88 29 -159 87 -212c55 -50 125 -75 209 -75c57 0 120 13 191 39c93 37 154 73 185 109c0 12 -44 26 -132 43c-62 10 -108 25 -138 44c-37 25 -56 63 -56 113c0 79 32 152 96 218c65 68 134 102 205 102zM1379 802
c-28 -40 -53 -71 -76 -92c-41 39 -80 74 -117 104c24 34 50 66 79 95c33 -27 71 -62 114 -107zM1325 589c-28 -40 -53 -71 -76 -92c-41 39 -80 74 -117 104c24 34 50 66 79 95c33 -27 71 -62 114 -107zM1518 602c-28 -40 -53 -71 -76 -92c-41 39 -80 74 -117 104
c24 34 50 66 79 95c33 -27 71 -62 114 -107z" />
    <glyph glyph-name="uniFCFE" unicode="&#xfeb7;&#xfef2;" horiz-adv-x="1587" arabic-form="isolated" 
d="M1134 128c32 0 62 10 89 29c21 15 44 68 71 159l60 35l6 -4c-9 -34 -13 -67 -13 -98c0 -35 11 -64 34 -86c21 -19 44 -29 70 -29c35 0 53 15 53 45c0 35 -8 89 -25 162c28 33 58 63 90 90l6 -3c11 -65 16 -124 16 -178c0 -44 -12 -90 -36 -137
c-44 -73 -93 -110 -148 -110c-44 0 -86 28 -125 83h-8c-53 -57 -108 -86 -164 -86c-45 0 -83 20 -114 59c-30 37 -45 80 -45 129c0 19 -10 37 -29 52s-41 22 -68 22c-43 0 -87 -17 -132 -51c-45 -33 -67 -65 -67 -96c0 -36 55 -64 164 -83c82 -14 130 -40 145 -78
c8 -20 12 -40 12 -60c0 -25 -11 -62 -32 -110c-22 -34 -67 -69 -136 -106c-105 -55 -204 -82 -299 -82c-98 0 -177 29 -238 86c-65 63 -97 152 -97 268c0 84 22 176 65 276l42 -19c-27 -59 -41 -124 -41 -195c0 -88 29 -159 87 -212c55 -50 125 -75 209 -75
c57 0 120 13 191 39c93 37 154 73 185 109c0 12 -44 26 -132 43c-62 10 -108 25 -138 44c-37 25 -56 63 -56 113c0 79 32 152 96 218c65 68 134 102 205 102c37 0 65 -12 83 -37c13 -18 24 -49 33 -94c10 -41 27 -74 52 -99c25 -23 51 -35 79 -35zM761 -573
c-28 -40 -53 -71 -76 -92c-41 39 -80 74 -117 104c24 34 50 66 79 95c33 -27 71 -62 114 -107zM568 -586c-28 -40 -53 -71 -76 -92c-41 39 -80 74 -117 104c24 34 50 66 79 95c33 -27 71 -62 114 -107zM1379 802c-28 -40 -53 -71 -76 -92c-41 39 -80 74 -117 104
c24 34 50 66 79 95c33 -27 71 -62 114 -107zM1325 589c-28 -40 -53 -71 -76 -92c-41 39 -80 74 -117 104c24 34 50 66 79 95c33 -27 71 -62 114 -107zM1518 602c-28 -40 -53 -71 -76 -92c-41 39 -80 74 -117 104c24 34 50 66 79 95c33 -27 71 -62 114 -107z" />
    <glyph glyph-name="uniFD1A" unicode="&#xfeb8;&#xfef2;" horiz-adv-x="1697" arabic-form="final" 
d="M887 393c37 0 65 -12 83 -37c13 -18 24 -49 33 -94c10 -41 27 -74 52 -99c25 -23 51 -35 79 -35c33 0 62 9 87 28c28 25 52 76 73 154l70 36l6 -4c-20 -92 -30 -144 -30 -156c0 -15 4 -28 13 -39c11 -13 25 -19 43 -19c25 0 48 7 69 22c26 17 45 49 58 96l20 79l76 51
l4 -3c-17 -56 -25 -102 -25 -137c0 -72 55 -108 164 -108h22v-128h-25c-109 0 -178 31 -206 94h-6c-53 -63 -110 -94 -171 -94c-59 0 -96 28 -109 83h-4c-46 -55 -97 -83 -153 -83c-45 0 -83 20 -114 59c-30 37 -45 80 -45 129c0 19 -10 37 -29 52s-41 22 -68 22
c-43 0 -87 -17 -132 -51c-45 -33 -67 -65 -67 -96c0 -36 55 -64 164 -83c82 -14 130 -40 145 -78c8 -20 12 -40 12 -60c0 -25 -11 -62 -32 -110c-22 -34 -67 -69 -136 -106c-105 -55 -204 -82 -299 -82c-98 0 -177 29 -238 86c-65 63 -97 152 -97 268c0 84 22 176 65 276
l42 -19c-27 -59 -41 -124 -41 -195c0 -88 29 -159 87 -212c55 -50 125 -75 209 -75c57 0 120 13 191 39c93 37 154 73 185 109c0 12 -44 26 -132 43c-62 10 -108 25 -138 44c-37 25 -56 63 -56 113c0 79 32 152 96 218c65 68 134 102 205 102zM761 -573
c-28 -40 -53 -71 -76 -92c-41 39 -80 74 -117 104c24 34 50 66 79 95c33 -27 71 -62 114 -107zM568 -586c-28 -40 -53 -71 -76 -92c-41 39 -80 74 -117 104c24 34 50 66 79 95c33 -27 71 -62 114 -107zM1379 802c-28 -40 -53 -71 -76 -92c-41 39 -80 74 -117 104
c24 34 50 66 79 95c33 -27 71 -62 114 -107zM1325 589c-28 -40 -53 -71 -76 -92c-41 39 -80 74 -117 104c24 34 50 66 79 95c33 -27 71 -62 114 -107zM1518 602c-28 -40 -53 -71 -76 -92c-41 39 -80 74 -117 104c24 34 50 66 79 95c33 -27 71 -62 114 -107z" />
    <glyph glyph-name="uniFD0F" unicode="&#xfebb;&#xfeae;" horiz-adv-x="1690" arabic-form="isolated" 
d="M957 174c70 107 139 191 206 251c81 73 161 109 240 109c87 0 149 -37 186 -110c17 -33 25 -72 25 -117c0 -28 -6 -60 -19 -95c-29 -85 -98 -145 -208 -181c-59 -21 -142 -31 -249 -31c-79 0 -143 11 -190 33c-23 -32 -51 -77 -84 -136l-21 12c14 56 30 108 48 156
c-57 42 -88 93 -94 153c-105 -33 -187 -65 -246 -94c8 -25 12 -49 12 -73c0 -31 -2 -77 -5 -138c-4 -63 -33 -128 -87 -193c-79 -81 -153 -122 -221 -122c-70 0 -151 32 -242 97l15 28c39 -17 79 -26 122 -26c85 0 171 37 258 111c72 74 108 134 108 181
c0 25 -24 64 -71 117c6 38 16 78 30 121c117 49 238 93 362 134c11 -90 53 -152 125 -187zM1007 149c42 -14 104 -21 187 -21c95 0 181 19 260 57c55 26 82 50 82 72c-7 43 -26 79 -57 108c-33 29 -72 44 -115 44c-119 0 -238 -87 -357 -260z" />
    <glyph glyph-name="uniFD2B" unicode="&#xfebc;&#xfeae;" horiz-adv-x="1689" arabic-form="final" 
d="M551 124c8 -25 12 -49 12 -73c0 -31 -2 -77 -5 -138c-4 -63 -33 -128 -87 -193c-79 -81 -153 -122 -221 -122c-70 0 -151 32 -242 97l15 28c39 -17 79 -26 122 -26c85 0 171 37 258 111c72 74 108 134 108 181c0 25 -24 64 -71 117c6 38 16 78 30 121
c117 49 238 93 362 134c11 -90 53 -152 125 -187c72 110 140 193 204 249c79 69 153 103 224 103c69 0 124 -22 166 -67c40 -41 60 -92 60 -154c0 -50 -17 -109 -51 -177h133v-128h-26c-99 0 -198 12 -299 35c-76 -23 -154 -35 -233 -35c-77 0 -140 11 -187 33
c-23 -32 -51 -77 -84 -136l-21 12c14 56 30 108 48 156c-57 42 -88 93 -94 153c-105 -33 -187 -65 -246 -94zM1010 149c42 -14 103 -21 183 -21c101 0 187 15 260 45c55 22 82 47 82 75c-7 43 -28 78 -65 107c-36 28 -77 42 -122 42c-104 0 -217 -83 -338 -248z" />
    <glyph glyph-name="uniFD05" unicode="&#xfebb;&#xfef0;" horiz-adv-x="1765" arabic-form="isolated" 
d="M1115 174c70 107 139 191 206 251c81 73 161 109 240 109c87 0 149 -37 186 -110c17 -33 25 -72 25 -117c0 -28 -6 -60 -19 -95c-29 -85 -98 -145 -208 -181c-59 -21 -142 -31 -249 -31h-5c-66 0 -122 9 -168 26l-55 -106l-14 3c3 41 8 84 16 130c-48 21 -85 66 -112 137
c-19 48 -54 72 -105 72c-43 0 -87 -17 -132 -51c-44 -33 -66 -65 -66 -96c0 -36 55 -64 164 -83c82 -14 130 -40 145 -78c8 -20 12 -40 12 -60c0 -25 -11 -62 -32 -110c-22 -34 -67 -69 -136 -106c-105 -55 -204 -82 -299 -82c-98 0 -177 29 -238 86c-65 63 -97 152 -97 268
c0 84 22 176 65 276l42 -19c-27 -59 -41 -124 -41 -195c0 -88 29 -159 87 -212c55 -50 125 -75 209 -75c57 0 120 13 191 39c93 37 154 73 185 109c0 12 -44 26 -132 43c-62 10 -108 25 -138 44c-37 25 -56 63 -56 113c0 79 32 152 96 218c65 69 133 103 205 103
c50 0 84 -24 101 -71c27 -67 69 -116 127 -149zM1164 149c42 -14 104 -21 187 -21c95 0 181 19 260 57c55 26 82 50 82 72c-7 43 -26 79 -57 108c-33 29 -72 44 -115 44c-119 0 -238 -87 -357 -260z" />
    <glyph glyph-name="uniFD21" unicode="&#xfebc;&#xfef0;" horiz-adv-x="1762" arabic-form="final" 
d="M509 -404c-98 0 -177 29 -238 86c-65 63 -97 152 -97 268c0 84 22 176 65 276l42 -19c-27 -59 -41 -124 -41 -195c0 -88 29 -159 87 -212c55 -50 125 -75 209 -75c57 0 120 13 191 39c93 37 154 73 185 109c0 12 -44 26 -132 43c-62 10 -108 25 -138 44
c-37 25 -56 63 -56 113c0 79 32 152 96 218c65 69 133 103 205 103c50 0 84 -24 101 -71c27 -67 69 -116 127 -149c75 114 142 197 202 249c79 69 153 103 224 103c69 0 124 -22 166 -67c40 -41 60 -92 60 -154c0 -50 -17 -109 -51 -177h133v-128h-26c-99 0 -198 12 -299 35
c-76 -23 -154 -35 -233 -35c-66 0 -122 9 -168 26l-55 -106l-14 3c3 41 8 84 16 130c-48 21 -85 66 -112 137c-19 48 -54 72 -105 72c-43 0 -87 -17 -132 -51c-44 -33 -66 -65 -66 -96c0 -36 55 -64 164 -83c82 -14 130 -40 145 -78c8 -20 12 -40 12 -60
c0 -25 -11 -62 -32 -110c-22 -34 -67 -69 -136 -106c-105 -55 -204 -82 -299 -82zM1168 151c47 -15 108 -23 181 -23c101 0 187 15 260 45c55 22 82 47 82 75c-7 43 -28 78 -65 107c-36 28 -77 42 -122 42c-105 0 -217 -82 -336 -246z" />
    <glyph glyph-name="uniFD06" unicode="&#xfebb;&#xfef2;" horiz-adv-x="1765" arabic-form="isolated" 
d="M1115 174c70 107 139 191 206 251c81 73 161 109 240 109c87 0 149 -37 186 -110c17 -33 25 -72 25 -117c0 -28 -6 -60 -19 -95c-29 -85 -98 -145 -208 -181c-59 -21 -142 -31 -249 -31h-5c-66 0 -122 9 -168 26l-55 -106l-14 3c3 41 8 84 16 130c-48 21 -85 66 -112 137
c-19 48 -54 72 -105 72c-43 0 -87 -17 -132 -51c-44 -33 -66 -65 -66 -96c0 -36 55 -64 164 -83c82 -14 130 -40 145 -78c8 -20 12 -40 12 -60c0 -25 -11 -62 -32 -110c-22 -34 -67 -69 -136 -106c-105 -55 -204 -82 -299 -82c-98 0 -177 29 -238 86c-65 63 -97 152 -97 268
c0 84 22 176 65 276l42 -19c-27 -59 -41 -124 -41 -195c0 -88 29 -159 87 -212c55 -50 125 -75 209 -75c57 0 120 13 191 39c93 37 154 73 185 109c0 12 -44 26 -132 43c-62 10 -108 25 -138 44c-37 25 -56 63 -56 113c0 79 32 152 96 218c65 69 133 103 205 103
c50 0 84 -24 101 -71c27 -67 69 -116 127 -149zM1164 149c42 -14 104 -21 187 -21c95 0 181 19 260 57c55 26 82 50 82 72c-7 43 -26 79 -57 108c-33 29 -72 44 -115 44c-119 0 -238 -87 -357 -260zM761 -573c-28 -40 -53 -71 -76 -92c-41 39 -80 74 -117 104
c24 34 50 66 79 95c33 -27 71 -62 114 -107zM568 -586c-28 -40 -53 -71 -76 -92c-41 39 -80 74 -117 104c24 34 50 66 79 95c33 -27 71 -62 114 -107z" />
    <glyph glyph-name="uniFD22" unicode="&#xfebc;&#xfef2;" horiz-adv-x="1762" arabic-form="final" 
d="M509 -404c-98 0 -177 29 -238 86c-65 63 -97 152 -97 268c0 84 22 176 65 276l42 -19c-27 -59 -41 -124 -41 -195c0 -88 29 -159 87 -212c55 -50 125 -75 209 -75c57 0 120 13 191 39c93 37 154 73 185 109c0 12 -44 26 -132 43c-62 10 -108 25 -138 44
c-37 25 -56 63 -56 113c0 79 32 152 96 218c65 69 133 103 205 103c50 0 84 -24 101 -71c27 -67 69 -116 127 -149c75 114 142 197 202 249c79 69 153 103 224 103c69 0 124 -22 166 -67c40 -41 60 -92 60 -154c0 -50 -17 -109 -51 -177h133v-128h-26c-99 0 -198 12 -299 35
c-76 -23 -154 -35 -233 -35c-66 0 -122 9 -168 26l-55 -106l-14 3c3 41 8 84 16 130c-48 21 -85 66 -112 137c-19 48 -54 72 -105 72c-43 0 -87 -17 -132 -51c-44 -33 -66 -65 -66 -96c0 -36 55 -64 164 -83c82 -14 130 -40 145 -78c8 -20 12 -40 12 -60
c0 -25 -11 -62 -32 -110c-22 -34 -67 -69 -136 -106c-105 -55 -204 -82 -299 -82zM1168 151c47 -15 108 -23 181 -23c101 0 187 15 260 45c55 22 82 47 82 75c-7 43 -28 78 -65 107c-36 28 -77 42 -122 42c-105 0 -217 -82 -336 -246zM761 -573c-28 -40 -53 -71 -76 -92
c-41 39 -80 74 -117 104c24 34 50 66 79 95c33 -27 71 -62 114 -107zM568 -586c-28 -40 -53 -71 -76 -92c-41 39 -80 74 -117 104c24 34 50 66 79 95c33 -27 71 -62 114 -107z" />
    <glyph glyph-name="uniFD10" unicode="&#xfebf;&#xfeae;" horiz-adv-x="1690" arabic-form="isolated" 
d="M957 174c70 107 139 191 206 251c81 73 161 109 240 109c87 0 149 -37 186 -110c17 -33 25 -72 25 -117c0 -28 -6 -60 -19 -95c-29 -85 -98 -145 -208 -181c-59 -21 -142 -31 -249 -31c-79 0 -143 11 -190 33c-23 -32 -51 -77 -84 -136l-21 12c14 56 30 108 48 156
c-57 42 -88 93 -94 153c-105 -33 -187 -65 -246 -94c8 -25 12 -49 12 -73c0 -31 -2 -77 -5 -138c-4 -63 -33 -128 -87 -193c-79 -81 -153 -122 -221 -122c-70 0 -151 32 -242 97l15 28c39 -17 79 -26 122 -26c85 0 171 37 258 111c72 74 108 134 108 181
c0 25 -24 64 -71 117c6 38 16 78 30 121c117 49 238 93 362 134c11 -90 53 -152 125 -187zM1007 149c42 -14 104 -21 187 -21c95 0 181 19 260 57c55 26 82 50 82 72c-7 43 -26 79 -57 108c-33 29 -72 44 -115 44c-119 0 -238 -87 -357 -260zM1099 769c33 43 60 77 81 102
c39 -28 79 -64 120 -107c-23 -38 -51 -71 -83 -98c-27 25 -66 60 -118 103z" />
    <glyph glyph-name="uniFD2C" unicode="&#xfec0;&#xfeae;" horiz-adv-x="1689" arabic-form="final" 
d="M551 124c8 -25 12 -49 12 -73c0 -31 -2 -77 -5 -138c-4 -63 -33 -128 -87 -193c-79 -81 -153 -122 -221 -122c-70 0 -151 32 -242 97l15 28c39 -17 79 -26 122 -26c85 0 171 37 258 111c72 74 108 134 108 181c0 25 -24 64 -71 117c6 38 16 78 30 121
c117 49 238 93 362 134c11 -90 53 -152 125 -187c72 110 140 193 204 249c79 69 153 103 224 103c69 0 124 -22 166 -67c40 -41 60 -92 60 -154c0 -50 -17 -109 -51 -177h133v-128h-26c-99 0 -198 12 -299 35c-76 -23 -154 -35 -233 -35c-77 0 -140 11 -187 33
c-23 -32 -51 -77 -84 -136l-21 12c14 56 30 108 48 156c-57 42 -88 93 -94 153c-105 -33 -187 -65 -246 -94zM1010 149c42 -14 103 -21 183 -21c101 0 187 15 260 45c55 22 82 47 82 75c-7 43 -28 78 -65 107c-36 28 -77 42 -122 42c-104 0 -217 -83 -338 -248zM1089 769
c33 43 60 77 81 102c39 -28 79 -64 120 -107c-23 -38 -51 -71 -83 -98c-27 25 -66 60 -118 103z" />
    <glyph glyph-name="uniFD07" unicode="&#xfebf;&#xfef0;" horiz-adv-x="1765" arabic-form="isolated" 
d="M1115 174c70 107 139 191 206 251c81 73 161 109 240 109c87 0 149 -37 186 -110c17 -33 25 -72 25 -117c0 -28 -6 -60 -19 -95c-29 -85 -98 -145 -208 -181c-59 -21 -142 -31 -249 -31h-5c-66 0 -122 9 -168 26l-55 -106l-14 3c3 41 8 84 16 130c-48 21 -85 66 -112 137
c-19 48 -54 72 -105 72c-43 0 -87 -17 -132 -51c-44 -33 -66 -65 -66 -96c0 -36 55 -64 164 -83c82 -14 130 -40 145 -78c8 -20 12 -40 12 -60c0 -25 -11 -62 -32 -110c-22 -34 -67 -69 -136 -106c-105 -55 -204 -82 -299 -82c-98 0 -177 29 -238 86c-65 63 -97 152 -97 268
c0 84 22 176 65 276l42 -19c-27 -59 -41 -124 -41 -195c0 -88 29 -159 87 -212c55 -50 125 -75 209 -75c57 0 120 13 191 39c93 37 154 73 185 109c0 12 -44 26 -132 43c-62 10 -108 25 -138 44c-37 25 -56 63 -56 113c0 79 32 152 96 218c65 69 133 103 205 103
c50 0 84 -24 101 -71c27 -67 69 -116 127 -149zM1164 149c42 -14 104 -21 187 -21c95 0 181 19 260 57c55 26 82 50 82 72c-7 43 -26 79 -57 108c-33 29 -72 44 -115 44c-119 0 -238 -87 -357 -260zM1242 769c33 43 60 77 81 102c39 -28 79 -64 120 -107
c-23 -38 -51 -71 -83 -98c-27 25 -66 60 -118 103z" />
    <glyph glyph-name="uniFD23" unicode="&#xfec0;&#xfef0;" horiz-adv-x="1762" arabic-form="final" 
d="M509 -404c-98 0 -177 29 -238 86c-65 63 -97 152 -97 268c0 84 22 176 65 276l42 -19c-27 -59 -41 -124 -41 -195c0 -88 29 -159 87 -212c55 -50 125 -75 209 -75c57 0 120 13 191 39c93 37 154 73 185 109c0 12 -44 26 -132 43c-62 10 -108 25 -138 44
c-37 25 -56 63 -56 113c0 79 32 152 96 218c65 69 133 103 205 103c50 0 84 -24 101 -71c27 -67 69 -116 127 -149c75 114 142 197 202 249c79 69 153 103 224 103c69 0 124 -22 166 -67c40 -41 60 -92 60 -154c0 -50 -17 -109 -51 -177h133v-128h-26c-99 0 -198 12 -299 35
c-76 -23 -154 -35 -233 -35c-66 0 -122 9 -168 26l-55 -106l-14 3c3 41 8 84 16 130c-48 21 -85 66 -112 137c-19 48 -54 72 -105 72c-43 0 -87 -17 -132 -51c-44 -33 -66 -65 -66 -96c0 -36 55 -64 164 -83c82 -14 130 -40 145 -78c8 -20 12 -40 12 -60
c0 -25 -11 -62 -32 -110c-22 -34 -67 -69 -136 -106c-105 -55 -204 -82 -299 -82zM1168 151c47 -15 108 -23 181 -23c101 0 187 15 260 45c55 22 82 47 82 75c-7 43 -28 78 -65 107c-36 28 -77 42 -122 42c-105 0 -217 -82 -336 -246zM1232 769c33 43 60 77 81 102
c39 -28 79 -64 120 -107c-23 -38 -51 -71 -83 -98c-27 25 -66 60 -118 103z" />
    <glyph glyph-name="uniFD08" unicode="&#xfebf;&#xfef2;" horiz-adv-x="1765" arabic-form="isolated" 
d="M1115 174c70 107 139 191 206 251c81 73 161 109 240 109c87 0 149 -37 186 -110c17 -33 25 -72 25 -117c0 -28 -6 -60 -19 -95c-29 -85 -98 -145 -208 -181c-59 -21 -142 -31 -249 -31h-5c-66 0 -122 9 -168 26l-55 -106l-14 3c3 41 8 84 16 130c-48 21 -85 66 -112 137
c-19 48 -54 72 -105 72c-43 0 -87 -17 -132 -51c-44 -33 -66 -65 -66 -96c0 -36 55 -64 164 -83c82 -14 130 -40 145 -78c8 -20 12 -40 12 -60c0 -25 -11 -62 -32 -110c-22 -34 -67 -69 -136 -106c-105 -55 -204 -82 -299 -82c-98 0 -177 29 -238 86c-65 63 -97 152 -97 268
c0 84 22 176 65 276l42 -19c-27 -59 -41 -124 -41 -195c0 -88 29 -159 87 -212c55 -50 125 -75 209 -75c57 0 120 13 191 39c93 37 154 73 185 109c0 12 -44 26 -132 43c-62 10 -108 25 -138 44c-37 25 -56 63 -56 113c0 79 32 152 96 218c65 69 133 103 205 103
c50 0 84 -24 101 -71c27 -67 69 -116 127 -149zM1164 149c42 -14 104 -21 187 -21c95 0 181 19 260 57c55 26 82 50 82 72c-7 43 -26 79 -57 108c-33 29 -72 44 -115 44c-119 0 -238 -87 -357 -260zM761 -573c-28 -40 -53 -71 -76 -92c-41 39 -80 74 -117 104
c24 34 50 66 79 95c33 -27 71 -62 114 -107zM568 -586c-28 -40 -53 -71 -76 -92c-41 39 -80 74 -117 104c24 34 50 66 79 95c33 -27 71 -62 114 -107zM1252 769c33 43 60 77 81 102c39 -28 79 -64 120 -107c-23 -38 -51 -71 -83 -98c-27 25 -66 60 -118 103z" />
    <glyph glyph-name="uniFD24" unicode="&#xfec0;&#xfef2;" horiz-adv-x="1762" arabic-form="final" 
d="M509 -404c-98 0 -177 29 -238 86c-65 63 -97 152 -97 268c0 84 22 176 65 276l42 -19c-27 -59 -41 -124 -41 -195c0 -88 29 -159 87 -212c55 -50 125 -75 209 -75c57 0 120 13 191 39c93 37 154 73 185 109c0 12 -44 26 -132 43c-62 10 -108 25 -138 44
c-37 25 -56 63 -56 113c0 79 32 152 96 218c65 69 133 103 205 103c50 0 84 -24 101 -71c27 -67 69 -116 127 -149c75 114 142 197 202 249c79 69 153 103 224 103c69 0 124 -22 166 -67c40 -41 60 -92 60 -154c0 -50 -17 -109 -51 -177h133v-128h-26c-99 0 -198 12 -299 35
c-76 -23 -154 -35 -233 -35c-66 0 -122 9 -168 26l-55 -106l-14 3c3 41 8 84 16 130c-48 21 -85 66 -112 137c-19 48 -54 72 -105 72c-43 0 -87 -17 -132 -51c-44 -33 -66 -65 -66 -96c0 -36 55 -64 164 -83c82 -14 130 -40 145 -78c8 -20 12 -40 12 -60
c0 -25 -11 -62 -32 -110c-22 -34 -67 -69 -136 -106c-105 -55 -204 -82 -299 -82zM1168 151c47 -15 108 -23 181 -23c101 0 187 15 260 45c55 22 82 47 82 75c-7 43 -28 78 -65 107c-36 28 -77 42 -122 42c-105 0 -217 -82 -336 -246zM761 -573c-28 -40 -53 -71 -76 -92
c-41 39 -80 74 -117 104c24 34 50 66 79 95c33 -27 71 -62 114 -107zM568 -586c-28 -40 -53 -71 -76 -92c-41 39 -80 74 -117 104c24 34 50 66 79 95c33 -27 71 -62 114 -107zM1242 769c33 43 60 77 81 102c39 -28 79 -64 120 -107c-23 -38 -51 -71 -83 -98
c-27 25 -66 60 -118 103z" />
    <glyph glyph-name="uniFC31" unicode="&#xfed3;&#xfef0;" horiz-adv-x="1013" arabic-form="isolated" 
d="M609 949c33 43 60 77 81 102c39 -28 79 -64 120 -107c-23 -38 -51 -71 -83 -98c-27 25 -66 60 -118 103zM898 307c0 -5 -1 5 -3 31c-31 -7 -65 -11 -104 -11c-120 0 -194 33 -223 100c-9 23 -14 45 -14 68c0 76 23 138 70 185c39 41 80 62 121 62c73 0 133 -62 180 -185
c25 -69 38 -147 38 -235c0 -50 -15 -97 -46 -142c45 -15 74 -32 88 -51c12 -16 18 -43 18 -81c0 -40 -9 -78 -27 -114c-20 -39 -61 -78 -123 -119c-105 -71 -219 -107 -342 -107c-97 0 -179 32 -248 95c-69 73 -103 162 -103 267c0 109 22 213 66 314l40 -15
c-25 -72 -38 -142 -38 -210c0 -77 19 -142 58 -197c62 -76 141 -114 237 -114c103 0 200 25 289 74c59 33 103 67 132 102c0 19 -38 36 -113 51s-156 23 -242 23l-4 7l44 103c166 19 249 52 249 99zM882 448c-37 114 -89 171 -158 171c-28 0 -54 -10 -79 -29
c-23 -19 -35 -39 -35 -59c0 -24 20 -45 60 -62c37 -17 81 -25 130 -25c39 0 67 1 82 4z" />
    <glyph glyph-name="uniFC32" unicode="&#xfed3;&#xfef2;" horiz-adv-x="1013" arabic-form="isolated" 
d="M609 949c33 43 60 77 81 102c39 -28 79 -64 120 -107c-23 -38 -51 -71 -83 -98c-27 25 -66 60 -118 103zM898 307c0 -5 -1 5 -3 31c-31 -7 -65 -11 -104 -11c-120 0 -194 33 -223 100c-9 23 -14 45 -14 68c0 76 23 138 70 185c39 41 80 62 121 62c73 0 133 -62 180 -185
c25 -69 38 -147 38 -235c0 -50 -15 -97 -46 -142c45 -15 74 -32 88 -51c12 -16 18 -43 18 -81c0 -40 -9 -78 -27 -114c-20 -39 -61 -78 -123 -119c-105 -71 -219 -107 -342 -107c-97 0 -179 32 -248 95c-69 73 -103 162 -103 267c0 109 22 213 66 314l40 -15
c-25 -72 -38 -142 -38 -210c0 -77 19 -142 58 -197c62 -76 141 -114 237 -114c103 0 200 25 289 74c59 33 103 67 132 102c0 19 -38 36 -113 51s-156 23 -242 23l-4 7l44 103c166 19 249 52 249 99zM882 448c-37 114 -89 171 -158 171c-28 0 -54 -10 -79 -29
c-23 -19 -35 -39 -35 -59c0 -24 20 -45 60 -62c37 -17 81 -25 130 -25c39 0 67 1 82 4zM773 -493c-28 -40 -53 -71 -76 -92c-41 39 -80 74 -117 104c24 34 50 66 79 95c33 -27 71 -62 114 -107zM580 -506c-28 -40 -53 -71 -76 -92c-41 39 -80 74 -117 104c24 34 50 66 79 95
c33 -27 71 -62 114 -107z" />
    <glyph glyph-name="_660" unicode="&#xfedb;&#xfef0;" horiz-adv-x="1116" 
d="M928 246c0 25 -23 69 -69 133c-63 87 -158 183 -285 288c-24 20 -36 51 -36 92c0 18 7 39 21 64c11 19 36 40 77 61c89 45 268 112 538 200l7 -8c-17 -33 -42 -74 -75 -123c-44 -11 -98 -27 -161 -49c-108 -38 -218 -82 -329 -131v-3l164 -61l-23 -51
c154 -154 231 -275 231 -364c0 -82 -26 -145 -78 -188l-1 -4c72 -21 108 -65 108 -134c0 -39 -13 -83 -39 -133c-139 -136 -294 -204 -466 -204c-95 0 -175 30 -238 91c-71 75 -106 164 -106 268c0 96 25 202 76 317l38 -17c-31 -81 -46 -152 -46 -211
c0 -75 20 -140 59 -197c62 -75 138 -113 228 -113c99 0 196 25 289 74c79 43 129 77 148 102c0 16 -38 32 -115 49c-72 15 -148 25 -227 30l-8 10l46 104c75 11 141 27 197 49c50 21 75 41 75 59z" />
    <glyph glyph-name="_661" unicode="&#xfedc;&#xfef0;" horiz-adv-x="1343" 
d="M982 263c0 2 -5 15 -14 40c-33 71 -115 173 -247 304c-30 31 -51 53 -63 68c-5 25 -7 44 -7 55c0 25 9 54 27 86c7 14 19 26 36 37c84 54 289 132 615 234l4 -6c-19 -40 -45 -81 -77 -123c-49 -12 -126 -37 -229 -74c-146 -55 -247 -97 -303 -127v-3
c38 -23 89 -49 154 -78l-30 -50c90 -81 213 -213 369 -396c58 -68 122 -102 193 -102h17v-128h-20c-57 0 -106 15 -149 46c-34 24 -71 63 -110 116c-48 63 -82 105 -103 128l-4 -1c-7 -95 -44 -160 -112 -196l1 -5c33 -13 56 -27 69 -44c12 -17 18 -43 18 -78
c0 -37 -13 -81 -39 -131c-139 -136 -294 -204 -466 -204c-95 0 -175 30 -238 91c-71 75 -106 164 -106 268c0 96 25 202 76 317l38 -17c-31 -81 -46 -152 -46 -211c0 -75 20 -140 59 -197c62 -75 138 -113 228 -113c99 0 196 25 289 74c81 43 131 77 148 100
c0 19 -33 36 -100 52c-65 15 -136 24 -212 27l-7 10l45 106c84 13 153 31 206 52c59 24 89 48 90 73z" />
    <glyph glyph-name="_662" unicode="&#xfedb;&#xfef2;" horiz-adv-x="1116" 
d="M928 246c0 25 -23 69 -69 133c-63 87 -158 183 -285 288c-24 20 -36 51 -36 92c0 18 7 39 21 64c11 19 36 40 77 61c89 45 268 112 538 200l7 -8c-17 -33 -42 -74 -75 -123c-44 -11 -98 -27 -161 -49c-108 -38 -218 -82 -329 -131v-3l164 -61l-23 -51
c154 -154 231 -275 231 -364c0 -82 -26 -145 -78 -188l-1 -4c72 -21 108 -65 108 -134c0 -39 -13 -83 -39 -133c-139 -136 -294 -204 -466 -204c-95 0 -175 30 -238 91c-71 75 -106 164 -106 268c0 96 25 202 76 317l38 -17c-31 -81 -46 -152 -46 -211
c0 -75 20 -140 59 -197c62 -75 138 -113 228 -113c99 0 196 25 289 74c79 43 129 77 148 102c0 16 -38 32 -115 49c-72 15 -148 25 -227 30l-8 10l46 104c75 11 141 27 197 49c50 21 75 41 75 59zM758 -553c-28 -40 -53 -71 -76 -92c-41 39 -80 74 -117 104
c24 34 50 66 79 95c33 -27 71 -62 114 -107zM565 -566c-28 -40 -53 -71 -76 -92c-41 39 -80 74 -117 104c24 34 50 66 79 95c33 -27 71 -62 114 -107z" />
    <glyph glyph-name="_663" unicode="&#xfedc;&#xfef2;" horiz-adv-x="1343" 
d="M982 263c0 2 -5 15 -14 40c-33 71 -115 173 -247 304c-30 31 -51 53 -63 68c-5 25 -7 44 -7 55c0 25 9 54 27 86c7 14 19 26 36 37c84 54 289 132 615 234l4 -6c-19 -40 -45 -81 -77 -123c-49 -12 -126 -37 -229 -74c-146 -55 -247 -97 -303 -127v-3
c38 -23 89 -49 154 -78l-30 -50c90 -81 213 -213 369 -396c58 -68 122 -102 193 -102h17v-128h-20c-57 0 -106 15 -149 46c-34 24 -71 63 -110 116c-48 63 -82 105 -103 128l-4 -1c-7 -95 -44 -160 -112 -196l1 -5c33 -13 56 -27 69 -44c12 -17 18 -43 18 -78
c0 -37 -13 -81 -39 -131c-139 -136 -294 -204 -466 -204c-95 0 -175 30 -238 91c-71 75 -106 164 -106 268c0 96 25 202 76 317l38 -17c-31 -81 -46 -152 -46 -211c0 -75 20 -140 59 -197c62 -75 138 -113 228 -113c99 0 196 25 289 74c81 43 131 77 148 100
c0 19 -33 36 -100 52c-65 15 -136 24 -212 27l-7 10l45 106c84 13 153 31 206 52c59 24 89 48 90 73zM758 -553c-28 -40 -53 -71 -76 -92c-41 39 -80 74 -117 104c24 34 50 66 79 95c33 -27 71 -62 114 -107zM565 -566c-28 -40 -53 -71 -76 -92c-41 39 -80 74 -117 104
c24 34 50 66 79 95c33 -27 71 -62 114 -107z" />
    <glyph glyph-name="uniFEFB" unicode="&#xfedf;&#xfe8e;" horiz-adv-x="813" arabic-form="isolated" 
d="M717 1029l7 -5l-2 -21c0 -47 27 -115 81 -203c-26 -23 -46 -40 -61 -49c5 -139 8 -258 8 -359c0 -63 -11 -128 -33 -195c-27 -77 -64 -134 -111 -169c-77 -57 -160 -85 -251 -85c-70 0 -152 15 -247 46v11c201 27 350 71 448 130c-3 27 -40 95 -113 204l-218 320
c-66 97 -99 159 -99 186c0 19 15 51 46 96l5 1c24 -32 78 -90 163 -175l-32 -57l238 -378c27 -49 42 -107 43 -174l6 -1c53 38 80 99 80 182c0 87 -9 221 -26 404l-7 78c-3 39 -5 65 -5 78c0 29 7 53 21 71c14 19 34 41 59 64z" />
    <glyph glyph-name="uniFEFC" unicode="&#xfee0;&#xfe8e;" horiz-adv-x="849" arabic-form="final" 
d="M746 1032l8 -3c7 -207 10 -402 10 -586c0 -106 9 -180 26 -223c25 -61 66 -92 121 -92h8v-128h-19c-53 0 -99 22 -138 66c-46 51 -69 121 -69 210l-7 1c-33 -121 -106 -207 -218 -258c-68 -27 -136 -40 -204 -40l-109 10l-4 7c151 57 278 120 381 187
c-16 93 -112 256 -288 489c-69 95 -104 149 -104 164c0 17 9 48 27 92h5c39 -39 102 -86 189 -142l-34 -59c61 -83 114 -163 160 -242c53 -91 79 -162 79 -214c0 -16 -1 -37 -4 -63l3 -1c29 27 53 55 72 86c27 43 40 145 40 306c0 37 -4 153 -13 348c29 37 57 65 82 85z" />
    <glyph glyph-name="uniFEF5" unicode="&#xfedf;&#xfe82;" horiz-adv-x="905" arabic-form="isolated" 
d="M482 1149l5 -5c-15 -41 -24 -66 -29 -75c-38 -32 -85 -48 -140 -48c-21 0 -54 3 -97 9c-46 5 -75 8 -88 8c-10 0 -29 -26 -56 -77h-7l-34 61c0 29 6 54 19 73c16 25 40 38 72 38c10 0 58 -8 145 -23c62 -11 113 -9 154 7c20 8 39 19 56 32zM773 1029l7 -5l-2 -21
c0 -47 27 -115 81 -203c-26 -23 -46 -40 -61 -49c5 -139 8 -258 8 -359c0 -63 -11 -128 -33 -195c-27 -77 -64 -134 -111 -169c-77 -57 -160 -85 -251 -85c-70 0 -152 15 -247 46v11c201 27 350 71 448 130c-3 27 -40 95 -113 204l-218 320c-66 97 -99 159 -99 186
c0 19 15 51 46 96l5 1c24 -32 78 -90 163 -175l-32 -57l238 -378c27 -49 42 -107 43 -174l6 -1c53 38 80 99 80 182c0 87 -9 221 -26 404l-7 78c-3 39 -5 65 -5 78c0 29 7 53 21 71c14 19 34 41 59 64z" />
    <glyph glyph-name="uniFEF6" unicode="&#xfee0;&#xfe82;" horiz-adv-x="923" arabic-form="final" 
d="M482 1159l5 -5c-15 -41 -24 -66 -29 -75c-38 -32 -85 -48 -140 -48c-21 0 -54 3 -97 9c-46 5 -75 8 -88 8c-10 0 -29 -26 -56 -77h-7l-34 61c0 29 6 54 19 73c16 25 40 38 72 38c10 0 58 -8 145 -23c62 -11 113 -9 154 7c20 8 39 19 56 32zM768 1032l8 -3
c7 -207 10 -402 10 -586c0 -106 9 -180 26 -223c25 -61 66 -92 121 -92h8v-128h-19c-53 0 -99 22 -138 66c-46 51 -69 121 -69 210l-7 1c-33 -121 -106 -207 -218 -258c-68 -27 -136 -40 -204 -40l-109 10l-4 7c151 57 278 120 381 187c-16 93 -112 256 -288 489
c-69 95 -104 149 -104 164c0 17 9 48 27 92h5c39 -39 102 -86 189 -142l-34 -59c61 -83 114 -163 160 -242c53 -91 79 -162 79 -214c0 -16 -1 -37 -4 -63l3 -1c29 27 53 55 72 86c27 43 40 145 40 306c0 37 -4 153 -13 348c29 37 57 65 82 85z" />
    <glyph glyph-name="uniFEF7" unicode="&#xfedf;&#xfe84;" horiz-adv-x="813" arabic-form="isolated" 
d="M353 1116v-3c-13 -27 -26 -50 -39 -68c-97 -15 -184 -40 -260 -75l-2 3l24 42c13 16 29 27 46 33v3c-52 15 -78 44 -78 87c0 27 16 57 47 88c43 38 84 57 121 57c19 0 35 -5 47 -15c11 -9 16 -20 16 -34c0 -18 -11 -40 -32 -65h-2c-12 23 -23 36 -32 39c-7 2 -17 3 -31 3
c-17 0 -33 -4 -48 -12c-15 -7 -22 -14 -22 -23c0 -23 16 -39 49 -50c28 -9 59 -14 94 -14c28 0 62 1 102 4zM685 1029l7 -5l-2 -21c0 -47 27 -115 81 -203c-26 -23 -46 -40 -61 -49c5 -139 8 -258 8 -359c0 -63 -11 -128 -33 -195c-27 -77 -64 -134 -111 -169
c-77 -57 -160 -85 -251 -85c-70 0 -152 15 -247 46v11c201 27 350 71 448 130c-3 27 -40 95 -113 204l-218 320c-66 97 -99 159 -99 186c0 19 15 51 46 96l5 1c24 -32 78 -90 163 -175l-32 -57l238 -378c27 -49 42 -107 43 -174l6 -1c53 38 80 99 80 182
c0 87 -9 221 -26 404l-7 78c-3 39 -5 65 -5 78c0 29 7 53 21 71c14 19 34 41 59 64z" />
    <glyph glyph-name="uniFEF8" unicode="&#xfee0;&#xfe84;" horiz-adv-x="855" arabic-form="final" 
d="M345 1119v-3c-13 -27 -26 -50 -39 -68c-97 -15 -184 -40 -260 -75l-2 3l24 42c13 16 29 27 46 33v3c-52 15 -78 44 -78 87c0 27 16 57 47 88c43 38 84 57 121 57c19 0 35 -5 47 -15c11 -9 16 -20 16 -34c0 -18 -11 -40 -32 -65h-2c-12 23 -23 36 -32 39c-7 2 -17 3 -31 3
c-17 0 -33 -4 -48 -12c-15 -7 -22 -14 -22 -23c0 -23 16 -39 49 -50c28 -9 59 -14 94 -14c28 0 62 1 102 4zM700 1032l8 -3c7 -207 10 -402 10 -586c0 -106 9 -180 26 -223c25 -61 66 -92 121 -92h8v-128h-19c-53 0 -99 22 -138 66c-46 51 -69 121 -69 210l-7 1
c-33 -121 -106 -207 -218 -258c-68 -27 -136 -40 -204 -40l-109 10l-4 7c151 57 278 120 381 187c-16 93 -112 256 -288 489c-69 95 -104 149 -104 164c0 17 9 48 27 92h5c39 -39 102 -86 189 -142l-34 -59c61 -83 114 -163 160 -242c53 -91 79 -162 79 -214
c0 -16 -1 -37 -4 -63l3 -1c29 27 53 55 72 86c27 43 40 145 40 306c0 37 -4 153 -13 348c29 37 57 65 82 85z" />
    <glyph glyph-name="uniFEF9" unicode="&#xfedf;&#xfe88;" horiz-adv-x="813" arabic-form="isolated" 
d="M446 -291v-3c-13 -27 -26 -50 -39 -68c-97 -15 -184 -40 -260 -75l-2 3l24 42c13 16 29 27 46 33v3c-52 15 -78 44 -78 87c0 27 16 57 47 88c43 38 84 57 121 57c19 0 35 -5 47 -15c11 -9 16 -20 16 -34c0 -18 -11 -40 -32 -65h-2c-12 23 -23 36 -32 39c-7 2 -17 3 -31 3
c-17 0 -33 -4 -48 -12c-15 -7 -22 -14 -22 -23c0 -23 16 -39 49 -50c28 -9 59 -14 94 -14c28 0 62 1 102 4zM717 1029l7 -5l-2 -21c0 -47 27 -115 81 -203c-26 -23 -46 -40 -61 -49c5 -139 8 -258 8 -359c0 -63 -11 -128 -33 -195c-27 -77 -64 -134 -111 -169
c-77 -57 -160 -85 -251 -85c-70 0 -152 15 -247 46v11c201 27 350 71 448 130c-3 27 -40 95 -113 204l-218 320c-66 97 -99 159 -99 186c0 19 15 51 46 96l5 1c24 -32 78 -90 163 -175l-32 -57l238 -378c27 -49 42 -107 43 -174l6 -1c53 38 80 99 80 182
c0 87 -9 221 -26 404l-7 78c-3 39 -5 65 -5 78c0 29 7 53 21 71c14 19 34 41 59 64z" />
    <glyph glyph-name="uniFEFA" unicode="&#xfee0;&#xfe88;" horiz-adv-x="849" arabic-form="final" 
d="M511 -246v-3c-13 -27 -26 -50 -39 -68c-97 -15 -184 -40 -260 -75l-2 3l24 42c13 16 29 27 46 33v3c-52 15 -78 44 -78 87c0 27 16 57 47 88c43 38 84 57 121 57c19 0 35 -5 47 -15c11 -9 16 -20 16 -34c0 -18 -11 -40 -32 -65h-2c-12 23 -23 36 -32 39c-7 2 -17 3 -31 3
c-17 0 -33 -4 -48 -12c-15 -7 -22 -14 -22 -23c0 -23 16 -39 49 -50c28 -9 59 -14 94 -14c28 0 62 1 102 4zM746 1032l8 -3c7 -207 10 -402 10 -586c0 -106 9 -180 26 -223c25 -61 66 -92 121 -92h8v-128h-19c-53 0 -99 22 -138 66c-46 51 -69 121 -69 210l-7 1
c-33 -121 -106 -207 -218 -258c-68 -27 -136 -40 -204 -40l-109 10l-4 7c151 57 278 120 381 187c-16 93 -112 256 -288 489c-69 95 -104 149 -104 164c0 17 9 48 27 92h5c39 -39 102 -86 189 -142l-34 -59c61 -83 114 -163 160 -242c53 -91 79 -162 79 -214
c0 -16 -1 -37 -4 -63l3 -1c29 27 53 55 72 86c27 43 40 145 40 306c0 37 -4 153 -13 348c29 37 57 65 82 85z" />
    <glyph glyph-name="_672" unicode="&#xfedf;&#xfb51;" horiz-adv-x="892" 
d="M766 1029l7 -5l-2 -21c0 -47 27 -115 81 -203c-26 -23 -46 -40 -61 -49c5 -139 8 -258 8 -359c0 -63 -11 -128 -33 -195c-27 -77 -64 -134 -111 -169c-77 -57 -160 -85 -251 -85c-70 0 -152 15 -247 46v11c201 27 350 71 448 130c-3 27 -40 95 -113 204l-218 320
c-66 97 -99 159 -99 186c0 19 15 51 46 96l5 1c24 -32 78 -90 163 -175l-32 -57l238 -378c27 -49 42 -107 43 -174l6 -1c53 38 80 99 80 182c0 87 -9 221 -26 404l-7 78c-3 39 -5 65 -5 78c0 29 7 53 21 71c14 19 34 41 59 64zM54 995l-6 3l5 73c21 42 41 63 59 63
c10 0 23 -4 39 -12c61 87 117 130 168 130c28 0 51 -10 69 -30c19 -21 28 -51 28 -90c0 -35 -12 -64 -37 -89c-27 -25 -61 -38 -101 -38s-79 8 -117 23c-36 15 -53 22 -50 22c-10 0 -29 -18 -57 -55zM182 1105c33 -16 68 -24 105 -24c21 0 41 4 60 12c20 9 30 19 31 32
c-11 39 -35 58 -70 59c-41 0 -83 -26 -126 -79z" />
    <glyph glyph-name="_673" unicode="&#xfee0;&#xfb51;" horiz-adv-x="918" 
d="M769 1032l8 -3c7 -207 10 -402 10 -586c0 -106 9 -180 26 -223c25 -61 66 -92 121 -92h8v-128h-19c-53 0 -99 22 -138 66c-46 51 -69 121 -69 210l-7 1c-33 -121 -106 -207 -218 -258c-68 -27 -136 -40 -204 -40l-109 10l-4 7c151 57 278 120 381 187
c-16 93 -112 256 -288 489c-69 95 -104 149 -104 164c0 17 9 48 27 92h5c39 -39 102 -86 189 -142l-34 -59c61 -83 114 -163 160 -242c53 -91 79 -162 79 -214c0 -16 -1 -37 -4 -63l3 -1c29 27 53 55 72 86c27 43 40 145 40 306c0 37 -4 153 -13 348c29 37 57 65 82 85z
M54 995l-6 3l5 73c21 42 41 63 59 63c10 0 23 -4 39 -12c61 87 117 130 168 130c28 0 51 -10 69 -30c19 -21 28 -51 28 -90c0 -35 -12 -64 -37 -89c-27 -25 -61 -38 -101 -38s-79 8 -117 23c-36 15 -53 22 -50 22c-10 0 -29 -18 -57 -55zM182 1105c33 -16 68 -24 105 -24
c21 0 41 4 60 12c20 9 30 19 31 32c-11 39 -35 58 -70 59c-41 0 -83 -26 -126 -79z" />
    <glyph glyph-name="_750" unicode="&#xfedf;&#xfee2;" horiz-adv-x="804" 
d="M410 246c-48 -17 -88 -40 -120 -68c-35 -29 -52 -55 -52 -80c0 -63 25 -170 76 -323s76 -254 76 -303c0 -33 -8 -75 -23 -124h-17c0 37 -32 144 -95 322s-95 293 -95 345c-1 49 11 100 35 154c47 96 117 160 211 192c-11 191 -17 334 -17 430c0 13 -3 39 -9 78
c-6 40 -9 68 -9 84c0 35 9 62 27 82c11 14 30 31 56 52l10 -6c-1 -11 -2 -25 -2 -42c0 -33 29 -94 86 -183l-74 -48c0 -170 5 -313 14 -429c30 9 65 13 105 13c64 0 116 -17 155 -52c41 -36 61 -84 61 -145c0 -57 -18 -107 -54 -148c-35 -39 -76 -59 -121 -59
c-69 0 -125 31 -166 93c-30 45 -49 100 -58 165zM498 268c7 -47 28 -85 61 -116c33 -30 70 -45 110 -45c29 0 54 9 73 26c2 45 -18 81 -59 108c-35 23 -74 34 -117 34c-31 0 -53 -2 -68 -7z" />
    <glyph glyph-name="uniFCCC" unicode="&#xfedf;&#xfee4;" horiz-adv-x="689" arabic-form="initial" 
d="M177 87l-5 -1c-69 -57 -145 -86 -228 -86h-14c-47 0 -70 22 -70 67c0 16 5 29 15 40c13 14 32 21 55 21h9c84 0 160 24 227 71c-15 155 -22 338 -22 550c0 17 -1 41 -4 73s-4 58 -4 78c0 36 10 65 31 88c11 14 30 31 56 52l10 -6c-2 -12 -3 -26 -3 -42
c1 -57 26 -125 77 -204l-73 -51c0 -245 6 -408 17 -487l4 -2c41 23 84 35 128 35c45 0 83 -18 114 -55c32 -36 48 -82 48 -138c0 -58 -17 -105 -52 -142c-31 -33 -67 -50 -106 -50c-96 0 -166 63 -210 189zM270 143c12 -38 34 -70 66 -96c31 -25 64 -38 97 -38
c19 0 35 6 49 18c0 33 -12 64 -37 93c-24 30 -55 45 -94 45c-31 0 -58 -7 -81 -22z" />
    <glyph glyph-name="uniFC43" unicode="&#xfedf;&#xfef0;" horiz-adv-x="1003" arabic-form="isolated" 
d="M894 1029l7 -5c-2 -60 25 -136 81 -229c-21 -19 -43 -37 -66 -54l12 -344c0 -114 -22 -209 -65 -284c57 -13 95 -30 114 -53c17 -19 25 -50 25 -95c0 -37 -14 -82 -41 -135c-137 -135 -287 -202 -450 -202c-94 0 -174 31 -239 94c-69 73 -104 163 -104 268
c0 95 25 199 75 314l39 -15c-30 -84 -45 -154 -45 -210c0 -77 19 -142 58 -197c62 -76 138 -114 228 -114c109 0 205 25 288 75c66 40 108 73 127 99c0 18 -34 35 -102 52c-59 15 -130 25 -213 31l-7 9l48 104c93 14 153 38 180 73c1 32 2 68 2 109c-2 131 -11 285 -26 462
l-11 125c0 23 10 45 30 67c17 20 35 38 55 55z" />
    <glyph glyph-name="uniFC86" unicode="&#xfee0;&#xfef0;" horiz-adv-x="1240" arabic-form="final" 
d="M1111 1043l10 -6c9 -161 13 -376 13 -646c0 -94 20 -167 59 -218c31 -30 70 -45 117 -45h14v-128h-18c-81 0 -144 28 -187 84c-38 50 -57 114 -58 192h-5c-19 -71 -69 -131 -150 -179v-3c64 -17 96 -60 96 -129c0 -37 -14 -82 -41 -135c-137 -135 -287 -202 -450 -202
c-94 0 -174 31 -239 94c-69 73 -104 163 -104 268c0 95 25 199 75 314l39 -15c-30 -84 -45 -154 -45 -210c0 -77 19 -142 58 -197c62 -76 138 -114 228 -114c108 0 204 25 288 75c63 37 106 70 127 99c0 18 -34 35 -101 51c-59 15 -130 25 -212 31l-5 9l53 110
c109 15 198 43 269 86c45 33 73 66 84 98c11 30 16 92 16 186c0 67 -6 213 -17 436c35 43 64 74 86 94z" />
    <glyph glyph-name="uniFC44" unicode="&#xfedf;&#xfef2;" horiz-adv-x="1003" arabic-form="isolated" 
d="M894 1029l7 -5c-2 -60 25 -136 81 -229c-21 -19 -43 -37 -66 -54l12 -344c0 -114 -22 -209 -65 -284c57 -13 95 -30 114 -53c17 -19 25 -50 25 -95c0 -37 -14 -82 -41 -135c-137 -135 -287 -202 -450 -202c-94 0 -174 31 -239 94c-69 73 -104 163 -104 268
c0 95 25 199 75 314l39 -15c-30 -84 -45 -154 -45 -210c0 -77 19 -142 58 -197c62 -76 138 -114 228 -114c109 0 205 25 288 75c66 40 108 73 127 99c0 18 -34 35 -102 52c-59 15 -130 25 -213 31l-7 9l48 104c93 14 153 38 180 73c1 32 2 68 2 109c-2 131 -11 285 -26 462
l-11 125c0 23 10 45 30 67c17 20 35 38 55 55zM748 -553c-28 -40 -53 -71 -76 -92c-41 39 -80 74 -117 104c24 34 50 66 79 95c33 -27 71 -62 114 -107zM555 -566c-28 -40 -53 -71 -76 -92c-41 39 -80 74 -117 104c24 34 50 66 79 95c33 -27 71 -62 114 -107z" />
    <glyph glyph-name="uniFC87" unicode="&#xfee0;&#xfef2;" horiz-adv-x="1240" arabic-form="final" 
d="M1111 1043l10 -6c9 -161 13 -376 13 -646c0 -94 20 -167 59 -218c31 -30 70 -45 117 -45h14v-128h-18c-81 0 -144 28 -187 84c-38 50 -57 114 -58 192h-5c-19 -71 -69 -131 -150 -179v-3c64 -17 96 -60 96 -129c0 -37 -14 -82 -41 -135c-137 -135 -287 -202 -450 -202
c-94 0 -174 31 -239 94c-69 73 -104 163 -104 268c0 95 25 199 75 314l39 -15c-30 -84 -45 -154 -45 -210c0 -77 19 -142 58 -197c62 -76 138 -114 228 -114c108 0 204 25 288 75c63 37 106 70 127 99c0 18 -34 35 -101 51c-59 15 -130 25 -212 31l-5 9l53 110
c109 15 198 43 269 86c45 33 73 66 84 98c11 30 16 92 16 186c0 67 -6 213 -17 436c35 43 64 74 86 94zM758 -553c-28 -40 -53 -71 -76 -92c-41 39 -80 74 -117 104c24 34 50 66 79 95c33 -27 71 -62 114 -107zM565 -566c-28 -40 -53 -71 -76 -92c-41 39 -80 74 -117 104
c24 34 50 66 79 95c33 -27 71 -62 114 -107z" />
    <glyph glyph-name="_756" unicode="&#xfee4;&#xfe8e;" horiz-adv-x="1059" 
d="M432 128c32 0 62 8 89 23c31 17 70 70 115 159c31 62 61 113 91 153h10c62 -82 125 -158 190 -227c68 -72 137 -108 208 -108h12v-128h-12c-76 0 -144 35 -203 104l-3 -1v-16c0 -64 -14 -116 -41 -155c-24 -35 -52 -52 -84 -52c-48 0 -93 21 -134 63
c-41 43 -66 93 -77 152h-5c-42 -63 -99 -95 -170 -95c-61 0 -111 19 -150 58c-28 28 -47 64 -56 108c-7 31 -10 88 -10 171c0 151 -9 351 -26 601c43 46 75 77 94 93l7 -4c11 -141 16 -383 16 -724v-57c0 -53 25 -89 75 -107c22 -7 43 -11 64 -11zM711 327h-5
c-33 -61 -49 -106 -49 -136c0 -41 15 -81 44 -118c31 -40 69 -60 112 -60c13 0 25 7 36 20c12 15 18 33 18 53c0 27 -11 56 -34 87c-10 15 -30 40 -59 76z" />
    <glyph glyph-name="_757" unicode="&#xfee4;&#xfe82;" horiz-adv-x="1131" 
d="M434 128c32 0 62 8 89 23c31 17 70 70 115 159c31 62 61 113 91 153h10c62 -82 125 -158 190 -227c68 -72 137 -108 208 -108h12v-128h-12c-76 0 -144 35 -203 104l-3 -1v-16c0 -64 -14 -116 -41 -155c-24 -35 -52 -52 -84 -52c-48 0 -93 21 -134 63
c-41 43 -66 93 -77 152h-5c-42 -63 -99 -95 -170 -95c-61 0 -111 19 -150 58c-28 28 -47 64 -56 108c-7 31 -10 88 -10 171c0 151 -9 351 -26 601c43 46 75 77 94 93l7 -4c11 -141 16 -383 16 -724v-57c0 -53 25 -89 75 -107c22 -7 43 -11 64 -11zM713 327h-5
c-33 -61 -49 -106 -49 -136c0 -41 15 -81 44 -118c31 -40 69 -60 112 -60c13 0 25 7 36 20c12 15 18 33 18 53c0 27 -11 56 -34 87c-10 15 -30 40 -59 76zM482 1219l5 -5c-15 -41 -24 -66 -29 -75c-38 -32 -85 -48 -140 -48c-21 0 -54 3 -97 9c-46 5 -75 8 -88 8
c-10 0 -29 -26 -56 -77h-7l-34 61c0 29 6 54 19 73c16 25 40 38 72 38c23 0 58 -5 106 -15s85 -15 111 -15c30 0 57 5 82 14c20 8 39 19 56 32z" />
    <glyph glyph-name="_758" unicode="&#xfee4;&#xfe84;" horiz-adv-x="1103" 
d="M423 128c32 0 62 8 89 23c31 17 70 70 115 159c31 62 61 113 91 153h10c62 -82 125 -158 190 -227c68 -72 137 -108 208 -108h12v-128h-12c-76 0 -144 35 -203 104l-3 -1v-16c0 -64 -14 -116 -41 -155c-24 -35 -52 -52 -84 -52c-48 0 -93 21 -134 63
c-41 43 -66 93 -77 152h-5c-42 -63 -99 -95 -170 -95c-61 0 -111 19 -150 58c-28 28 -47 64 -56 108c-7 31 -10 88 -10 171c0 151 -9 351 -26 601c43 46 75 77 94 93l7 -4c11 -141 16 -383 16 -724v-57c0 -53 25 -89 75 -107c22 -7 43 -11 64 -11zM702 327h-5
c-33 -61 -49 -106 -49 -136c0 -41 15 -81 44 -118c31 -40 69 -60 112 -60c13 0 25 7 36 20c12 15 18 33 18 53c0 27 -11 56 -34 87c-10 15 -30 40 -59 76zM379 1169v-3c-13 -27 -26 -50 -39 -68c-97 -15 -184 -40 -260 -75l-2 3l24 42c13 16 29 27 46 33v3
c-52 15 -78 44 -78 87c0 27 16 57 47 88c43 38 84 57 121 57c19 0 35 -5 47 -15c11 -9 16 -20 16 -34c0 -18 -11 -40 -32 -65h-2c-12 23 -23 36 -32 39c-7 2 -17 3 -31 3c-17 0 -33 -4 -48 -12c-15 -7 -22 -14 -22 -23c0 -23 16 -39 49 -50c28 -9 59 -14 94 -14
c28 0 62 1 102 4z" />
    <glyph glyph-name="_759" unicode="&#xfee4;&#xfe88;" horiz-adv-x="1059" 
d="M413 -221v-3c-13 -27 -26 -50 -39 -68c-97 -15 -184 -40 -260 -75l-2 3l24 42c13 16 29 27 46 33v3c-52 15 -78 44 -78 87c0 27 16 57 47 88c43 38 84 57 121 57c19 0 35 -5 47 -15c11 -9 16 -20 16 -34c0 -18 -11 -40 -32 -65h-2c-12 23 -23 36 -32 39c-7 2 -17 3 -31 3
c-17 0 -33 -4 -48 -12c-15 -7 -22 -14 -22 -23c0 -23 16 -39 49 -50c28 -9 59 -14 94 -14c28 0 62 1 102 4zM396 128c32 0 62 8 89 23c31 17 70 70 115 159c31 62 61 113 91 153h10c62 -82 125 -158 190 -227c68 -72 137 -108 208 -108h12v-128h-12c-76 0 -144 35 -203 104
l-3 -1v-16c0 -64 -14 -116 -41 -155c-24 -35 -52 -52 -84 -52c-48 0 -93 21 -134 63c-41 43 -66 93 -77 152h-5c-42 -63 -99 -95 -170 -95c-61 0 -111 19 -150 58c-28 28 -47 64 -56 108c-7 31 -10 88 -10 171c0 151 -9 351 -26 601c43 46 75 77 94 93l7 -4
c11 -141 16 -383 16 -724v-57c0 -53 25 -89 75 -107c22 -7 43 -11 64 -11zM675 327h-5c-33 -61 -49 -106 -49 -136c0 -41 15 -81 44 -118c31 -40 69 -60 112 -60c13 0 25 7 36 20c12 15 18 33 18 53c0 27 -11 56 -34 87c-10 15 -30 40 -59 76z" />
    <glyph glyph-name="_760" unicode="&#xfee8;&#xfeae;" horiz-adv-x="910" 
d="M557 710c33 43 60 77 81 102c39 -28 79 -64 120 -107c-23 -38 -51 -71 -83 -98c-27 25 -66 60 -118 103zM696 479h10l27 -156c17 -91 45 -148 85 -173c27 -15 54 -22 81 -22h13v-128h-18c-59 0 -104 16 -134 47s-55 87 -75 169l-25 102h-5c-37 -75 -87 -111 -148 -107
c9 -41 14 -87 14 -138c0 -9 -1 -27 -2 -52c-4 -38 -23 -83 -57 -134c-69 -101 -135 -152 -197 -152c-69 0 -156 26 -261 79l14 32c35 -17 67 -25 94 -25c103 0 194 47 274 142c54 63 81 110 81 141c-15 43 -57 99 -125 170l33 128h9c33 -30 58 -51 73 -63
c21 -15 49 -22 84 -22c25 0 49 9 71 27z" />
    <glyph glyph-name="_761" unicode="&#xfee7;&#xfee4;" horiz-adv-x="810" 
d="M375 800c33 43 60 77 81 102c39 -28 79 -64 120 -107c-23 -38 -51 -71 -83 -98c-27 25 -66 60 -118 103zM-70 128h9c94 0 175 29 244 88c17 110 61 198 133 265c71 63 142 95 212 95c38 0 69 -9 94 -27c26 -19 39 -43 39 -73c0 -31 -7 -65 -20 -101l-7 -1
c-26 50 -67 75 -124 75c-44 0 -89 -13 -134 -39c-65 -43 -104 -93 -118 -150l3 -3c35 16 69 24 101 24c55 0 98 -18 130 -53c32 -34 48 -74 48 -121c0 -43 -8 -80 -24 -112c-35 -65 -81 -98 -137 -98s-103 23 -142 70c-35 39 -53 82 -54 128h-5c-61 -63 -141 -95 -238 -95
h-10c-47 0 -70 22 -70 67c0 16 5 29 15 40c13 14 32 21 55 21zM255 148c9 -39 29 -71 59 -96c31 -27 64 -40 99 -40s56 9 64 28c0 35 -14 65 -42 90c-29 25 -63 37 -104 37c-28 0 -53 -6 -76 -19z" />
    <glyph glyph-name="_762" unicode="&#xfee7;&#xfef0;" horiz-adv-x="999" 
d="M824 653h7c65 -129 98 -226 98 -291c0 -53 -18 -110 -54 -169c57 -13 95 -30 114 -53c17 -19 25 -50 25 -95c0 -37 -14 -82 -41 -135c-137 -135 -287 -202 -450 -202c-94 0 -174 31 -239 94c-69 73 -104 163 -104 268c0 95 25 199 75 314l39 -15
c-30 -84 -45 -154 -45 -210c0 -77 19 -142 58 -197c62 -76 138 -114 228 -114c109 0 205 25 288 75c66 40 108 73 127 99c0 18 -34 35 -102 52c-59 15 -130 25 -213 31l-7 9l48 104c93 14 153 38 180 73c-17 67 -52 150 -106 251c29 46 53 83 74 111zM671 870
c33 43 60 77 81 102c39 -28 79 -64 120 -107c-23 -38 -51 -71 -83 -98c-27 25 -66 60 -118 103z" />
    <glyph glyph-name="_763" unicode="&#xfee7;&#xfef2;" horiz-adv-x="999" 
d="M824 653h7c65 -129 98 -226 98 -291c0 -53 -18 -110 -54 -169c57 -13 95 -30 114 -53c17 -19 25 -50 25 -95c0 -37 -14 -82 -41 -135c-137 -135 -287 -202 -450 -202c-94 0 -174 31 -239 94c-69 73 -104 163 -104 268c0 95 25 199 75 314l39 -15
c-30 -84 -45 -154 -45 -210c0 -77 19 -142 58 -197c62 -76 138 -114 228 -114c109 0 205 25 288 75c66 40 108 73 127 99c0 18 -34 35 -102 52c-59 15 -130 25 -213 31l-7 9l48 104c93 14 153 38 180 73c-17 67 -52 150 -106 251c29 46 53 83 74 111zM671 870
c33 43 60 77 81 102c39 -28 79 -64 120 -107c-23 -38 -51 -71 -83 -98c-27 25 -66 60 -118 103zM770 -493c-28 -40 -53 -71 -76 -92c-41 39 -80 74 -117 104c24 34 50 66 79 95c33 -27 71 -62 114 -107zM577 -506c-28 -40 -53 -71 -76 -92c-41 39 -80 74 -117 104
c24 34 50 66 79 95c33 -27 71 -62 114 -107z" />
    <glyph glyph-name="_764" unicode="&#xfef4;&#xfeae;" horiz-adv-x="910" 
d="M696 479h10l27 -156c17 -91 45 -148 85 -173c27 -15 54 -22 81 -22h13v-128h-18c-59 0 -104 16 -134 47s-55 87 -75 169l-25 102h-5c-37 -75 -87 -111 -148 -107c9 -41 14 -87 14 -138c0 -9 -1 -27 -2 -52c-4 -38 -23 -83 -57 -134c-69 -101 -135 -152 -197 -152
c-69 0 -156 26 -261 79l14 32c35 -17 67 -25 94 -25c103 0 194 47 274 142c54 63 81 110 81 141c-15 43 -57 99 -125 170l33 128h9c33 -30 58 -51 73 -63c21 -15 49 -22 84 -22c25 0 49 9 71 27zM856 -324c-28 -40 -53 -71 -76 -92c-41 39 -80 74 -117 104
c24 34 50 66 79 95c33 -27 71 -62 114 -107zM663 -337c-28 -40 -53 -71 -76 -92c-41 39 -80 74 -117 104c24 34 50 66 79 95c33 -27 71 -62 114 -107z" />
    <glyph glyph-name="_765" unicode="&#xfef3;&#xfee4;" horiz-adv-x="819" 
d="M471 -357c-28 -40 -53 -71 -76 -92c-41 39 -80 74 -117 104c24 34 50 66 79 95c33 -27 71 -62 114 -107zM664 -344c-28 -40 -53 -71 -76 -92c-41 39 -80 74 -117 104c24 34 50 66 79 95c33 -27 71 -62 114 -107zM-70 128h9c94 0 175 29 244 88c17 110 61 198 133 265
c71 63 142 95 212 95c38 0 69 -9 94 -27c26 -19 39 -43 39 -73c0 -31 -7 -65 -20 -101l-7 -1c-26 50 -67 75 -124 75c-44 0 -89 -13 -134 -39c-65 -43 -104 -93 -118 -150l3 -3c35 16 69 24 101 24c55 0 98 -18 130 -53c32 -34 48 -74 48 -121c0 -43 -8 -80 -24 -112
c-35 -65 -81 -98 -137 -98s-103 23 -142 70c-35 39 -53 82 -54 128h-5c-61 -63 -141 -95 -238 -95h-10c-47 0 -70 22 -70 67c0 16 5 29 15 40c13 14 32 21 55 21zM255 148c9 -39 29 -71 59 -96c31 -27 64 -40 99 -40s56 9 64 28c0 35 -14 65 -42 90c-29 25 -63 37 -104 37
c-28 0 -53 -6 -76 -19z" />
    <glyph glyph-name="_766" unicode="&#xfef4;&#xfee6;" horiz-adv-x="1120" 
d="M999 489h10l10 -53c6 -27 12 -61 19 -101c18 -96 46 -156 84 -180c33 -18 60 -27 79 -27h14v-128h-16c-59 0 -104 17 -135 52c-29 33 -54 90 -75 173l-26 103h-5c-33 -67 -80 -102 -141 -104c20 -50 30 -113 30 -188c0 -58 -10 -112 -29 -162c-27 -40 -62 -76 -106 -107
c-71 -45 -146 -68 -225 -68c-91 0 -164 30 -218 89c-53 57 -79 132 -79 227c0 79 17 157 50 236l35 -13c-18 -61 -27 -115 -27 -163c0 -70 25 -129 74 -176c47 -43 102 -65 165 -65c69 0 136 19 201 56c69 47 104 89 104 124c0 25 -7 59 -22 100c-17 47 -59 103 -126 170
l36 130l10 1c33 -31 57 -52 74 -64c20 -14 47 -21 81 -21c27 0 50 8 70 24zM1169 -334c-28 -40 -53 -71 -76 -92c-41 39 -80 74 -117 104c24 34 50 66 79 95c33 -27 71 -62 114 -107zM976 -347c-28 -40 -53 -71 -76 -92c-41 39 -80 74 -117 104c24 34 50 66 79 95
c33 -27 71 -62 114 -107zM404 640c33 43 60 77 81 102c39 -28 79 -64 120 -107c-23 -38 -51 -71 -83 -98c-27 25 -66 60 -118 103z" />
    <glyph glyph-name="_1031" unicode="TH" horiz-adv-x="1624" 
d="M1637 0h-323v41c42 3 69 11 80 24c10 12 15 41 15 88v237c0 119 -48 178 -143 177c-59 0 -108 -24 -149 -73v-341c0 -47 5 -76 16 -87c10 -11 37 -20 81 -25v-41h-330v41c47 5 77 13 88 24c11 13 17 43 17 91v730c-66 7 -166 10 -300 10h-97v-708c0 -62 8 -101 23 -116
c16 -15 58 -25 125 -30v-42h-430v42c65 5 105 15 120 30s23 54 23 116v708h-87c-66 0 -112 -4 -138 -11c-22 -6 -39 -18 -52 -37c-17 -27 -34 -71 -51 -131h-43c7 95 13 186 17 271h28c17 -25 45 -37 86 -37h632c57 0 96 3 117 8c18 5 27 15 27 30v19c29 3 71 15 128 35
v-494c69 70 138 105 209 106c141 3 212 -81 212 -253v-248c0 -47 6 -77 17 -90c10 -13 37 -20 82 -23v-41z" />
    <glyph glyph-name="_1032" unicode="FB" horiz-adv-x="1215" 
d="M721 591l111 46c31 12 55 18 71 18c81 0 151 -29 209 -88c59 -59 88 -132 88 -217c0 -104 -38 -192 -113 -263c-75 -69 -164 -104 -267 -104c-76 0 -152 17 -228 52v867c-39 45 -87 67 -145 67c-39 0 -70 -18 -94 -53c-25 -40 -38 -112 -37 -217l2 -61h169
c5 -8 5 -19 2 -33c-3 -13 -9 -23 -20 -28h-151v-408c0 -53 6 -86 19 -99c12 -14 47 -24 106 -29v-41h-357v41c45 5 72 14 83 25c13 13 19 43 19 90v421h-106l-6 17l42 44h70v32c0 47 5 86 16 119c24 69 63 127 117 172c55 45 114 72 176 79c45 -1 84 -13 115 -35
c53 17 87 28 102 35l7 -9v-440zM721 548v-376c0 -20 2 -37 7 -51c7 -21 21 -38 42 -53c25 -20 54 -30 87 -30c61 -1 109 24 146 73s55 116 55 201c0 80 -23 145 -68 194c-43 45 -96 68 -158 68c-45 0 -82 -9 -111 -26z" />
    <glyph glyph-name="_1033" unicode="FFB" horiz-adv-x="1618" 
d="M1127 1033v-440c34 13 71 28 111 45c26 11 49 17 70 17c81 0 151 -29 209 -88c59 -59 88 -132 88 -217c0 -105 -38 -192 -115 -263c-75 -69 -165 -104 -268 -104c-73 0 -148 17 -226 52v865c-38 49 -85 74 -140 74c-38 0 -69 -17 -93 -51c-25 -35 -39 -110 -41 -225v-60
h169c5 -7 5 -18 2 -32c-3 -15 -9 -24 -18 -29h-153v-424c0 -47 6 -77 19 -89s45 -20 96 -25v-39h-333v39c40 6 64 14 73 25c11 13 16 42 16 89v424h-276v-424c0 -46 6 -75 17 -88s39 -21 82 -26v-39h-329v41c45 5 73 14 84 25c12 12 18 41 18 87v424h-106l-5 16l41 45h70v17
c0 36 7 73 20 111c25 66 66 120 124 163c59 43 122 69 190 76c77 -3 134 -27 171 -70c64 63 134 98 209 105c48 -1 87 -12 116 -35c26 6 60 18 101 35zM593 638v26c0 71 14 133 43 188c-38 60 -92 90 -161 90c-52 0 -91 -24 -117 -71c-26 -44 -39 -110 -39 -197v-36h274z
M1127 548v-375c0 -21 3 -38 9 -51c6 -19 19 -36 40 -52c25 -19 55 -30 88 -31c57 -1 104 23 141 71c39 51 59 118 59 202c0 81 -23 146 -68 193c-41 45 -93 67 -158 67c-44 0 -81 -8 -111 -24z" />
    <glyph glyph-name="_1034" unicode="FF" horiz-adv-x="852" 
d="M181 638v20c0 46 7 85 22 117c23 62 61 114 115 156c60 45 122 71 187 78c78 -2 138 -27 180 -74c61 62 127 97 199 106c53 -2 95 -20 125 -53c13 -15 16 -32 8 -50c-6 -13 -17 -26 -34 -39c-17 -15 -33 -14 -46 1c-43 43 -84 64 -123 64c-31 0 -56 -15 -74 -45
c-19 -36 -29 -111 -28 -226l2 -55h177c5 -7 6 -18 3 -31c-2 -15 -7 -25 -16 -30h-166v-426c0 -47 7 -76 20 -88c14 -12 48 -20 103 -25v-38h-341v38c40 5 65 13 74 25c11 13 16 43 16 90v424h-274v-426c0 -45 6 -75 17 -88c12 -12 39 -20 82 -25v-38h-329v39
c45 5 73 14 84 25c11 13 17 42 17 87v426h-107l-4 17l41 44h70zM584 638v31c0 42 4 77 12 106c5 20 14 44 27 71c-41 67 -97 101 -166 101c-45 0 -81 -22 -106 -66c-27 -49 -41 -117 -41 -204v-39h274z" />
    <glyph glyph-name="_1035" unicode="FH" horiz-adv-x="1231" 
d="M1244 0h-323v41c43 5 69 13 80 25c11 11 16 40 16 87v237c0 118 -48 177 -144 177c-61 0 -110 -24 -149 -73v-341c0 -45 5 -74 16 -87c11 -12 37 -20 79 -25v-41h-319v41c42 5 68 13 78 24c11 13 17 43 17 88v749c-40 47 -88 70 -145 70c-39 0 -71 -18 -96 -54
c-22 -33 -33 -107 -33 -222v-58h167c5 -7 5 -18 2 -33c-3 -14 -9 -24 -18 -30h-151v-409c0 -53 5 -86 16 -99c9 -13 35 -21 78 -26v-41h-324v41c43 5 71 13 83 25c11 13 17 42 17 87v422h-103l-6 16l41 47h68v25c0 49 5 91 16 125c23 67 61 124 115 170c59 47 117 75 173 82
c53 -1 92 -13 118 -35c33 7 68 18 104 35l7 -7v-482c68 68 138 103 210 104c141 3 211 -82 211 -253v-248c0 -47 6 -76 17 -89c10 -11 37 -19 82 -24v-41z" />
    <glyph glyph-name="_1036" unicode="FFH" horiz-adv-x="1634" 
d="M1648 0h-324v41c43 5 70 13 80 24c11 11 16 39 16 86v239c0 120 -48 180 -144 180c-59 -3 -109 -28 -148 -75v-344c0 -46 5 -75 16 -86s38 -19 80 -24v-41h-318v41c41 5 66 13 76 24c11 13 17 43 17 88v749c-42 48 -89 72 -141 72c-44 0 -76 -18 -96 -55
c-25 -37 -38 -111 -38 -221v-60h169c5 -8 6 -19 3 -32c-3 -14 -9 -24 -19 -29h-153v-426c0 -44 6 -73 18 -86c11 -11 40 -19 87 -24v-41h-323v41c39 5 63 13 73 25c11 13 16 42 16 87v424h-274v-424c0 -45 5 -74 16 -87c12 -12 39 -20 81 -25v-41h-325v41c43 5 70 14 81 26
c11 13 17 42 17 86v424h-105l-4 16l41 45h68v17c0 35 7 72 22 111c24 65 65 120 122 163c60 46 125 71 194 76c74 -3 130 -26 169 -70c61 61 129 96 202 105c47 0 86 -12 117 -35c34 7 68 18 103 35l8 -7v-482c69 69 138 103 209 104c66 1 117 -19 154 -58
c39 -45 59 -110 59 -196v-251c0 -45 6 -73 17 -86s38 -20 81 -23v-41zM595 638v28c0 71 14 133 43 188c-37 59 -90 88 -160 88c-53 0 -92 -25 -118 -74c-26 -46 -39 -111 -39 -194v-36h274z" />
    <glyph glyph-name="fi" unicode="FI" horiz-adv-x="811" 
d="M820 0h-323v39c41 5 66 13 75 24c10 11 15 39 15 84v348c0 35 -4 58 -11 67c-9 10 -31 15 -68 15h-195v-430c0 -44 6 -72 18 -84c11 -11 39 -19 86 -24v-39h-337v39c46 5 75 13 87 25c12 11 18 39 18 83v430h-108l-7 17l42 44h73v36c0 40 7 80 20 120
c27 68 68 123 123 166c62 48 125 75 189 80c73 -3 127 -27 162 -71c13 -19 15 -38 7 -59c-9 -17 -21 -29 -35 -36c-18 -12 -33 -12 -45 1c-50 63 -102 94 -157 94c-40 0 -71 -19 -92 -57c-29 -45 -44 -119 -44 -222v-52h123c127 0 220 6 281 19v-510c0 -45 5 -73 16 -84
s40 -19 87 -24v-39z" />
    <glyph glyph-name="_1038" unicode="FFI" horiz-adv-x="1209" 
d="M1219 0h-322v39c41 5 66 13 76 24c11 11 16 38 16 83v351c0 36 -4 58 -12 66c-8 9 -30 14 -66 14h-196v-431c0 -45 5 -72 16 -83s38 -19 81 -24v-39h-319v39c43 5 68 13 77 23c10 11 15 40 15 85v430h-274v-426c0 -47 5 -77 16 -88c11 -12 38 -20 82 -25v-38h-325v39
c45 5 73 13 82 23c11 11 16 41 16 89v426h-105l-5 17l41 44h69v31c0 31 6 66 17 106c24 63 67 118 128 165c61 43 124 68 187 74c85 -3 145 -30 179 -79c71 67 147 103 226 106c73 -1 127 -25 164 -71c16 -20 19 -39 10 -57c-10 -17 -22 -30 -36 -39c-19 -15 -36 -14 -51 1
c-55 65 -106 97 -153 97c-39 0 -72 -20 -97 -59c-27 -39 -41 -110 -41 -212v-63h124c126 0 219 6 278 19v-511c0 -44 5 -71 16 -82c12 -12 41 -20 86 -25v-39zM585 638v41c0 36 5 70 15 103c8 27 17 50 27 69c-39 66 -94 99 -166 99c-49 0 -85 -22 -110 -67
c-27 -47 -40 -115 -40 -203v-42h274z" />
    <glyph glyph-name="_1039" unicode="FJ" horiz-adv-x="791" 
d="M318 638h123c127 0 221 6 280 19v-494c0 -93 -12 -172 -35 -236c-43 -115 -103 -210 -180 -285c-15 -13 -29 -19 -43 -19c-11 0 -23 6 -35 18c-13 13 -20 29 -20 46s10 28 31 35c57 14 91 30 104 49c18 21 31 59 38 112c7 67 11 165 11 293v319c0 36 -4 58 -12 67
c-9 10 -31 15 -67 15h-195v-431c0 -44 6 -72 17 -83s40 -19 88 -24v-39h-340v39c48 5 78 13 89 24s17 39 17 83v431h-107l-6 17l42 44h71v36c0 43 7 83 21 120c25 69 66 124 121 167c61 47 124 74 189 79c75 -3 129 -27 162 -70c14 -22 17 -42 9 -60c-9 -15 -21 -27 -35 -36
c-21 -11 -36 -10 -46 1c-51 61 -104 92 -158 92c-41 0 -71 -19 -92 -58c-28 -45 -42 -118 -42 -219v-52z" />
    <glyph glyph-name="_1040" unicode="FFJ" horiz-adv-x="1194" 
d="M721 638h125c125 0 217 6 278 19l2 -492c0 -95 -12 -174 -35 -236c-46 -127 -106 -223 -181 -289c-15 -11 -29 -17 -41 -17s-23 6 -34 19c-13 15 -20 31 -20 48s10 29 31 35c54 13 88 29 103 49c17 21 28 57 34 108c9 65 13 160 13 287l-1 326c0 37 -3 60 -10 67
c-8 10 -30 15 -66 15h-198v-431c0 -44 5 -71 16 -82c12 -11 42 -20 91 -25v-39h-330v39c43 5 69 13 79 24c11 11 16 39 16 84v430h-274v-426c0 -47 5 -76 15 -88c11 -12 38 -20 82 -25v-38h-326v39c43 5 71 13 82 24c11 13 17 43 17 88v426h-106l-5 17l41 44h70v31
c0 33 6 67 19 103c23 65 64 120 124 165c60 43 123 68 189 75c86 -3 145 -30 178 -80c73 68 147 104 224 109c69 -1 124 -24 165 -71c14 -20 17 -39 8 -57c-8 -16 -19 -29 -34 -40c-21 -13 -38 -13 -51 2c-59 63 -111 95 -156 95c-38 0 -69 -19 -94 -58
c-27 -41 -40 -111 -40 -211v-63zM593 638v41c0 39 5 75 14 106c6 21 15 42 28 63c-41 67 -97 100 -168 100c-50 0 -86 -22 -109 -67c-26 -45 -39 -112 -39 -201v-42h274z" />
    <glyph glyph-name="_1041" unicode="FK" horiz-adv-x="1175" 
d="M1241 0l-209 -3c-38 40 -120 136 -246 288c-15 20 -28 30 -41 30c-6 1 -14 0 -24 -2v-157c0 -48 6 -78 19 -91c11 -11 40 -19 88 -24v-41h-336v41c45 5 73 13 84 24c11 13 17 44 17 91v749c-40 43 -87 65 -142 65c-44 0 -76 -18 -97 -55c-25 -45 -38 -118 -37 -219l2 -58
h167c5 -7 6 -17 3 -32s-9 -26 -17 -31h-153v-406c0 -55 5 -88 16 -101c10 -13 37 -22 81 -27v-41h-329v41c45 5 73 13 84 26c12 13 18 43 18 89v419h-106l-5 16l40 47h71v25c0 47 5 89 16 125c22 67 61 123 118 170c59 47 115 75 170 82c51 -1 90 -12 117 -33
c38 7 72 18 103 33l8 -7v-682c36 8 67 25 93 51c37 35 72 77 105 128c15 23 21 39 17 46c-5 9 -25 15 -58 18v40l309 13v-40c-77 -11 -140 -38 -191 -81c-15 -13 -57 -60 -128 -139c55 -81 133 -170 233 -268c51 -50 98 -76 140 -78v-41z" />
    <glyph glyph-name="_1042" unicode="FFK" horiz-adv-x="1579" 
d="M1643 0l-207 -3l-247 288c-17 20 -30 30 -41 30c-7 1 -15 0 -25 -2v-159c0 -47 6 -76 19 -89c12 -11 42 -19 90 -24v-41h-335v41c44 5 71 13 81 24c11 13 17 42 17 89v746c-41 49 -87 73 -140 73c-41 0 -73 -17 -95 -52c-26 -39 -39 -113 -39 -223v-60h169
c5 -7 5 -18 2 -33c-3 -13 -9 -23 -18 -28h-153v-428c0 -45 6 -73 18 -84c11 -11 40 -19 86 -24v-41h-325v41c41 5 66 13 75 24c11 13 17 41 17 84v428h-276v-426c0 -44 6 -72 17 -85c12 -12 39 -20 82 -25v-41h-329v42c45 5 73 13 84 24c12 12 18 40 18 85v426h-106l-6 14
l42 47h70v16c0 33 7 72 22 115c25 63 66 116 121 159c59 46 125 72 196 77c76 -3 132 -27 168 -70c61 61 130 96 205 105c48 -1 85 -12 112 -33c39 6 74 17 105 33l6 -7v-682c36 8 67 25 93 51c38 35 73 77 104 125c15 21 19 37 14 47c-7 10 -25 16 -56 19v41l311 13v-40
c-75 -11 -139 -39 -191 -84c-31 -28 -73 -73 -126 -136c54 -79 131 -167 231 -266c51 -50 98 -77 140 -80v-41zM592 638v28c0 69 14 131 43 188c-39 59 -92 88 -161 88c-49 0 -89 -25 -118 -74c-25 -41 -38 -105 -38 -194v-36h274z" />
    <glyph glyph-name="fl" unicode="FL" horiz-adv-x="808" 
d="M826 0h-328v39c41 5 67 13 77 24s15 39 15 84v756c-29 47 -73 70 -132 70c-39 0 -72 -17 -97 -50c-30 -40 -45 -107 -45 -201v-84h172c4 -7 4 -17 1 -32s-8 -24 -17 -29h-156v-431c0 -45 5 -72 16 -83c10 -11 38 -19 83 -24v-39h-332v39c47 5 77 13 88 24s17 39 17 83
v431h-106l-6 19l41 42h71v26c0 52 7 97 20 136c25 66 66 121 123 166c55 43 113 67 176 74c51 0 93 -11 128 -33c15 3 39 13 72 30l13 -9v-881c0 -45 6 -73 17 -84s40 -19 89 -24v-39z" />
    <glyph glyph-name="_1044" unicode="FFL" horiz-adv-x="1213" 
d="M1231 0h-323v39c41 5 65 13 74 24c11 11 16 38 16 83v759c-28 47 -71 71 -130 71c-41 0 -75 -16 -100 -48c-29 -37 -44 -109 -44 -216v-74h173c4 -7 5 -18 2 -32s-9 -24 -18 -29h-155l-2 -430c0 -45 5 -73 16 -84s39 -19 82 -24v-39h-321v39c42 5 68 13 78 24
c11 11 16 39 16 84v430h-274v-426c0 -47 5 -76 16 -87c11 -12 37 -20 80 -25v-39h-325v39c43 5 71 13 82 24c11 13 17 43 17 88v426h-103l-6 17l41 44h68v29c0 37 7 72 20 106c23 60 63 113 121 159c60 46 125 72 196 77c76 -2 135 -26 176 -72c65 65 134 99 208 103
c51 1 96 -11 136 -36c11 5 33 16 65 35l13 -9v-884c0 -44 6 -72 17 -83s41 -19 88 -24v-39zM595 638v31c0 46 5 86 16 120c2 8 11 30 27 66c-34 59 -89 89 -164 89c-51 0 -90 -23 -117 -69c-24 -45 -36 -111 -36 -198v-39h274z" />
    <glyph glyph-name="_1045" unicode="FT" horiz-adv-x="881" 
d="M911 52l-104 -51c-24 -12 -45 -18 -63 -18c-103 0 -154 58 -154 174v420h-274v-424c0 -47 5 -76 16 -87s41 -20 91 -25v-41h-342v41c47 5 77 14 88 25c11 13 17 41 17 85v426h-106l-8 17l41 44h73v36c0 43 5 81 16 115c21 70 61 128 119 174c56 44 112 70 167 77
c49 -1 87 -16 116 -45c16 -19 19 -38 9 -57c-8 -16 -20 -29 -37 -39c-13 -9 -25 -7 -37 4c-35 38 -74 57 -118 57c-33 0 -59 -15 -78 -44c-22 -33 -32 -112 -29 -237l2 -41h274v98l109 102l20 -6v-194h166c7 -7 10 -18 8 -32c-2 -15 -8 -24 -18 -29h-156v-367
c0 -95 29 -142 88 -142c26 0 56 8 90 25z" />
    <glyph glyph-name="_1046" unicode="FFT" horiz-adv-x="1289" 
d="M1317 52l-106 -52c-26 -11 -47 -17 -62 -17c-102 0 -153 58 -153 174v421h-275v-429c0 -47 6 -75 19 -86c11 -11 42 -19 93 -24v-39h-330v39c39 5 64 14 73 25c11 11 16 40 16 86v428h-274v-429c0 -45 6 -74 17 -85c11 -12 38 -20 82 -25v-39h-332v41c47 5 76 13 86 23
c11 13 17 41 17 85v429h-106l-6 16l41 44h71v17c0 37 7 74 20 110c25 64 66 118 123 163c61 47 126 72 195 77c75 -3 132 -27 169 -71c62 62 128 97 198 106c50 -1 89 -16 118 -45c16 -19 19 -37 9 -55c-9 -17 -22 -32 -38 -43c-12 -7 -24 -5 -35 6c-40 40 -80 60 -121 60
c-31 0 -57 -16 -76 -47c-20 -35 -30 -112 -29 -230v-48h275v95l110 103l19 -4v-194h167c7 -7 10 -18 8 -31s-8 -23 -18 -29h-157v-368c0 -95 29 -142 87 -142c27 0 57 8 90 25zM592 638v29c0 71 14 132 42 185c-39 59 -93 89 -160 89c-48 0 -87 -22 -117 -66
c-27 -45 -41 -112 -41 -201v-36h276z" />
    <glyph glyph-name="uniFE82" unicode="&#x622;" horiz-adv-x="432" arabic-form="final" 
d="M450 128v-128h-11c-76 0 -133 19 -171 57c-28 29 -46 65 -54 108c-5 32 -8 89 -8 172c0 151 -9 351 -26 601c43 46 75 77 94 93l7 -4c11 -166 17 -352 17 -559l-1 -222c0 -53 25 -89 75 -107c22 -7 43 -11 64 -11h14zM482 1219l5 -5c-15 -41 -24 -66 -29 -75
c-38 -32 -85 -48 -140 -48c-21 0 -54 3 -97 9c-46 5 -75 8 -88 8c-10 0 -29 -26 -56 -77h-7l-34 61c0 29 6 54 19 73c16 25 40 38 72 38c23 0 58 -5 106 -15s85 -15 111 -15c30 0 57 5 82 14c20 8 39 19 56 32z" />
    <glyph glyph-name="uniFE84" unicode="&#x623;" horiz-adv-x="402" arabic-form="final" 
d="M381 1169v-3c-13 -27 -26 -50 -39 -68c-97 -15 -184 -40 -260 -75l-2 3l24 42c13 16 29 27 46 33v3c-52 15 -78 44 -78 87c0 27 16 57 47 88c43 38 84 57 121 57c19 0 35 -5 47 -15c11 -9 16 -20 16 -34c0 -18 -11 -40 -32 -65h-2c-12 23 -23 36 -32 39c-7 2 -17 3 -31 3
c-17 0 -33 -4 -48 -12c-15 -7 -22 -14 -22 -23c0 -23 16 -39 49 -50c28 -9 59 -14 94 -14c28 0 62 1 102 4zM438 128v-128h-11c-76 0 -133 19 -171 57c-28 29 -46 65 -54 108c-5 32 -8 89 -8 172c0 151 -9 351 -26 601c43 46 75 77 94 93l7 -4c11 -141 16 -383 16 -724v-57
c0 -53 25 -89 75 -107c22 -7 43 -11 64 -11h14z" />
    <glyph glyph-name="uniFE86" unicode="&#x624;" horiz-adv-x="690" arabic-form="final" 
d="M603 128h89v-128h-83c-5 -65 -31 -134 -79 -206c-38 -56 -81 -99 -129 -130c-41 -27 -78 -40 -109 -40c-83 0 -179 34 -288 101l17 33c45 -24 94 -36 147 -36c95 0 187 46 278 138c51 53 83 99 94 140h-51c-204 0 -306 68 -306 205c0 59 17 113 51 161
c44 64 95 96 154 96c47 0 91 -30 132 -90c43 -64 70 -145 83 -244zM535 128c-11 59 -34 107 -70 146c-33 37 -69 56 -106 56c-27 0 -52 -10 -77 -29c-24 -19 -36 -38 -36 -59c0 -45 36 -77 109 -98c39 -11 99 -16 180 -16zM474 719v-3c-13 -27 -26 -50 -39 -68
c-97 -15 -184 -40 -260 -75l-2 3l24 42c13 16 29 27 46 33v3c-52 15 -78 44 -78 87c0 27 16 57 47 88c43 38 84 57 121 57c19 0 35 -5 47 -15c11 -9 16 -20 16 -34c0 -18 -11 -40 -32 -65h-2c-12 23 -23 36 -32 39c-7 2 -17 3 -31 3c-17 0 -33 -4 -48 -12
c-15 -7 -22 -14 -22 -23c0 -23 16 -39 49 -50c28 -9 59 -14 94 -14c28 0 62 1 102 4z" />
    <glyph glyph-name="uniFE88" unicode="&#x625;" horiz-adv-x="358" arabic-form="final" 
d="M410 128v-128h-11c-76 0 -133 19 -171 57c-28 29 -46 65 -54 108c-5 32 -8 89 -8 172c0 151 -9 351 -26 601c43 46 75 77 94 93l7 -4c11 -141 16 -383 16 -724v-57c0 -53 25 -89 75 -107c22 -7 43 -11 64 -11h14zM413 -221v-3c-13 -27 -26 -50 -39 -68
c-97 -15 -184 -40 -260 -75l-2 3l24 42c13 16 29 27 46 33v3c-52 15 -78 44 -78 87c0 27 16 57 47 88c43 38 84 57 121 57c19 0 35 -5 47 -15c11 -9 16 -20 16 -34c0 -18 -11 -40 -32 -65h-2c-12 23 -23 36 -32 39c-7 2 -17 3 -31 3c-17 0 -33 -4 -48 -12
c-15 -7 -22 -14 -22 -23c0 -23 16 -39 49 -50c28 -9 59 -14 94 -14c28 0 62 1 102 4z" />
    <glyph glyph-name="uniFE8B" unicode="&#x626;" horiz-adv-x="441" arabic-form="initial" 
d="M176 551h5c67 -117 100 -218 100 -305c0 -63 -23 -125 -70 -186c-40 -40 -130 -60 -269 -60h-12c-47 0 -70 22 -70 67c0 16 5 29 15 40c13 14 32 21 55 21h17c97 0 163 6 197 19c38 14 57 29 57 44c0 34 -33 116 -100 247c25 45 50 83 75 113zM272 769v-3
c-13 -27 -26 -50 -39 -68c-97 -15 -184 -40 -260 -75l-2 3l24 42c13 16 29 27 46 33v3c-52 15 -78 44 -78 87c0 27 16 57 47 88c43 38 84 57 121 57c19 0 35 -5 47 -15c11 -9 16 -20 16 -34c0 -18 -11 -40 -32 -65h-2c-12 23 -23 36 -32 39c-7 2 -17 3 -31 3
c-17 0 -33 -4 -48 -12c-15 -7 -22 -14 -22 -23c0 -23 16 -39 49 -50c28 -9 59 -14 94 -14c28 0 62 1 102 4z" />
    <glyph glyph-name="uniFE8C" unicode="&#x626;" horiz-adv-x="451" arabic-form="medial" 
d="M-70 128h22c40 0 76 8 109 23c35 16 56 38 63 65l29 108l69 50l6 -7c-15 -52 -22 -91 -22 -116c0 -38 11 -66 33 -83c33 -27 74 -40 124 -40h18v-128h-23c-106 0 -175 34 -206 102h-4c-35 -68 -101 -102 -199 -102h-19c-47 0 -70 22 -70 67c0 16 5 29 15 40
c13 14 32 21 55 21zM312 629v-3c-13 -27 -26 -50 -39 -68c-97 -15 -184 -40 -260 -75l-2 3l24 42c13 16 29 27 46 33v3c-52 15 -78 44 -78 87c0 27 16 57 47 88c43 38 84 57 121 57c19 0 35 -5 47 -15c11 -9 16 -20 16 -34c0 -18 -11 -40 -32 -65h-2c-12 23 -23 36 -32 39
c-7 2 -17 3 -31 3c-17 0 -33 -4 -48 -12c-15 -7 -22 -14 -22 -23c0 -23 16 -39 49 -50c28 -9 59 -14 94 -14c28 0 62 1 102 4z" />
    <glyph glyph-name="uniFE8A" unicode="&#x626;" horiz-adv-x="1017" arabic-form="final" 
d="M754 128h353v-128h-58c3 -22 4 -46 4 -72c0 -34 -15 -76 -45 -125c-138 -124 -293 -186 -466 -186c-118 0 -210 36 -275 108c-58 65 -87 158 -87 279c0 115 31 225 94 330l38 -17c-41 -98 -61 -182 -61 -251c0 -90 27 -163 80 -218c61 -63 141 -94 242 -94
c95 0 201 29 319 86c53 30 83 53 90 69c-13 26 -44 47 -94 64c-55 18 -120 27 -197 27l-6 14zM745 589v-3c-13 -27 -26 -50 -39 -68c-97 -15 -184 -40 -260 -75l-2 3l24 42c13 16 29 27 46 33v3c-52 15 -78 44 -78 87c0 27 16 57 47 88c43 38 84 57 121 57
c19 0 35 -5 47 -15c11 -9 16 -20 16 -34c0 -18 -11 -40 -32 -65h-2c-12 23 -23 36 -32 39c-7 2 -17 3 -31 3c-17 0 -33 -4 -48 -12c-15 -7 -22 -14 -22 -23c0 -23 16 -39 49 -50c28 -9 59 -14 94 -14c28 0 62 1 102 4z" />
    <glyph glyph-name="uniFE8E" unicode="&#x627;" horiz-adv-x="358" arabic-form="final" 
d="M446 128v-128h-11c-76 0 -133 19 -171 57c-28 29 -46 65 -54 108c-5 32 -8 89 -8 172c0 151 -9 351 -26 601c43 46 75 77 94 93l7 -4c11 -141 16 -383 16 -724v-57c0 -53 25 -89 75 -107c22 -7 43 -11 64 -11h14z" />
    <glyph glyph-name="uniFE91" unicode="&#x628;" horiz-adv-x="433" arabic-form="initial" 
d="M-70 128h17c97 0 163 6 197 19c38 14 57 29 57 44c0 34 -33 116 -100 247c25 45 50 83 75 113h5c67 -117 100 -218 100 -305c0 -63 -23 -125 -70 -186c-40 -40 -130 -60 -269 -60h-12c-47 0 -70 22 -70 67c0 16 5 29 15 40c13 14 32 21 55 21zM55 -291
c33 43 60 77 81 102c39 -28 79 -64 120 -107c-23 -38 -51 -71 -83 -98c-27 25 -66 60 -118 103z" />
    <glyph glyph-name="uniFE92" unicode="&#x628;" horiz-adv-x="451" arabic-form="medial" 
d="M-70 128h22c40 0 76 8 109 23c35 16 56 38 63 65l29 108l69 50l6 -7c-15 -52 -22 -91 -22 -116c0 -38 11 -66 33 -83c33 -27 74 -40 124 -40h18v-128h-23c-106 0 -175 34 -206 102h-4c-35 -68 -101 -102 -199 -102h-19c-47 0 -70 22 -70 67c0 16 5 29 15 40
c13 14 32 21 55 21zM55 -291c33 43 60 77 81 102c39 -28 79 -64 120 -107c-23 -38 -51 -71 -83 -98c-27 25 -66 60 -118 103z" />
    <glyph glyph-name="uniFE90" unicode="&#x628;" horiz-adv-x="1361" arabic-form="final" 
d="M1461 128v-128h-23c-103 0 -171 29 -204 87c-42 -25 -94 -47 -156 -65c-142 -41 -271 -62 -388 -62c-147 0 -262 26 -343 77c-98 63 -147 154 -147 271c0 87 20 167 59 242l40 -17c-19 -59 -29 -110 -29 -152c0 -94 44 -168 132 -221c71 -43 177 -64 318 -64
c101 0 215 15 342 44c45 11 89 25 132 44l44 140l64 50l6 -7c-15 -46 -23 -83 -23 -112c0 -43 11 -72 34 -89c33 -25 74 -38 124 -38h18zM644 -321c33 43 60 77 81 102c39 -28 79 -64 120 -107c-23 -38 -51 -71 -83 -98c-27 25 -66 60 -118 103z" />
    <glyph glyph-name="uniFE94" unicode="&#x629;" horiz-adv-x="699" arabic-form="final" 
d="M560 139c-68 -29 -134 -44 -198 -44c-54 0 -97 10 -130 29c-35 20 -52 49 -52 88c0 30 11 69 32 117c41 89 148 180 320 275l-6 75c33 37 59 65 79 82h11c3 -103 5 -258 6 -466c0 -72 13 -119 38 -141c21 -17 56 -26 105 -26h24v-128h-22c-53 0 -95 9 -126 27
c-36 21 -63 58 -81 112zM544 246l-5 247c-181 -93 -271 -166 -271 -219c0 -37 43 -56 128 -56c42 0 91 9 148 28zM690 952c-28 -40 -53 -71 -76 -92c-41 39 -80 74 -117 104c24 34 50 66 79 95c33 -27 71 -62 114 -107zM497 939c-28 -40 -53 -71 -76 -92
c-41 39 -80 74 -117 104c24 34 50 66 79 95c33 -27 71 -62 114 -107z" />
    <glyph glyph-name="uniFE97" unicode="&#x62a;" horiz-adv-x="441" arabic-form="initial" 
d="M-70 128h17c97 0 163 6 197 19c38 14 57 29 57 44c0 34 -33 116 -100 247c25 45 50 83 75 113h5c67 -117 100 -218 100 -305c0 -63 -23 -125 -70 -186c-40 -40 -130 -60 -269 -60h-12c-47 0 -70 22 -70 67c0 16 5 29 15 40c13 14 32 21 55 21zM291 742
c-28 -40 -53 -71 -76 -92c-41 39 -80 74 -117 104c24 34 50 66 79 95c33 -27 71 -62 114 -107zM98 729c-28 -40 -53 -71 -76 -92c-41 39 -80 74 -117 104c24 34 50 66 79 95c33 -27 71 -62 114 -107z" />
    <glyph glyph-name="uniFE98" unicode="&#x62a;" horiz-adv-x="451" arabic-form="medial" 
d="M138 599c-28 -40 -53 -71 -76 -92c-41 39 -80 74 -117 104c24 34 50 66 79 95c33 -27 71 -62 114 -107zM331 612c-28 -40 -53 -71 -76 -92c-41 39 -80 74 -117 104c24 34 50 66 79 95c33 -27 71 -62 114 -107zM-70 128h22c40 0 76 8 109 23c35 16 56 38 63 65l29 108
l69 50l6 -7c-15 -52 -22 -91 -22 -116c0 -38 11 -66 33 -83c33 -27 74 -40 124 -40h18v-128h-23c-106 0 -175 34 -206 102h-4c-35 -68 -101 -102 -199 -102h-19c-47 0 -70 22 -70 67c0 16 5 29 15 40c13 14 32 21 55 21z" />
    <glyph glyph-name="uniFE96" unicode="&#x62a;" horiz-adv-x="1361" arabic-form="final" 
d="M960 732c-28 -40 -53 -71 -76 -92c-41 39 -80 74 -117 104c24 34 50 66 79 95c33 -27 71 -62 114 -107zM767 719c-28 -40 -53 -71 -76 -92c-41 39 -80 74 -117 104c24 34 50 66 79 95c33 -27 71 -62 114 -107zM1461 128v-128h-23c-103 0 -171 29 -204 87
c-38 -23 -90 -45 -156 -64c-143 -42 -272 -63 -388 -63c-147 0 -262 26 -343 77c-98 63 -147 154 -147 271c0 87 20 167 59 242l40 -17c-19 -59 -29 -110 -29 -152c0 -94 44 -168 132 -221c71 -43 177 -64 318 -64c99 0 213 15 341 45c54 13 98 27 133 43l44 140l68 49l6 -7
c-16 -50 -24 -90 -24 -119c0 -35 12 -62 35 -81c31 -25 71 -38 120 -38h18z" />
    <glyph glyph-name="uniFE9B" unicode="&#x62b;" horiz-adv-x="441" arabic-form="initial" 
d="M-70 128h17c97 0 163 6 197 19c38 14 57 29 57 44c0 34 -33 116 -100 247c25 45 50 83 75 113h5c67 -117 100 -218 100 -305c0 -63 -23 -125 -70 -186c-40 -40 -130 -60 -269 -60h-12c-47 0 -70 22 -70 67c0 16 5 29 15 40c13 14 32 21 55 21zM98 729
c-28 -40 -53 -71 -76 -92c-41 39 -80 74 -117 104c24 34 50 66 79 95c33 -27 71 -62 114 -107zM152 942c-28 -40 -53 -71 -76 -92c-41 39 -80 74 -117 104c24 34 50 66 79 95c33 -27 71 -62 114 -107zM291 742c-28 -40 -53 -71 -76 -92c-41 39 -80 74 -117 104
c24 34 50 66 79 95c33 -27 71 -62 114 -107z" />
    <glyph glyph-name="uniFE9C" unicode="&#x62b;" horiz-adv-x="451" arabic-form="medial" 
d="M192 812c-28 -40 -53 -71 -76 -92c-41 39 -80 74 -117 104c24 34 50 66 79 95c33 -27 71 -62 114 -107zM138 599c-28 -40 -53 -71 -76 -92c-41 39 -80 74 -117 104c24 34 50 66 79 95c33 -27 71 -62 114 -107zM331 612c-28 -40 -53 -71 -76 -92c-41 39 -80 74 -117 104
c24 34 50 66 79 95c33 -27 71 -62 114 -107zM-70 128h22c40 0 76 8 109 23c35 16 56 38 63 65l29 108l69 50l6 -7c-15 -52 -22 -91 -22 -116c0 -38 11 -66 33 -83c33 -27 74 -40 124 -40h18v-128h-23c-106 0 -175 34 -206 102h-4c-35 -68 -101 -102 -199 -102h-19
c-47 0 -70 22 -70 67c0 16 5 29 15 40c13 14 32 21 55 21z" />
    <glyph glyph-name="uniFE9A" unicode="&#x62b;" horiz-adv-x="1361" arabic-form="final" 
d="M960 732c-28 -40 -53 -71 -76 -92c-41 39 -80 74 -117 104c24 34 50 66 79 95c33 -27 71 -62 114 -107zM767 719c-28 -40 -53 -71 -76 -92c-41 39 -80 74 -117 104c24 34 50 66 79 95c33 -27 71 -62 114 -107zM821 932c-28 -40 -53 -71 -76 -92c-41 39 -80 74 -117 104
c24 34 50 66 79 95c33 -27 71 -62 114 -107zM1461 128v-128h-23c-103 0 -171 29 -204 87c-38 -23 -90 -45 -156 -64c-143 -42 -272 -63 -388 -63c-147 0 -262 26 -343 77c-98 63 -147 154 -147 271c0 87 20 167 59 242l40 -17c-19 -59 -29 -110 -29 -152
c0 -94 44 -168 132 -221c71 -43 177 -64 318 -64c99 0 213 15 341 45c54 13 98 27 133 43l44 140l68 49l6 -7c-16 -50 -24 -90 -24 -119c0 -35 12 -62 35 -81c31 -25 71 -38 120 -38h18z" />
    <glyph glyph-name="uniFE9F" unicode="&#x62c;" horiz-adv-x="935" arabic-form="initial" 
d="M-70 128h61c155 0 333 60 534 181l1 4c-125 47 -230 70 -314 70c-55 0 -98 -17 -127 -50l12 -50l-30 -90h-10l-49 132c4 55 26 99 67 132c39 32 89 48 150 48c76 0 185 -29 328 -87c49 -20 106 -31 171 -32l81 1l3 -2l-53 -105c-75 2 -132 -10 -173 -37l-167 -109
c-137 -89 -282 -134 -433 -134h-52c-47 0 -70 22 -70 67c0 16 5 29 15 40c13 14 32 21 55 21zM215 -251c33 43 60 77 81 102c39 -28 79 -64 120 -107c-23 -38 -51 -71 -83 -98c-27 25 -66 60 -118 103z" />
    <glyph glyph-name="uniFEA0" unicode="&#x62c;" horiz-adv-x="915" arabic-form="medial" 
d="M525 309l1 4c-125 47 -230 70 -314 70c-55 0 -98 -17 -127 -50l12 -50l-30 -90h-10l-49 132c4 55 26 99 67 132c39 32 89 48 150 48c74 0 183 -29 328 -86c55 -22 112 -33 171 -33h87l2 -2l-62 -103c-72 0 -128 -13 -169 -38l-167 -109c-139 -89 -286 -134 -439 -134h-46
c-47 0 -70 22 -70 67c0 16 5 29 15 40c13 14 32 21 55 21h61c155 0 333 60 534 181zM602 221l36 24l3 -1c3 -77 62 -116 177 -116h27v-128h-31c-143 0 -215 55 -215 165c0 19 1 37 3 56zM215 -251c33 43 60 77 81 102c39 -28 79 -64 120 -107c-23 -38 -51 -71 -83 -98
c-27 25 -66 60 -118 103z" />
    <glyph glyph-name="uniFE9E" unicode="&#x62c;" horiz-adv-x="939" arabic-form="final" 
d="M639 324l-1 3c-102 37 -195 56 -278 56c-55 0 -98 -17 -127 -50l20 -84l-28 -79l-11 -3l-58 158c4 55 26 99 67 132c39 32 89 48 150 48c76 0 185 -29 328 -87c53 -20 110 -31 171 -32l88 1l1 -2l-60 -101c-73 -7 -162 -29 -267 -66c-247 -94 -370 -205 -370 -333
c0 -101 48 -182 145 -242c93 -57 211 -86 354 -86c81 0 166 7 257 22l3 -10c-69 -57 -123 -96 -163 -119c-63 -12 -126 -18 -189 -18c-139 0 -253 33 -340 99c-95 72 -142 174 -142 307c0 116 44 219 132 310c82 86 188 145 318 176zM513 -131c33 43 60 77 81 102
c39 -28 79 -64 120 -107c-23 -38 -51 -71 -83 -98c-27 25 -66 60 -118 103zM750 221l36 24l3 -1c3 -77 62 -116 177 -116h51v-128h-55c-143 0 -215 55 -215 165c0 19 1 37 3 56z" />
    <glyph glyph-name="uniFEA3" unicode="&#x62d;" horiz-adv-x="935" arabic-form="initial" 
d="M-70 128h61c155 0 333 60 534 181l1 4c-125 47 -230 70 -314 70c-55 0 -98 -17 -127 -50l12 -50l-30 -90h-10l-49 132c4 55 26 99 67 132c39 32 89 48 150 48c76 0 185 -29 328 -87c49 -20 106 -31 171 -32l81 1l3 -2l-53 -105c-75 2 -132 -10 -173 -37l-167 -109
c-137 -89 -282 -134 -433 -134h-52c-47 0 -70 22 -70 67c0 16 5 29 15 40c13 14 32 21 55 21z" />
    <glyph glyph-name="uniFEA4" unicode="&#x62d;" horiz-adv-x="915" arabic-form="medial" 
d="M525 309l1 4c-125 47 -230 70 -314 70c-55 0 -98 -17 -127 -50l12 -50l-30 -90h-10l-49 132c4 55 26 99 67 132c39 32 89 48 150 48c74 0 183 -29 328 -86c55 -22 112 -33 171 -33h87l2 -2l-62 -103c-72 0 -128 -13 -169 -38l-167 -109c-139 -89 -286 -134 -439 -134h-46
c-47 0 -70 22 -70 67c0 16 5 29 15 40c13 14 32 21 55 21h61c155 0 333 60 534 181zM602 221l36 24l3 -1c3 -77 62 -116 177 -116h27v-128h-31c-143 0 -215 55 -215 165c0 19 1 37 3 56z" />
    <glyph glyph-name="uniFEA2" unicode="&#x62d;" horiz-adv-x="939" arabic-form="final" 
d="M639 324l-1 3c-102 37 -195 56 -278 56c-55 0 -98 -17 -127 -50l20 -84l-28 -79l-11 -3l-58 158c4 55 26 99 67 132c39 32 89 48 150 48c76 0 185 -29 328 -87c53 -20 110 -31 171 -32l88 1l1 -2l-60 -101c-73 -7 -162 -29 -267 -66c-247 -94 -370 -205 -370 -333
c0 -101 48 -182 145 -242c93 -57 211 -86 354 -86c81 0 166 7 257 22l3 -10c-69 -57 -123 -96 -163 -119c-63 -12 -126 -18 -189 -18c-139 0 -253 33 -340 99c-95 72 -142 174 -142 307c0 116 44 219 132 310c82 86 188 145 318 176zM750 221l36 24l3 -1
c3 -77 62 -116 177 -116h51v-128h-55c-143 0 -215 55 -215 165c0 19 1 37 3 56z" />
    <glyph glyph-name="uniFEA7" unicode="&#x62e;" horiz-adv-x="935" arabic-form="initial" 
d="M195 749c33 43 60 77 81 102c39 -28 79 -64 120 -107c-23 -38 -51 -71 -83 -98c-27 25 -66 60 -118 103zM-70 128h61c155 0 333 60 534 181l1 4c-125 47 -230 70 -314 70c-55 0 -98 -17 -127 -50l12 -50l-30 -90h-10l-49 132c4 55 26 99 67 132c39 32 89 48 150 48
c76 0 185 -29 328 -87c49 -20 106 -31 171 -32l81 1l3 -2l-53 -105c-75 2 -132 -10 -173 -37l-167 -109c-137 -89 -282 -134 -433 -134h-52c-47 0 -70 22 -70 67c0 16 5 29 15 40c13 14 32 21 55 21z" />
    <glyph glyph-name="uniFEA8" unicode="&#x62e;" horiz-adv-x="915" arabic-form="medial" 
d="M195 749c33 43 60 77 81 102c39 -28 79 -64 120 -107c-23 -38 -51 -71 -83 -98c-27 25 -66 60 -118 103zM525 309l1 4c-125 47 -230 70 -314 70c-55 0 -98 -17 -127 -50l12 -50l-30 -90h-10l-49 132c4 55 26 99 67 132c39 32 89 48 150 48c74 0 183 -29 328 -86
c55 -22 112 -33 171 -33h87l2 -2l-62 -103c-72 0 -128 -13 -169 -38l-167 -109c-139 -89 -286 -134 -439 -134h-46c-47 0 -70 22 -70 67c0 16 5 29 15 40c13 14 32 21 55 21h61c155 0 333 60 534 181zM602 221l36 24l3 -1c3 -77 62 -116 177 -116h27v-128h-31
c-143 0 -215 55 -215 165c0 19 1 37 3 56z" />
    <glyph glyph-name="uniFEA6" unicode="&#x62e;" horiz-adv-x="939" arabic-form="final" 
d="M639 324l-1 3c-102 37 -195 56 -278 56c-55 0 -98 -17 -127 -50l20 -84l-28 -79l-11 -3l-58 158c4 55 26 99 67 132c39 32 89 48 150 48c76 0 185 -29 328 -87c53 -20 110 -31 171 -32l88 1l1 -2l-60 -101c-73 -7 -162 -29 -267 -66c-247 -94 -370 -205 -370 -333
c0 -101 48 -182 145 -242c93 -57 211 -86 354 -86c81 0 166 7 257 22l3 -10c-69 -57 -123 -96 -163 -119c-63 -12 -126 -18 -189 -18c-139 0 -253 33 -340 99c-95 72 -142 174 -142 307c0 116 44 219 132 310c82 86 188 145 318 176zM423 749c33 43 60 77 81 102
c39 -28 79 -64 120 -107c-23 -38 -51 -71 -83 -98c-27 25 -66 60 -118 103zM750 221l36 24l3 -1c3 -77 62 -116 177 -116h51v-128h-55c-143 0 -215 55 -215 165c0 19 1 37 3 56z" />
    <glyph glyph-name="uniFEAA" unicode="&#x62f;" horiz-adv-x="770" arabic-form="final" 
d="M865 128v-128h-19c-102 0 -170 54 -204 163h-5c-9 -40 -33 -72 -72 -96c-73 -45 -140 -67 -201 -67c-56 0 -99 16 -129 49c-30 32 -45 77 -45 136c0 25 1 49 3 74l39 3c4 -89 51 -134 141 -134c50 0 104 17 163 50c43 25 65 50 65 75c0 46 -28 170 -83 372
c33 51 57 85 71 103l6 -4c33 -126 64 -274 95 -445c9 -49 29 -86 58 -113c29 -25 62 -38 100 -38h17z" />
    <glyph glyph-name="uniFEAC" unicode="&#x630;" horiz-adv-x="770" arabic-form="final" 
d="M413 939c33 43 60 77 81 102c39 -28 79 -64 120 -107c-23 -38 -51 -71 -83 -98c-27 25 -66 60 -118 103zM865 128v-128h-19c-102 0 -170 54 -204 163h-5c-9 -40 -33 -72 -72 -96c-73 -45 -140 -67 -201 -67c-56 0 -99 16 -129 49c-30 32 -45 77 -45 136c0 25 1 49 3 74
l39 3c4 -89 51 -134 141 -134c50 0 104 17 163 50c43 25 65 50 65 75c0 46 -28 170 -83 372c33 51 57 85 71 103l6 -4c33 -126 64 -274 95 -445c9 -49 29 -86 58 -113c29 -25 62 -38 100 -38h17z" />
    <glyph glyph-name="uniFEAE" unicode="&#x631;" horiz-adv-x="656" arabic-form="final" 
d="M409 343l7 1c31 -75 61 -128 90 -159c36 -38 81 -57 135 -57h18v-128h-21c-44 0 -78 11 -101 32h-4l2 -35c0 -57 -13 -108 -40 -155c-75 -133 -154 -199 -239 -199c-69 0 -152 26 -250 78l15 34c30 -15 68 -22 115 -22c67 0 137 32 208 95s113 131 124 205
c-6 14 -15 29 -27 45c-31 44 -60 94 -87 149c13 31 32 70 55 116z" />
    <glyph glyph-name="uniFEB0" unicode="&#x632;" horiz-adv-x="656" arabic-form="final" 
d="M248 590c33 43 60 77 81 102c39 -28 79 -64 120 -107c-23 -38 -51 -71 -83 -98c-27 25 -66 60 -118 103zM409 343l7 1c31 -75 61 -128 90 -159c36 -38 81 -57 135 -57h18v-128h-21c-44 0 -78 11 -101 32h-4l2 -35c0 -57 -13 -108 -40 -155c-75 -133 -154 -199 -239 -199
c-69 0 -152 26 -250 78l15 34c30 -15 68 -22 115 -22c67 0 137 32 208 95s113 131 124 205c-6 14 -15 29 -27 45c-31 44 -60 94 -87 149c13 31 32 70 55 116z" />
    <glyph glyph-name="uniFEB3" unicode="&#x633;" horiz-adv-x="905" arabic-form="initial" 
d="M730 431l6 -3c11 -65 16 -124 16 -178c0 -44 -12 -90 -36 -137c-44 -73 -93 -110 -148 -110c-44 0 -86 28 -125 83h-8c-53 -57 -112 -86 -175 -86c-58 0 -90 28 -96 85h-4c-49 -57 -120 -85 -213 -85h-17c-47 0 -70 22 -70 67c0 16 5 29 15 40c13 14 32 21 55 21h34
c97 1 168 32 211 93l55 79l77 27l4 -5c-45 -73 -68 -121 -68 -144c0 -33 17 -50 52 -50c32 0 62 10 89 29c21 15 44 68 71 159l60 35l6 -4c-9 -34 -13 -67 -13 -98c0 -35 11 -64 34 -86c21 -19 44 -29 70 -29c35 0 53 15 53 45c0 35 -8 89 -25 162c28 33 58 63 90 90z" />
    <glyph glyph-name="uniFEB4" unicode="&#x633;" horiz-adv-x="1024" arabic-form="medial" 
d="M954 128v-128h-25c-109 0 -178 31 -206 94h-6c-53 -63 -110 -94 -171 -94c-59 0 -96 28 -109 83h-4c-51 -55 -109 -83 -173 -83c-58 0 -90 28 -96 85h-4c-49 -57 -120 -85 -213 -85h-17c-47 0 -70 22 -70 67c0 16 5 29 15 40c13 14 32 21 55 21h34c95 1 166 32 211 93
l50 78l77 27l4 -5c-43 -75 -65 -123 -65 -143c0 -33 18 -50 54 -50c32 0 61 10 87 30c27 19 48 49 65 88l24 59l76 35l4 -4c-27 -70 -41 -120 -41 -150c0 -15 4 -28 13 -39c11 -13 25 -19 43 -19c25 0 48 7 69 22c26 17 45 49 58 96l20 79l76 51l4 -3
c-17 -56 -25 -102 -25 -137c0 -72 55 -108 164 -108h22z" />
    <glyph glyph-name="uniFEB2" unicode="&#x633;" horiz-adv-x="1467" arabic-form="final" 
d="M861 0h-20c-11 -73 -23 -126 -38 -160c-25 -57 -70 -104 -135 -141c-63 -36 -130 -54 -201 -54c-95 0 -167 29 -218 88c-49 55 -73 128 -73 219c0 106 26 199 79 280l35 -18c-32 -72 -48 -134 -48 -187c0 -79 24 -139 73 -182c44 -40 101 -60 171 -60c75 0 144 24 207 71
c60 45 90 92 90 141c0 72 -34 160 -103 265c13 26 35 62 66 107h4c32 -61 59 -124 82 -191c14 -33 35 -50 64 -50c26 0 51 9 76 28c27 18 46 44 58 79l26 74l68 31l4 -5c-20 -63 -30 -111 -30 -146c0 -41 23 -61 69 -61c60 0 101 44 123 133l17 70l73 43l4 -5
c-16 -61 -24 -106 -24 -137c0 -69 58 -104 173 -104h22v-128h-25c-116 0 -188 31 -216 94h-6c-53 -63 -111 -94 -175 -94c-58 0 -94 28 -107 83h-6c-37 -55 -90 -83 -159 -83z" />
    <glyph glyph-name="uniFEB7" unicode="&#x634;" horiz-adv-x="905" arabic-form="initial" 
d="M522 802c-28 -40 -53 -71 -76 -92c-41 39 -80 74 -117 104c24 34 50 66 79 95c33 -27 71 -62 114 -107zM468 589c-28 -40 -53 -71 -76 -92c-41 39 -80 74 -117 104c24 34 50 66 79 95c33 -27 71 -62 114 -107zM661 602c-28 -40 -53 -71 -76 -92c-41 39 -80 74 -117 104
c24 34 50 66 79 95c33 -27 71 -62 114 -107zM730 431l6 -3c11 -65 16 -124 16 -178c0 -44 -12 -90 -36 -137c-44 -73 -93 -110 -148 -110c-44 0 -86 28 -125 83h-8c-53 -57 -112 -86 -175 -86c-58 0 -90 28 -96 85h-4c-49 -57 -120 -85 -213 -85h-17c-47 0 -70 22 -70 67
c0 16 5 29 15 40c13 14 32 21 55 21h34c97 1 168 32 211 93l55 79l77 27l4 -5c-45 -73 -68 -121 -68 -144c0 -33 17 -50 52 -50c32 0 62 10 89 29c21 15 44 68 71 159l60 35l6 -4c-9 -34 -13 -67 -13 -98c0 -35 11 -64 34 -86c21 -19 44 -29 70 -29c35 0 53 15 53 45
c0 35 -8 89 -25 162c28 33 58 63 90 90z" />
    <glyph glyph-name="uniFEB8" unicode="&#x634;" horiz-adv-x="1024" arabic-form="medial" 
d="M552 792c-28 -40 -53 -71 -76 -92c-41 39 -80 74 -117 104c24 34 50 66 79 95c33 -27 71 -62 114 -107zM498 579c-28 -40 -53 -71 -76 -92c-41 39 -80 74 -117 104c24 34 50 66 79 95c33 -27 71 -62 114 -107zM691 592c-28 -40 -53 -71 -76 -92c-41 39 -80 74 -117 104
c24 34 50 66 79 95c33 -27 71 -62 114 -107zM954 128v-128h-25c-109 0 -178 31 -206 94h-6c-53 -63 -110 -94 -171 -94c-59 0 -96 28 -109 83h-4c-51 -55 -109 -83 -173 -83c-58 0 -90 28 -96 85h-4c-49 -57 -120 -85 -213 -85h-17c-47 0 -70 22 -70 67c0 16 5 29 15 40
c13 14 32 21 55 21h34c95 1 166 32 211 93l50 78l77 27l4 -5c-43 -75 -65 -123 -65 -143c0 -33 18 -50 54 -50c32 0 61 10 87 30c27 19 48 49 65 88l24 59l76 35l4 -4c-27 -70 -41 -120 -41 -150c0 -15 4 -28 13 -39c11 -13 25 -19 43 -19c25 0 48 7 69 22
c26 17 45 49 58 96l20 79l76 51l4 -3c-17 -56 -25 -102 -25 -137c0 -72 55 -108 164 -108h22z" />
    <glyph glyph-name="uniFEB6" unicode="&#x634;" horiz-adv-x="1467" arabic-form="final" 
d="M1279 602c-28 -40 -53 -71 -76 -92c-41 39 -80 74 -117 104c24 34 50 66 79 95c33 -27 71 -62 114 -107zM1086 589c-28 -40 -53 -71 -76 -92c-41 39 -80 74 -117 104c24 34 50 66 79 95c33 -27 71 -62 114 -107zM1140 802c-28 -40 -53 -71 -76 -92
c-41 39 -80 74 -117 104c24 34 50 66 79 95c33 -27 71 -62 114 -107zM861 0h-20c-11 -73 -23 -126 -38 -160c-25 -57 -70 -104 -135 -141c-63 -36 -130 -54 -201 -54c-95 0 -167 29 -218 88c-49 55 -73 128 -73 219c0 106 26 199 79 280l35 -18c-32 -72 -48 -134 -48 -187
c0 -79 24 -139 73 -182c44 -40 101 -60 171 -60c75 0 144 24 207 71c60 45 90 92 90 141c0 72 -34 160 -103 265c13 26 35 62 66 107h4c32 -61 59 -124 82 -191c14 -33 35 -50 64 -50c26 0 51 9 76 28c27 18 46 44 58 79l26 74l68 31l4 -5c-20 -63 -30 -111 -30 -146
c0 -41 23 -61 69 -61c60 0 101 44 123 133l17 70l73 43l4 -5c-16 -61 -24 -106 -24 -137c0 -69 58 -104 173 -104h22v-128h-25c-116 0 -188 31 -216 94h-6c-53 -63 -111 -94 -175 -94c-58 0 -94 28 -107 83h-6c-37 -55 -90 -83 -159 -83z" />
    <glyph glyph-name="uniFEBB" unicode="&#x635;" horiz-adv-x="1066" arabic-form="initial" 
d="M-70 128h22c98 0 153 29 165 88c9 43 17 81 26 114c16 16 38 33 66 52l6 -6c-11 -37 -16 -68 -16 -94c0 -47 20 -84 60 -111c73 112 142 197 206 254c81 73 161 109 240 109c87 0 149 -37 186 -110c17 -33 25 -72 25 -117c0 -28 -6 -60 -19 -95
c-29 -85 -98 -145 -208 -181c-59 -21 -142 -31 -249 -31c-141 0 -237 35 -288 105h-3c-45 -70 -114 -105 -207 -105h-12c-47 0 -70 22 -70 67c0 16 5 29 15 40c13 14 32 21 55 21zM311 149c42 -14 104 -21 187 -21c95 0 181 19 260 57c55 26 82 50 82 72
c-7 43 -26 79 -57 108c-33 29 -72 44 -115 44c-119 0 -238 -87 -357 -260z" />
    <glyph glyph-name="uniFEBC" unicode="&#x635;" horiz-adv-x="1063" arabic-form="medial" 
d="M-70 128h22c98 0 153 29 165 88c9 43 17 81 26 114c16 16 38 33 66 52l6 -6c-11 -37 -16 -68 -16 -94c0 -49 18 -86 55 -111c73 111 142 195 207 252c79 69 153 103 224 103c69 0 124 -22 166 -67c40 -41 60 -92 60 -154c0 -50 -17 -109 -51 -177h133v-128h-26
c-99 0 -198 12 -299 35c-76 -23 -154 -35 -233 -35c-137 0 -231 35 -283 105h-3c-45 -70 -114 -105 -207 -105h-12c-47 0 -70 22 -70 67c0 16 5 29 15 40c13 14 32 21 55 21zM310 149c42 -14 103 -21 183 -21c101 0 187 15 260 45c55 22 82 47 82 75c-7 43 -28 78 -65 107
c-36 28 -77 42 -122 42c-104 0 -217 -83 -338 -248z" />
    <glyph glyph-name="uniFEBA" unicode="&#x635;" horiz-adv-x="1477" arabic-form="final" 
d="M828 171c71 110 140 194 207 251c79 69 154 104 224 104c69 0 124 -22 166 -67c40 -41 60 -92 60 -154c0 -50 -17 -109 -51 -177h133v-128h-38c-91 0 -186 12 -287 35c-76 -23 -154 -35 -233 -35c-62 0 -119 7 -171 22c-10 -63 -23 -115 -39 -154
c-25 -58 -68 -106 -131 -144c-61 -39 -127 -58 -197 -58c-93 0 -166 31 -218 93c-49 57 -73 131 -73 224c0 109 25 203 76 280l38 -18c-32 -72 -48 -134 -48 -187c0 -79 24 -141 73 -187c45 -43 102 -65 171 -65c58 0 115 20 171 60c53 37 89 80 110 127
c-10 118 -46 224 -108 318c17 32 41 68 74 107l8 -1c45 -71 72 -153 83 -246zM884 149c42 -14 103 -21 183 -21c101 0 187 15 260 45c55 22 82 47 82 75c-7 43 -28 78 -65 107c-36 28 -77 42 -122 42c-104 0 -217 -83 -338 -248z" />
    <glyph glyph-name="uniFEBF" unicode="&#x636;" horiz-adv-x="1066" arabic-form="initial" 
d="M455 774c33 43 60 77 81 102c39 -28 79 -64 120 -107c-23 -38 -51 -71 -83 -98c-27 25 -66 60 -118 103zM-70 128h22c98 0 153 29 165 88c9 43 17 81 26 114c16 16 38 33 66 52l6 -6c-11 -37 -16 -68 -16 -94c0 -47 20 -84 60 -111c73 112 142 197 206 254
c81 73 161 109 240 109c87 0 149 -37 186 -110c17 -33 25 -72 25 -117c0 -28 -6 -60 -19 -95c-29 -85 -98 -145 -208 -181c-59 -21 -142 -31 -249 -31c-141 0 -237 35 -288 105h-3c-45 -70 -114 -105 -207 -105h-12c-47 0 -70 22 -70 67c0 16 5 29 15 40c13 14 32 21 55 21z
M311 149c42 -14 104 -21 187 -21c95 0 181 19 260 57c55 26 82 50 82 72c-7 43 -26 79 -57 108c-33 29 -72 44 -115 44c-119 0 -238 -87 -357 -260z" />
    <glyph glyph-name="uniFEC0" unicode="&#x636;" horiz-adv-x="1063" arabic-form="medial" 
d="M455 769c33 43 60 77 81 102c39 -28 79 -64 120 -107c-23 -38 -51 -71 -83 -98c-27 25 -66 60 -118 103zM-70 128h22c98 0 153 29 165 88c9 43 17 81 26 114c16 16 38 33 66 52l6 -6c-11 -37 -16 -68 -16 -94c0 -49 18 -86 55 -111c73 111 142 195 207 252
c79 69 153 103 224 103c69 0 124 -22 166 -67c40 -41 60 -92 60 -154c0 -50 -17 -109 -51 -177h133v-128h-26c-99 0 -198 12 -299 35c-76 -23 -154 -35 -233 -35c-137 0 -231 35 -283 105h-3c-45 -70 -114 -105 -207 -105h-12c-47 0 -70 22 -70 67c0 16 5 29 15 40
c13 14 32 21 55 21zM310 149c42 -14 103 -21 183 -21c101 0 187 15 260 45c55 22 82 47 82 75c-7 43 -28 78 -65 107c-36 28 -77 42 -122 42c-104 0 -217 -83 -338 -248z" />
    <glyph glyph-name="uniFEBE" unicode="&#x636;" horiz-adv-x="1477" arabic-form="final" 
d="M949 769c33 43 60 77 81 102c39 -28 79 -64 120 -107c-23 -38 -51 -71 -83 -98c-27 25 -66 60 -118 103zM828 171c71 110 140 194 207 251c79 69 154 104 224 104c69 0 124 -22 166 -67c40 -41 60 -92 60 -154c0 -50 -17 -109 -51 -177h133v-128h-38
c-91 0 -186 12 -287 35c-76 -23 -154 -35 -233 -35c-62 0 -119 7 -171 22c-10 -63 -23 -115 -39 -154c-25 -58 -68 -106 -131 -144c-61 -39 -127 -58 -197 -58c-93 0 -166 31 -218 93c-49 57 -73 131 -73 224c0 109 25 203 76 280l38 -18c-32 -72 -48 -134 -48 -187
c0 -79 24 -141 73 -187c45 -43 102 -65 171 -65c58 0 115 20 171 60c53 37 89 80 110 127c-10 118 -46 224 -108 318c17 32 41 68 74 107l8 -1c45 -71 72 -153 83 -246zM884 149c42 -14 103 -21 183 -21c101 0 187 15 260 45c55 22 82 47 82 75c-7 43 -28 78 -65 107
c-36 28 -77 42 -122 42c-104 0 -217 -83 -338 -248z" />
    <glyph glyph-name="uniFEC3" unicode="&#x637;" horiz-adv-x="925" arabic-form="initial" 
d="M-70 128h92l54 91c10 39 15 106 15 199c0 137 -8 290 -25 459c-4 41 -6 74 -6 98c0 38 26 76 78 115l7 -7c0 -57 28 -130 85 -219l-65 -51c6 -129 9 -237 9 -324c0 -77 -12 -143 -35 -200h4c81 82 154 144 220 187c64 40 127 60 188 60c60 0 110 -19 149 -56
c50 -47 75 -106 75 -177c0 -17 -8 -52 -23 -106c-38 -131 -237 -197 -597 -197h-225c-47 0 -70 22 -70 67c0 16 5 29 15 40c13 14 32 21 55 21zM91 128h88c207 0 361 25 461 75c26 13 46 28 60 46c-1 37 -20 72 -55 104c-39 33 -85 50 -137 50c-123 0 -262 -92 -417 -275z
" />
    <glyph glyph-name="uniFEC4" unicode="&#x637;" horiz-adv-x="940" arabic-form="medial" 
d="M-70 128h70l76 91c10 39 15 106 15 199c0 137 -8 290 -25 459c-4 41 -6 74 -6 98c0 38 26 76 78 115l7 -7c0 -56 28 -129 85 -220l-65 -50c6 -129 9 -237 9 -324c0 -77 -12 -143 -35 -200h4c79 85 149 146 212 183c59 37 121 55 186 55c64 0 119 -23 166 -70
c49 -49 73 -107 73 -176c0 -40 -17 -89 -52 -148c23 -3 58 -5 103 -5h39v-128h-24c-111 0 -219 11 -324 32c-119 -21 -292 -32 -521 -32h-71c-47 0 -70 22 -70 67c0 16 5 29 15 40c13 14 32 21 55 21zM86 128h93c308 0 480 31 517 93c0 43 -20 82 -61 117
c-43 35 -92 53 -147 53c-105 0 -239 -88 -402 -263z" />
    <glyph glyph-name="uniFEC2" unicode="&#x637;" horiz-adv-x="1179" arabic-form="final" 
d="M381 128l54 91c10 39 15 106 15 199c0 135 -8 288 -25 459c-4 41 -6 74 -6 98c0 38 26 76 78 115l7 -7c0 -56 28 -129 85 -220l-65 -50c6 -129 9 -237 9 -324c0 -77 -12 -143 -35 -200h4c79 85 149 146 212 183c59 37 121 55 186 55c64 0 119 -23 166 -70
c49 -49 73 -107 73 -176c0 -40 -17 -89 -52 -148c23 -3 58 -5 103 -5h39v-128h-24c-111 0 -219 11 -324 32c-111 -21 -240 -32 -389 -32c-48 0 -85 1 -111 4l-86 -121l-8 8c9 55 20 95 34 120l-76 9c-57 45 -106 89 -145 130l4 12c94 -19 186 -31 277 -34zM445 128h93
c308 0 480 31 517 93c0 43 -20 82 -61 117c-43 35 -92 53 -147 53c-105 0 -239 -88 -402 -263z" />
    <glyph glyph-name="uniFEC7" unicode="&#x638;" horiz-adv-x="925" arabic-form="initial" 
d="M355 774c33 43 60 77 81 102c39 -28 79 -64 120 -107c-23 -38 -51 -71 -83 -98c-27 25 -66 60 -118 103zM-70 128h92l54 91c10 39 15 106 15 199c0 137 -8 290 -25 459c-4 41 -6 74 -6 98c0 38 26 76 78 115l7 -7c0 -56 28 -129 85 -220l-65 -50c6 -129 9 -237 9 -324
c0 -77 -12 -143 -35 -200h4c81 82 154 144 220 187c64 40 127 60 188 60c60 0 110 -19 149 -56c50 -47 75 -106 75 -177c0 -17 -8 -52 -23 -106c-38 -131 -237 -197 -597 -197h-225c-47 0 -70 22 -70 67c0 16 5 29 15 40c13 14 32 21 55 21zM91 128h88c207 0 361 25 461 75
c26 13 46 28 60 46c-1 37 -20 72 -55 104c-39 33 -85 50 -137 50c-123 0 -262 -92 -417 -275z" />
    <glyph glyph-name="uniFEC8" unicode="&#x638;" horiz-adv-x="940" arabic-form="medial" 
d="M355 769c33 43 60 77 81 102c39 -28 79 -64 120 -107c-23 -38 -51 -71 -83 -98c-27 25 -66 60 -118 103zM-70 128h70l76 91c10 39 15 106 15 199c0 137 -8 290 -25 459c-4 41 -6 74 -6 98c0 38 26 76 78 115l7 -7c0 -56 28 -129 85 -220l-65 -50c6 -129 9 -237 9 -324
c0 -77 -12 -143 -35 -200h4c79 85 149 146 212 183c59 37 121 55 186 55c64 0 119 -23 166 -70c49 -49 73 -107 73 -176c0 -40 -17 -89 -52 -148c23 -3 58 -5 103 -5h39v-128h-24c-111 0 -219 11 -324 32c-119 -21 -292 -32 -521 -32h-71c-47 0 -70 22 -70 67
c0 16 5 29 15 40c13 14 32 21 55 21zM86 128h93c308 0 480 31 517 93c0 43 -20 82 -61 117c-43 35 -92 53 -147 53c-105 0 -239 -88 -402 -263z" />
    <glyph glyph-name="uniFEC6" unicode="&#x638;" horiz-adv-x="1179" arabic-form="final" 
d="M704 769c33 43 60 77 81 102c39 -28 79 -64 120 -107c-23 -38 -51 -71 -83 -98c-27 25 -66 60 -118 103zM381 128l54 91c10 39 15 106 15 199c0 135 -8 288 -25 459c-4 41 -6 74 -6 98c0 38 26 76 78 115l7 -7c0 -56 28 -129 85 -220l-65 -50c6 -129 9 -237 9 -324
c0 -77 -12 -143 -35 -200h4c79 85 149 146 212 183c59 37 121 55 186 55c64 0 119 -23 166 -70c49 -49 73 -107 73 -176c0 -40 -17 -89 -52 -148c23 -3 58 -5 103 -5h39v-128h-24c-111 0 -219 11 -324 32c-111 -21 -240 -32 -389 -32c-48 0 -85 1 -111 4l-86 -121l-8 8
c9 55 20 95 34 120l-76 9c-57 45 -106 89 -145 130l4 12c94 -19 186 -31 277 -34zM445 128h93c308 0 480 31 517 93c0 43 -20 82 -61 117c-43 35 -92 53 -147 53c-105 0 -239 -88 -402 -263z" />
    <glyph glyph-name="uniFECB" unicode="&#x639;" horiz-adv-x="733" arabic-form="initial" 
d="M-70 128h63c49 0 98 7 148 21v5c-78 51 -117 117 -117 196c0 40 14 84 43 131c54 89 123 134 207 134c93 0 167 -54 222 -163l-19 -20c-49 43 -109 64 -179 64c-50 0 -94 -10 -131 -29c-35 -17 -52 -35 -52 -55c0 -49 29 -97 86 -142c47 -36 88 -54 121 -54
c49 0 144 24 286 71l5 -5l-53 -124c-54 -19 -118 -39 -191 -58c-82 -21 -137 -37 -164 -46c-111 -36 -192 -54 -244 -54h-31c-47 0 -70 22 -70 67c0 16 5 29 15 40c13 14 32 21 55 21z" />
    <glyph glyph-name="uniFECC" unicode="&#x639;" horiz-adv-x="748" arabic-form="medial" 
d="M-70 128h42c99 0 186 17 262 50v4c2 -1 -45 42 -140 129c-31 28 -54 42 -69 42h-31l-3 2l39 115l31 4c101 22 191 33 268 33c113 0 210 -17 290 -50l-35 -109l-174 -161v-4c67 -37 143 -55 228 -55h40v-128h-30c-121 0 -232 39 -333 117h-4c-108 -78 -225 -117 -350 -117
h-31c-47 0 -70 22 -70 67c0 16 5 29 15 40c13 14 32 21 55 21zM331 226h4c70 50 131 100 184 149v4c-69 17 -131 25 -186 25c-58 0 -120 -6 -185 -18v-4c5 -4 14 -13 28 -27c17 -17 28 -27 31 -30c31 -29 72 -62 124 -99z" />
    <glyph glyph-name="uniFECA" unicode="&#x639;" horiz-adv-x="842" arabic-form="final" 
d="M529 128h-6c-197 -99 -295 -197 -295 -294c0 -84 42 -152 126 -204c85 -53 195 -79 331 -79c94 0 179 10 255 29l7 -18c-67 -49 -123 -87 -168 -112c-35 -19 -92 -29 -171 -29c-130 0 -235 30 -315 90c-89 66 -133 160 -133 283c0 153 93 288 279 404
c-24 24 -64 63 -119 117c-35 33 -57 49 -68 49c-9 0 -25 -4 -49 -12l-6 9l43 109l47 8c101 22 191 33 268 33c119 0 214 -15 286 -46l-24 -113l-193 -166v-4c67 -36 147 -54 240 -54h58v-129h-47c-119 0 -235 43 -346 129zM536 236l4 -1c103 66 172 115 205 146v6
c-73 15 -136 23 -191 23c-65 0 -129 -7 -192 -20v-5z" />
    <glyph glyph-name="uniFECF" unicode="&#x63a;" horiz-adv-x="733" arabic-form="initial" 
d="M87 829c33 43 60 77 81 102c39 -28 79 -64 120 -107c-23 -38 -51 -71 -83 -98c-27 25 -66 60 -118 103zM-70 128h63c49 0 98 7 148 21v5c-78 51 -117 117 -117 196c0 40 14 84 43 131c54 89 123 134 207 134c93 0 167 -54 222 -163l-19 -20c-49 43 -109 64 -179 64
c-50 0 -94 -10 -131 -29c-35 -17 -52 -35 -52 -55c0 -49 29 -97 86 -142c47 -36 88 -54 121 -54c49 0 144 24 286 71l5 -5l-53 -124c-54 -19 -118 -39 -191 -58c-82 -21 -137 -37 -164 -46c-111 -36 -192 -54 -244 -54h-31c-47 0 -70 22 -70 67c0 16 5 29 15 40
c13 14 32 21 55 21z" />
    <glyph glyph-name="uniFED0" unicode="&#x63a;" horiz-adv-x="748" arabic-form="medial" 
d="M-70 128h42c99 0 186 17 262 50v4c2 -1 -45 42 -140 129c-31 28 -54 42 -69 42h-31l-3 2l39 115l31 4c101 22 191 33 268 33c113 0 210 -17 290 -50l-35 -109l-174 -161v-4c67 -37 143 -55 228 -55h40v-128h-30c-121 0 -232 39 -333 117h-4c-108 -78 -225 -117 -350 -117
h-31c-47 0 -70 22 -70 67c0 16 5 29 15 40c13 14 32 21 55 21zM331 226h4c70 50 131 100 184 149v4c-69 17 -131 25 -186 25c-58 0 -120 -6 -185 -18v-4c5 -4 14 -13 28 -27c17 -17 28 -27 31 -30c31 -29 72 -62 124 -99zM195 779c33 43 60 77 81 102
c39 -28 79 -64 120 -107c-23 -38 -51 -71 -83 -98c-27 25 -66 60 -118 103z" />
    <glyph glyph-name="uniFECE" unicode="&#x63a;" horiz-adv-x="842" arabic-form="final" 
d="M529 128h-6c-197 -99 -295 -197 -295 -294c0 -84 42 -152 126 -204c85 -53 195 -79 331 -79c94 0 179 10 255 29l7 -18c-67 -49 -123 -87 -168 -112c-35 -19 -92 -29 -171 -29c-130 0 -235 30 -315 90c-89 66 -133 160 -133 283c0 153 93 288 279 404
c-24 24 -64 63 -119 117c-35 33 -57 49 -68 49c-9 0 -25 -4 -49 -12l-6 9l43 109l47 8c101 22 191 33 268 33c119 0 214 -15 286 -46l-24 -113l-193 -166v-4c67 -36 147 -54 240 -54h58v-129h-47c-119 0 -235 43 -346 129zM536 236l4 -1c103 66 172 115 205 146v6
c-73 15 -136 23 -191 23c-65 0 -129 -7 -192 -20v-5zM415 779c33 43 60 77 81 102c39 -28 79 -64 120 -107c-23 -38 -51 -71 -83 -98c-27 25 -66 60 -118 103z" />
    <glyph glyph-name="uniFED3" unicode="&#x641;" horiz-adv-x="574" arabic-form="initial" 
d="M-70 128h84c99 0 172 7 218 20c33 9 60 22 83 39c23 16 35 31 35 44c0 8 -1 15 -2 22c-21 -3 -59 -4 -113 -4c-127 0 -207 36 -240 108c-10 23 -15 47 -15 72c0 79 25 145 75 197c43 45 86 67 129 67c79 0 142 -66 191 -198c28 -74 42 -153 42 -238
c0 -67 -16 -119 -49 -158c-58 -66 -177 -99 -357 -99h-81c-47 0 -70 22 -70 67c0 16 5 29 15 40c13 14 32 21 55 21zM332 368c-11 51 -32 96 -62 133c-33 41 -69 61 -108 61c-31 0 -60 -10 -85 -30c-23 -19 -35 -39 -35 -59c0 -71 97 -106 290 -105zM60 909
c33 43 60 77 81 102c39 -28 79 -64 120 -107c-23 -38 -51 -71 -83 -98c-27 25 -66 60 -118 103z" />
    <glyph glyph-name="uniFED4" unicode="&#x641;" horiz-adv-x="660" arabic-form="medial" 
d="M-70 128h17c37 0 90 8 161 24c-23 39 -35 90 -35 152c0 94 30 172 90 235c57 62 108 93 151 93c39 0 78 -37 117 -111c25 -49 38 -97 38 -142c0 -79 -22 -156 -67 -233c41 -12 93 -18 156 -18h32v-128h-29c-98 0 -207 21 -327 64c-120 -43 -215 -64 -286 -64h-18
c-47 0 -70 22 -70 67c0 16 5 29 15 40c13 14 32 21 55 21zM256 184c35 7 70 23 105 50s53 51 53 70c0 28 -8 58 -24 90c-31 60 -64 90 -99 90c-37 0 -73 -19 -108 -56c-33 -33 -54 -70 -64 -111c16 -65 62 -110 137 -133zM175 869c33 43 60 77 81 102
c39 -28 79 -64 120 -107c-23 -38 -51 -71 -83 -98c-27 25 -66 60 -118 103z" />
    <glyph glyph-name="uniFED2" unicode="&#x641;" horiz-adv-x="1462" arabic-form="final" 
d="M1234 54c-169 -63 -350 -95 -544 -95c-147 0 -262 26 -343 77c-98 63 -147 154 -147 271c0 87 20 167 59 242l40 -17c-19 -59 -29 -110 -29 -152c0 -94 44 -168 132 -221c71 -43 177 -64 318 -64c123 0 245 15 368 44l-8 13c-23 39 -35 90 -35 152c0 94 30 172 90 235
c59 62 110 93 151 93c40 0 79 -37 117 -111c25 -49 38 -97 38 -142c0 -79 -22 -156 -67 -233c41 -12 93 -18 156 -18h32v-128h-29c-98 0 -198 18 -299 54zM1234 178c35 9 69 27 102 54s50 51 50 72c0 28 -8 58 -24 90c-31 60 -64 90 -99 90c-37 0 -73 -19 -108 -56
c-33 -33 -54 -70 -64 -111c17 -69 64 -115 143 -139zM1124 875c33 43 60 77 81 102c39 -28 79 -64 120 -107c-23 -38 -51 -71 -83 -98c-27 25 -66 60 -118 103z" />
    <glyph glyph-name="uniFED7" unicode="&#x642;" horiz-adv-x="574" arabic-form="initial" 
d="M316 892c-28 -40 -53 -71 -76 -92c-41 39 -80 74 -117 104c24 34 50 66 79 95c33 -27 71 -62 114 -107zM123 879c-28 -40 -53 -71 -76 -92c-41 39 -80 74 -117 104c24 34 50 66 79 95c33 -27 71 -62 114 -107zM-70 128h84c99 0 172 7 218 20c33 9 60 22 83 39
c23 16 35 31 35 44c0 8 -1 15 -2 22c-21 -3 -59 -4 -113 -4c-127 0 -207 36 -240 108c-10 23 -15 47 -15 72c0 79 25 145 75 197c43 45 86 67 129 67c79 0 142 -66 191 -198c28 -74 42 -153 42 -238c0 -67 -16 -119 -49 -158c-58 -66 -177 -99 -357 -99h-81
c-47 0 -70 22 -70 67c0 16 5 29 15 40c13 14 32 21 55 21zM332 368c-11 51 -32 96 -62 133c-33 41 -69 61 -108 61c-31 0 -60 -10 -85 -30c-23 -19 -35 -39 -35 -59c0 -71 97 -106 290 -105z" />
    <glyph glyph-name="uniFED8" unicode="&#x642;" horiz-adv-x="660" arabic-form="medial" 
d="M451 852c-28 -40 -53 -71 -76 -92c-41 39 -80 74 -117 104c24 34 50 66 79 95c33 -27 71 -62 114 -107zM258 839c-28 -40 -53 -71 -76 -92c-41 39 -80 74 -117 104c24 34 50 66 79 95c33 -27 71 -62 114 -107zM-70 128h17c37 0 90 8 161 24c-23 39 -35 90 -35 152
c0 94 30 172 90 235c57 62 108 93 151 93c39 0 78 -37 117 -111c25 -49 38 -97 38 -142c0 -79 -22 -156 -67 -233c41 -12 93 -18 156 -18h32v-128h-29c-98 0 -207 21 -327 64c-120 -43 -215 -64 -286 -64h-18c-47 0 -70 22 -70 67c0 16 5 29 15 40c13 14 32 21 55 21z
M256 184c35 7 70 23 105 50s53 51 53 70c0 28 -8 58 -24 90c-31 60 -64 90 -99 90c-37 0 -73 -19 -108 -56c-33 -33 -54 -70 -64 -111c16 -65 62 -110 137 -133z" />
    <glyph glyph-name="uniFED6" unicode="&#x642;" horiz-adv-x="1050" arabic-form="final" 
d="M1138 0h-74c0 -42 -5 -83 -16 -124c-9 -37 -34 -73 -74 -109c-126 -112 -266 -168 -419 -168c-104 0 -192 33 -263 98c-77 70 -116 163 -116 280c0 104 20 198 61 282l42 -11c-23 -66 -34 -121 -34 -166c0 -104 29 -187 88 -248c57 -61 132 -91 225 -91
c109 0 216 32 321 96c81 57 122 98 122 121c0 15 -3 28 -8 40h-56c-206 0 -309 68 -309 205c0 59 17 113 51 161c44 64 95 96 154 96c47 0 91 -30 132 -90c43 -64 70 -145 83 -244h90v-128zM980 128c-11 59 -34 107 -70 146c-33 37 -69 56 -106 56c-27 0 -52 -10 -77 -29
c-24 -19 -36 -38 -36 -59c0 -45 36 -78 109 -99c37 -10 97 -15 180 -15zM971 692c-28 -40 -53 -71 -76 -92c-41 39 -80 74 -117 104c24 34 50 66 79 95c33 -27 71 -62 114 -107zM778 679c-28 -40 -53 -71 -76 -92c-41 39 -80 74 -117 104c24 34 50 66 79 95
c33 -27 71 -62 114 -107z" />
    <glyph glyph-name="uniFEDB" unicode="&#x643;" horiz-adv-x="641" arabic-form="initial" 
d="M545 1084l7 -8c-17 -33 -42 -74 -75 -123c-44 -11 -98 -27 -161 -49c-108 -38 -218 -82 -329 -131v-3l163 -63l-24 -50c171 -139 257 -258 257 -357c0 -95 -21 -164 -64 -207c-70 -62 -186 -93 -349 -93h-40c-47 0 -70 22 -70 67c0 16 5 29 15 40c13 14 32 21 55 21h63
c123 0 212 17 267 52c37 23 55 41 55 54c0 37 -23 87 -69 150c-57 77 -157 171 -301 283c-24 18 -36 49 -36 92c0 16 8 37 23 64c13 21 38 42 75 61c89 45 268 112 538 200z" />
    <glyph glyph-name="uniFEDC" unicode="&#x643;" horiz-adv-x="770" arabic-form="medial" 
d="M700 128v-128h-20c-57 0 -106 15 -149 46c-34 24 -71 63 -110 116c-47 61 -76 98 -88 111h-4c-1 -182 -125 -273 -372 -273h-27c-47 0 -70 22 -70 67c0 16 5 29 15 40c13 14 32 21 55 21h40c105 0 185 19 242 58c33 21 49 37 49 49c0 15 -7 38 -20 68
c-33 71 -115 173 -247 304c-30 31 -51 53 -63 68c-5 25 -7 44 -7 55c0 25 9 54 27 86c7 14 19 26 36 37c84 54 289 132 615 234l4 -6c-19 -40 -45 -81 -77 -123c-49 -12 -126 -37 -229 -74c-146 -55 -247 -97 -303 -127v-3c38 -23 89 -49 154 -78l-30 -50
c90 -81 213 -213 369 -396c58 -68 122 -102 193 -102h17z" />
    <glyph glyph-name="uniFEDA" unicode="&#x643;" horiz-adv-x="1405" arabic-form="final" 
d="M1505 128v-128h-20c-57 0 -106 15 -149 46c-34 24 -71 63 -110 116c-47 61 -76 98 -88 111h-5c-17 -84 -43 -141 -79 -170c-103 -76 -252 -114 -448 -114c-271 0 -406 107 -406 322c0 59 12 118 35 178l40 -13c-10 -34 -15 -69 -15 -105c0 -80 31 -141 94 -184
s155 -65 274 -65c207 0 352 41 435 122c0 13 -6 33 -17 59c-33 71 -115 173 -247 304c-30 31 -51 53 -63 68c-5 25 -7 44 -7 55c0 25 9 54 27 86c7 14 19 26 36 37c84 54 289 132 615 234l4 -6c-19 -40 -45 -81 -77 -123c-49 -12 -126 -37 -229 -74
c-146 -55 -247 -97 -303 -127v-3c38 -23 89 -49 154 -78l-30 -50c90 -81 213 -213 369 -396c58 -68 122 -102 193 -102h17z" />
    <glyph glyph-name="uniFEDF" unicode="&#x644;" horiz-adv-x="384" arabic-form="initial" 
d="M-70 128h22c42 0 79 9 112 27c35 20 53 56 53 108c-2 140 -12 313 -29 519c-7 73 -10 115 -10 125c0 23 10 45 30 67c17 20 35 38 55 55l7 -5c-2 -60 25 -136 81 -229c-18 -17 -39 -34 -63 -51l8 -175c3 -79 5 -136 5 -172c0 -113 -13 -197 -40 -251
c-25 -59 -56 -98 -91 -116c-39 -20 -80 -30 -125 -30h-15c-47 0 -70 22 -70 67c0 16 5 29 15 40c13 14 32 21 55 21z" />
    <glyph glyph-name="uniFEE0" unicode="&#x644;" horiz-adv-x="430" arabic-form="medial" 
d="M-70 128h20c40 0 79 10 116 31c32 18 48 58 48 120c0 136 -9 340 -26 611l-3 50l89 90l5 -2c13 -169 20 -431 20 -786c0 -29 10 -53 31 -74c26 -27 65 -40 117 -40h13v-128h-21c-99 0 -164 35 -195 106h-4c-39 -71 -103 -106 -193 -106h-17c-47 0 -70 22 -70 67
c0 16 5 29 15 40c13 14 32 21 55 21z" />
    <glyph glyph-name="uniFEDE" unicode="&#x644;" horiz-adv-x="907" arabic-form="final" 
d="M816 992l8 -5c9 -299 14 -533 14 -703c0 -58 17 -101 50 -128c23 -18 55 -27 98 -28h11v-128h-19c-73 0 -126 25 -157 75h-4c-9 -64 -21 -114 -35 -149c-27 -44 -65 -82 -115 -113c-63 -41 -133 -62 -208 -62c-89 0 -158 29 -208 86c-47 55 -71 131 -71 226
c0 75 22 159 67 252l36 -14c-28 -64 -42 -122 -42 -174c0 -59 17 -111 51 -155c41 -54 99 -81 173 -81c59 0 116 16 173 47c54 29 90 61 109 95c5 24 7 46 7 66c0 182 -10 450 -30 805c35 39 66 68 92 88z" />
    <glyph glyph-name="uniFEE3" unicode="&#x645;" horiz-adv-x="674" arabic-form="initial" 
d="M-70 128h22c78 0 134 59 168 177c11 39 36 80 74 121c41 39 83 58 126 58c58 0 106 -35 145 -106c34 -61 56 -140 65 -237c-20 -86 -55 -129 -106 -129c-91 0 -190 39 -297 118h-7c-25 -87 -82 -130 -173 -130h-17c-47 0 -70 22 -70 67c0 16 5 29 15 40
c13 14 32 21 55 21zM161 270c27 -40 74 -74 141 -102c47 -19 86 -29 119 -29c18 0 29 4 32 11c-14 71 -36 127 -66 166c-27 35 -57 52 -92 52c-60 0 -105 -33 -134 -98z" />
    <glyph glyph-name="uniFEE4" unicode="&#x645;" horiz-adv-x="776" arabic-form="medial" 
d="M-70 128h29c49 0 86 13 113 38c20 20 39 56 56 109c19 60 46 107 82 142c33 32 68 48 103 48c49 0 89 -22 120 -67c21 -31 55 -93 100 -188c25 -55 77 -82 156 -82h17v-128h-19c-65 0 -117 29 -154 87h-4c-7 -35 -18 -60 -32 -76c-21 -22 -43 -33 -66 -33
c-39 -1 -85 12 -140 37c-55 26 -102 60 -143 103h-4c-35 -79 -101 -118 -199 -118h-15c-47 0 -70 22 -70 67c0 16 5 29 15 40c13 14 32 21 55 21zM178 259c10 -37 49 -75 118 -114c51 -29 97 -44 138 -44c25 0 37 8 37 25c0 37 -17 82 -50 133c-39 60 -81 90 -128 90
c-55 0 -94 -30 -115 -90z" />
    <glyph glyph-name="uniFEE2" unicode="&#x645;" horiz-adv-x="847" arabic-form="final" 
d="M477 498h9c49 -39 102 -89 157 -150c20 -22 41 -48 64 -79l58 -78c32 -42 81 -63 146 -63h16v-128h-20c-68 0 -124 31 -168 93l-6 -2c-4 -40 -18 -75 -43 -104c-25 -31 -54 -47 -85 -47c-69 0 -128 30 -178 91s-75 134 -76 219c-78 -61 -117 -113 -117 -156
s16 -116 49 -218c71 -219 106 -347 106 -384c0 -39 -7 -88 -21 -147h-12c-18 83 -55 200 -111 353c-57 154 -85 261 -85 321c0 35 6 75 18 122c17 71 51 129 101 172c103 92 169 154 198 185zM474 360c-39 -39 -59 -64 -59 -74c0 -63 25 -117 76 -162c37 -33 78 -49 123 -49
c17 0 33 4 46 11s19 15 19 26c0 21 -12 47 -35 78c-46 61 -103 117 -170 170z" />
    <glyph glyph-name="uniFEE7" unicode="&#x646;" horiz-adv-x="433" arabic-form="initial" 
d="M-70 128h17c97 0 163 6 197 19c38 14 57 29 57 44c0 34 -33 116 -100 247c25 45 50 83 75 113h5c67 -117 100 -218 100 -305c0 -63 -23 -125 -70 -186c-40 -40 -130 -60 -269 -60h-12c-47 0 -70 22 -70 67c0 16 5 29 15 40c13 14 32 21 55 21zM5 770c33 43 60 77 81 102
c39 -28 79 -64 120 -107c-23 -38 -51 -71 -83 -98c-27 25 -66 60 -118 103z" />
    <glyph glyph-name="uniFEE8" unicode="&#x646;" horiz-adv-x="451" arabic-form="medial" 
d="M45 630c33 43 60 77 81 102c39 -28 79 -64 120 -107c-23 -38 -51 -71 -83 -98c-27 25 -66 60 -118 103zM-70 128h22c40 0 76 8 109 23c35 16 56 38 63 65l29 108l69 50l6 -7c-15 -52 -22 -91 -22 -116c0 -38 11 -66 33 -83c33 -27 74 -40 124 -40h18v-128h-23
c-106 0 -175 34 -206 102h-4c-35 -68 -101 -102 -199 -102h-19c-47 0 -70 22 -70 67c0 16 5 29 15 40c13 14 32 21 55 21z" />
    <glyph glyph-name="uniFEE6" unicode="&#x646;" horiz-adv-x="965" arabic-form="final" 
d="M772 422h8c32 -63 59 -127 81 -192c13 -41 34 -69 65 -84c24 -12 62 -18 115 -18h14v-128h-21c-58 0 -106 15 -143 45h-3c-5 -105 -25 -182 -62 -231c-35 -45 -85 -83 -151 -115c-67 -31 -129 -47 -188 -47c-93 0 -168 28 -224 85c-55 55 -83 128 -83 218
c0 99 29 196 86 291l38 -21c-37 -71 -56 -133 -56 -187c0 -76 22 -134 67 -174c47 -45 110 -67 189 -67c87 0 167 29 242 87c49 37 73 71 73 103c0 42 -12 97 -36 166c-31 71 -57 125 -79 163c23 42 46 77 68 106zM461 625c33 43 60 77 81 102c39 -28 79 -64 120 -107
c-23 -38 -51 -71 -83 -98c-27 25 -66 60 -118 103z" />
    <glyph glyph-name="_1210" unicode="&#x647;" horiz-adv-x="764" arabic-form="final" 
d="M106 -66l-16 10c23 43 48 83 77 120c19 25 60 43 121 52c27 121 45 196 54 225c27 98 65 184 114 257l9 3c5 -13 18 -33 37 -60c87 -125 131 -218 131 -281c0 -49 -6 -93 -19 -132h195v-128h-26c-35 0 -63 3 -84 10l-5 -2c27 -45 41 -90 41 -135s-11 -85 -32 -120
c-37 -63 -87 -94 -150 -94c-54 0 -101 13 -142 40c-41 26 -74 63 -99 111c-25 45 -37 94 -37 146v40c-82 -10 -138 -31 -169 -62zM334 3c3 -47 24 -94 63 -139c57 -67 120 -100 191 -100c39 0 58 16 58 49c0 43 -13 83 -39 120c-37 52 -90 78 -160 78c-31 0 -69 -3 -113 -8z
M344 121c79 7 132 14 157 21c44 12 66 29 66 51c0 45 -41 126 -124 241h-5c-33 -97 -65 -202 -94 -313z" />
    <glyph glyph-name="uniFEE9" unicode="&#x647;" horiz-adv-x="664" arabic-form="isolated" 
d="M371 659l14 5c13 -12 35 -30 66 -53c39 -30 68 -53 87 -69c74 -63 118 -118 131 -164c10 -33 15 -70 15 -112c0 -81 -18 -143 -54 -186c-57 -61 -126 -92 -207 -92c-50 0 -90 10 -120 30c-69 44 -103 118 -103 222c0 57 20 121 61 192c23 41 56 84 99 127
c0 15 4 49 11 100zM414 480c-101 -81 -152 -156 -152 -224c0 -36 17 -68 51 -95c33 -27 72 -40 116 -40c54 0 106 18 156 54c29 21 44 43 44 66c0 28 -18 64 -54 109s-90 89 -161 130z" />
    <glyph glyph-name="uniFEEB" unicode="&#x647;" horiz-adv-x="911" arabic-form="initial" 
d="M-70 128h18c68 0 127 10 178 29c-15 38 -22 84 -22 137c0 63 21 124 63 182c32 43 65 74 98 93c3 34 9 67 18 100h8l352 -267c83 -63 124 -134 124 -215c0 -53 -16 -97 -48 -131c-36 -37 -86 -56 -151 -56c-85 0 -199 23 -341 68c-110 -45 -201 -68 -274 -68h-23
c-47 0 -70 22 -70 67c0 16 5 29 15 40c13 14 32 21 55 21zM264 183c105 37 158 76 158 115s-12 76 -35 111c-23 32 -45 48 -68 48c-35 0 -72 -20 -111 -59c-36 -38 -54 -71 -54 -99c0 -40 37 -79 110 -116zM412 140c55 -19 117 -28 186 -28c29 0 54 4 74 13
c21 9 32 20 32 32c0 53 -72 125 -215 216c-8 -79 -34 -156 -77 -233z" />
    <glyph glyph-name="uniFEEC" unicode="&#x647;" horiz-adv-x="632" arabic-form="medial" 
d="M-70 128h111c19 82 37 153 54 213c27 98 65 184 114 257l9 3c5 -13 18 -33 37 -60c87 -125 131 -218 131 -281c0 -49 -6 -93 -19 -132h195v-128h-26c-35 0 -63 3 -84 10l-5 -2c27 -45 41 -90 41 -135s-11 -85 -32 -120c-37 -63 -87 -94 -150 -94c-54 0 -101 13 -142 40
c-41 26 -74 63 -99 111c-25 45 -37 94 -37 146v49c-28 -3 -54 -5 -79 -5h-19c-47 0 -70 22 -70 67c0 16 5 29 15 40c13 14 32 21 55 21zM87 2c3 -47 24 -93 63 -138c57 -67 120 -100 191 -100c39 0 58 16 58 49c0 43 -13 83 -39 120c-37 52 -90 78 -160 78
c-37 0 -75 -3 -113 -9zM97 128c69 0 121 5 157 14c44 12 66 29 66 51c0 45 -41 126 -124 241h-5c-35 -103 -67 -205 -94 -306z" />
    <glyph glyph-name="uniFEEA" unicode="&#x647;" horiz-adv-x="699" arabic-form="final" 
d="M560 139c-68 -29 -134 -44 -198 -44c-54 0 -97 10 -130 29c-35 20 -52 49 -52 88c0 29 11 68 33 117c42 90 148 182 319 275l-6 75c33 37 59 65 79 82h11l6 -466c1 -73 13 -120 38 -141c21 -17 56 -26 105 -26h24v-128h-22c-53 0 -95 9 -126 27c-36 21 -63 58 -81 112z
M544 246l-5 247c-181 -93 -271 -166 -271 -219c0 -37 43 -56 128 -56c42 0 91 9 148 28z" />
    <glyph glyph-name="uniFEEE" unicode="&#x648;" horiz-adv-x="690" arabic-form="final" 
d="M603 128h89v-128h-83c-5 -67 -30 -136 -76 -205c-35 -53 -78 -96 -129 -129c-44 -28 -81 -42 -112 -42c-83 0 -179 34 -288 101l17 33c45 -24 94 -36 147 -36c95 0 188 46 278 138c53 53 84 99 94 140h-49c-205 0 -308 68 -308 205c0 59 17 113 51 161
c44 64 95 96 154 96c47 0 91 -30 132 -90c43 -64 70 -145 83 -244zM535 128c-11 59 -34 107 -70 146c-33 37 -69 56 -106 56c-27 0 -52 -10 -77 -29c-24 -19 -36 -38 -36 -59c0 -45 36 -78 109 -99c37 -10 97 -15 180 -15z" />
    <glyph glyph-name="uniFBE8" unicode="&#x649;" horiz-adv-x="433" arabic-form="initial" 
d="M-70 128h17c97 0 163 6 197 19c38 14 57 29 57 44c0 34 -33 116 -100 247c25 45 50 83 75 113h5c67 -117 100 -218 100 -305c0 -63 -23 -125 -70 -186c-40 -40 -130 -60 -269 -60h-12c-47 0 -70 22 -70 67c0 16 5 29 15 40c13 14 32 21 55 21z" />
    <glyph glyph-name="uniFBE9" unicode="&#x649;" horiz-adv-x="451" arabic-form="medial" 
d="M-70 128h22c40 0 76 8 109 23c35 16 56 38 63 65l29 108l69 50l6 -7c-15 -52 -22 -91 -22 -116c0 -38 11 -66 33 -83c33 -27 74 -40 124 -40h18v-128h-23c-106 0 -175 34 -206 102h-4c-35 -68 -101 -102 -199 -102h-19c-47 0 -70 22 -70 67c0 16 5 29 15 40
c13 14 32 21 55 21z" />
    <glyph glyph-name="uniFEF0" unicode="&#x649;" horiz-adv-x="1017" arabic-form="final" 
d="M754 128h353v-128h-58c3 -22 4 -46 4 -72c0 -34 -15 -76 -45 -125c-138 -124 -293 -186 -466 -186c-118 0 -210 36 -275 108c-58 65 -87 158 -87 279c0 115 31 225 94 330l38 -17c-41 -98 -61 -182 -61 -251c0 -90 27 -163 80 -218c61 -63 141 -94 242 -94
c95 0 201 29 319 86c53 30 83 53 90 69c-13 26 -44 47 -94 64c-55 18 -120 27 -197 27l-6 14z" />
    <glyph glyph-name="uniFEF3" unicode="&#x64a;" horiz-adv-x="441" arabic-form="initial" 
d="M-70 128h17c97 0 163 6 197 19c38 14 57 29 57 44c0 34 -33 116 -100 247c25 45 50 83 75 113h5c67 -117 100 -218 100 -305c0 -63 -23 -125 -70 -186c-40 -40 -130 -60 -269 -60h-12c-47 0 -70 22 -70 67c0 16 5 29 15 40c13 14 32 21 55 21zM121 -307
c-28 -40 -53 -71 -76 -92c-41 39 -80 74 -117 104c24 34 50 66 79 95c33 -27 71 -62 114 -107zM314 -294c-28 -40 -53 -71 -76 -92c-41 39 -80 74 -117 104c24 34 50 66 79 95c33 -27 71 -62 114 -107z" />
    <glyph glyph-name="uniFEF4" unicode="&#x64a;" horiz-adv-x="451" arabic-form="medial" 
d="M141 -307c-28 -40 -53 -71 -76 -92c-41 39 -80 74 -117 104c24 34 50 66 79 95c33 -27 71 -62 114 -107zM334 -294c-28 -40 -53 -71 -76 -92c-41 39 -80 74 -117 104c24 34 50 66 79 95c33 -27 71 -62 114 -107zM-70 128h22c40 0 76 8 109 23c35 16 56 38 63 65l29 108
l69 50l6 -7c-15 -52 -22 -91 -22 -116c0 -38 11 -66 33 -83c33 -27 74 -40 124 -40h18v-128h-23c-106 0 -175 34 -206 102h-4c-35 -68 -101 -102 -199 -102h-19c-47 0 -70 22 -70 67c0 16 5 29 15 40c13 14 32 21 55 21z" />
    <glyph glyph-name="uniFEF2" unicode="&#x64a;" horiz-adv-x="1017" arabic-form="final" 
d="M754 128h353v-128h-58c3 -22 4 -46 4 -72c0 -34 -15 -76 -45 -125c-138 -124 -293 -186 -466 -186c-118 0 -210 36 -275 108c-58 65 -87 158 -87 279c0 115 31 225 94 330l38 -17c-41 -98 -61 -182 -61 -251c0 -90 27 -163 80 -218c61 -63 141 -94 242 -94
c95 0 201 29 319 86c53 30 83 53 90 69c-13 26 -44 47 -94 64c-55 18 -120 27 -197 27l-8 13z" />
    <glyph glyph-name="uniFB51" unicode="&#x671;" horiz-adv-x="436" arabic-form="final" 
d="M459 128v-128h-11c-76 0 -133 19 -171 57c-28 29 -46 65 -54 108c-5 32 -8 89 -8 172c0 151 -9 351 -26 601c43 46 75 77 94 93l7 -4c11 -141 16 -383 16 -724v-57c0 -53 25 -89 75 -107c22 -7 43 -11 64 -11h14zM52 1075l-6 3l5 73c21 42 41 63 59 63c10 0 23 -4 39 -12
c61 87 117 130 168 130c28 0 51 -10 69 -30c19 -21 28 -51 28 -90c0 -35 -12 -64 -37 -89c-27 -25 -61 -38 -101 -38s-79 8 -117 23c-36 15 -53 22 -50 22c-10 0 -29 -18 -57 -55zM180 1185c33 -16 68 -24 105 -24c21 0 41 4 60 12c20 9 30 19 31 32c-11 39 -35 58 -70 59
c-41 0 -83 -26 -126 -79z" />
    <glyph glyph-name="_127" unicode="&#x672;" horiz-adv-x="507" 
d="M525 128v-128h-11c-76 0 -133 19 -171 57c-28 29 -46 65 -54 108c-5 32 -8 89 -8 172c0 151 -9 351 -26 601c43 46 75 77 94 93l7 -4c11 -141 16 -383 16 -724v-57c0 -53 25 -89 75 -107c22 -7 43 -11 64 -11h14zM399 1236l-9 1c-9 29 -27 44 -53 44
c-16 0 -33 -4 -51 -11c-17 -8 -25 -16 -25 -25c0 -18 11 -33 34 -45c21 -11 43 -17 66 -17c27 0 73 10 138 29l2 -5c-20 -33 -38 -62 -55 -85c-78 -17 -139 -42 -182 -73c-22 -16 -41 -24 -58 -24c-14 0 -32 7 -53 20s-37 19 -48 19c-15 0 -32 -10 -49 -30l-20 23
c39 55 76 83 110 83c13 0 30 -6 51 -18c21 -13 35 -19 42 -19c15 0 27 4 36 13v4c-51 21 -76 50 -76 88c0 25 16 53 47 84c39 38 79 57 118 57c43 0 64 -18 64 -53c0 -13 -10 -33 -29 -60z" />
    <glyph glyph-name="_129" unicode="&#x673;" horiz-adv-x="462" 
d="M465 128v-128h-11c-76 0 -133 19 -171 57c-28 29 -46 65 -54 108c-5 32 -8 89 -8 172c0 151 -9 351 -26 601c43 46 75 77 94 93l7 -4c11 -141 16 -383 16 -724v-57c0 -53 25 -89 75 -107c22 -7 43 -11 64 -11h14zM369 -167l-9 1c-9 29 -27 44 -53 44
c-16 0 -33 -4 -51 -11c-17 -8 -25 -16 -25 -25c0 -18 11 -33 34 -45c21 -11 43 -17 66 -17c27 0 73 10 138 29l2 -5c-20 -33 -38 -62 -55 -85c-78 -17 -139 -42 -182 -73c-22 -16 -41 -24 -58 -24c-14 0 -32 7 -53 20s-37 19 -48 19c-15 0 -32 -10 -49 -30l-20 23
c39 55 76 83 110 83c13 0 30 -6 51 -18c21 -13 35 -19 42 -19c15 0 27 4 36 13v4c-51 21 -76 50 -76 88c0 25 16 53 47 84c39 38 79 57 118 57c43 0 64 -18 64 -53c0 -13 -10 -33 -29 -60z" />
    <glyph glyph-name="_132" unicode="&#x675;" horiz-adv-x="568" 
d="M649 1169v-3c-13 -27 -26 -50 -39 -68c-97 -15 -184 -40 -260 -75l-2 3l24 42c13 16 29 27 46 33v3c-52 15 -78 44 -78 87c0 27 16 57 47 88c43 38 84 57 121 57c19 0 35 -5 47 -15c11 -9 16 -20 16 -34c0 -18 -11 -40 -32 -65h-2c-12 23 -23 36 -32 39c-7 2 -17 3 -31 3
c-17 0 -33 -4 -48 -12c-15 -7 -22 -14 -22 -23c0 -23 16 -39 49 -50c28 -9 59 -14 94 -14c28 0 62 1 102 4zM656 128v-128h-221c-76 0 -133 19 -171 57c-28 29 -46 65 -54 108c-5 32 -8 89 -8 172c0 151 -9 351 -26 601c43 46 75 77 94 93l7 -4c11 -141 16 -383 16 -724v-57
c0 -53 25 -89 75 -107c22 -7 43 -11 64 -11h224z" />
    <glyph glyph-name="_134" unicode="&#x676;" horiz-adv-x="827" 
d="M603 128h226v-128h-220c-5 -65 -31 -134 -79 -206c-38 -56 -81 -99 -129 -130c-41 -27 -78 -40 -109 -40c-83 0 -179 34 -288 101l17 33c45 -24 94 -36 147 -36c95 0 187 46 278 138c51 53 83 99 94 140h-51c-204 0 -306 68 -306 205c0 59 17 113 51 161
c44 64 95 96 154 96c47 0 91 -30 132 -90c43 -64 70 -145 83 -244zM535 128c-11 59 -34 107 -70 146c-33 37 -69 56 -106 56c-27 0 -52 -10 -77 -29c-24 -19 -36 -38 -36 -59c0 -45 36 -77 109 -98c39 -11 99 -16 180 -16zM824 719v-3c-13 -27 -26 -50 -39 -68
c-97 -15 -184 -40 -260 -75l-2 3l24 42c13 16 29 27 46 33v3c-52 15 -78 44 -78 87c0 27 16 57 47 88c43 38 84 57 121 57c19 0 35 -5 47 -15c11 -9 16 -20 16 -34c0 -18 -11 -40 -32 -65h-2c-12 23 -23 36 -32 39c-7 2 -17 3 -31 3c-17 0 -33 -4 -48 -12
c-15 -7 -22 -14 -22 -23c0 -23 16 -39 49 -50c28 -9 59 -14 94 -14c28 0 62 1 102 4z" />
    <glyph glyph-name="_136" unicode="&#x677;" horiz-adv-x="865" 
d="M679 128h226v-128h-220c-5 -65 -31 -134 -79 -206c-38 -56 -81 -99 -129 -130c-41 -27 -78 -40 -109 -40c-83 0 -179 34 -288 101l17 33c45 -24 94 -36 147 -36c95 0 187 46 278 138c51 53 83 99 94 140h-51c-204 0 -306 68 -306 205c0 59 17 113 51 161
c44 64 95 96 154 96c47 0 91 -30 132 -90c43 -64 70 -145 83 -244zM611 128c-11 59 -34 107 -70 146c-33 37 -69 56 -106 56c-27 0 -52 -10 -77 -29c-24 -19 -36 -38 -36 -59c0 -45 36 -77 109 -98c39 -11 99 -16 180 -16zM900 719v-3c-13 -27 -26 -50 -39 -68
c-97 -15 -184 -40 -260 -75l-2 3l24 42c13 16 29 27 46 33v3c-52 15 -78 44 -78 87c0 27 16 57 47 88c43 38 84 57 121 57c19 0 35 -5 47 -15c11 -9 16 -20 16 -34c0 -18 -11 -40 -32 -65h-2c-12 23 -23 36 -32 39c-7 2 -17 3 -31 3c-17 0 -33 -4 -48 -12
c-15 -7 -22 -14 -22 -23c0 -23 16 -39 49 -50c28 -9 59 -14 94 -14c28 0 62 1 102 4zM472 733l-47 -65c-5 5 -13 8 -24 11c-39 -49 -108 -93 -209 -130c-59 0 -92 6 -99 18l-2 5c129 51 213 91 250 119c-81 14 -121 48 -121 102c0 37 15 70 44 97c27 27 58 40 92 40
c23 0 42 -10 57 -31c19 -25 29 -62 29 -111c0 -15 -2 -29 -6 -42c15 -2 27 -6 36 -13zM267 827c0 -33 42 -58 125 -75c2 6 3 12 3 18c-1 23 -8 45 -21 66c-15 21 -32 32 -49 32c-15 0 -29 -4 -40 -13c-12 -9 -18 -18 -18 -28z" />
    <glyph glyph-name="_138" unicode="&#x678;" horiz-adv-x="632" 
d="M176 551h5c67 -117 100 -218 100 -305c0 -63 -23 -125 -70 -186c-40 -40 -130 -60 -269 -60h-12c-47 0 -70 22 -70 67c0 16 5 29 15 40c13 14 32 21 55 21h17c97 0 163 6 197 19c38 14 57 29 57 44c0 34 -33 116 -100 247c25 45 50 83 75 113zM532 769v-3
c-13 -27 -26 -50 -39 -68c-97 -15 -184 -40 -260 -75l-2 3l24 42c13 16 29 27 46 33v3c-52 15 -78 44 -78 87c0 27 16 57 47 88c43 38 84 57 121 57c19 0 35 -5 47 -15c11 -9 16 -20 16 -34c0 -18 -11 -40 -32 -65h-2c-12 23 -23 36 -32 39c-7 2 -17 3 -31 3
c-17 0 -33 -4 -48 -12c-15 -7 -22 -14 -22 -23c0 -23 16 -39 49 -50c28 -9 59 -14 94 -14c28 0 62 1 102 4z" />
    <glyph glyph-name="_139" unicode="&#x678;" horiz-adv-x="646" 
d="M-70 128h22c40 0 76 8 109 23c35 16 56 38 63 65l29 108l69 50l6 -7c-15 -52 -22 -91 -22 -116c0 -38 11 -66 33 -83c33 -27 74 -40 124 -40h213v-128h-218c-106 0 -175 34 -206 102h-4c-35 -68 -101 -102 -199 -102h-19c-47 0 -70 22 -70 67c0 16 5 29 15 40
c13 14 32 21 55 21zM562 629v-3c-13 -27 -26 -50 -39 -68c-97 -15 -184 -40 -260 -75l-2 3l24 42c13 16 29 27 46 33v3c-52 15 -78 44 -78 87c0 27 16 57 47 88c43 38 84 57 121 57c19 0 35 -5 47 -15c11 -9 16 -20 16 -34c0 -18 -11 -40 -32 -65h-2c-12 23 -23 36 -32 39
c-7 2 -17 3 -31 3c-17 0 -33 -4 -48 -12c-15 -7 -22 -14 -22 -23c0 -23 16 -39 49 -50c28 -9 59 -14 94 -14c28 0 62 1 102 4z" />
    <glyph glyph-name="_140" unicode="&#x678;" horiz-adv-x="1285" 
d="M754 128h621v-128h-326c3 -22 4 -46 4 -72c0 -34 -15 -76 -45 -125c-138 -124 -293 -186 -466 -186c-118 0 -210 36 -275 108c-58 65 -87 158 -87 279c0 115 31 225 94 330l38 -17c-41 -98 -61 -182 -61 -251c0 -90 27 -163 80 -218c61 -63 141 -94 242 -94
c95 0 201 29 319 86c53 30 83 53 90 69c-13 26 -44 47 -94 64c-55 18 -120 27 -197 27l-6 14zM1365 589v-3c-13 -27 -26 -50 -39 -68c-97 -15 -184 -40 -260 -75l-2 3l24 42c13 16 29 27 46 33v3c-52 15 -78 44 -78 87c0 27 16 57 47 88c43 38 84 57 121 57
c19 0 35 -5 47 -15c11 -9 16 -20 16 -34c0 -18 -11 -40 -32 -65h-2c-12 23 -23 36 -32 39c-7 2 -17 3 -31 3c-17 0 -33 -4 -48 -12c-15 -7 -22 -14 -22 -23c0 -23 16 -39 49 -50c28 -9 59 -14 94 -14c28 0 62 1 102 4z" />
    <glyph glyph-name="uniFB68" unicode="&#x679;" horiz-adv-x="441" arabic-form="initial" 
d="M-70 128h17c97 0 163 6 197 19c38 14 57 29 57 44c0 34 -33 116 -100 247c25 45 50 83 75 113h5c67 -117 100 -218 100 -305c0 -63 -23 -125 -70 -186c-40 -40 -130 -60 -269 -60h-12c-47 0 -70 22 -70 67c0 16 5 29 15 40c13 14 32 21 55 21zM-21 634l-94 77l4 6l105 -4
c12 22 18 58 18 108c0 42 -2 83 -6 124c-5 38 -7 60 -7 67c0 15 15 38 46 71h6c6 -36 20 -73 41 -111l-36 -31l2 -75c0 -25 -3 -48 -10 -67l3 -2c51 77 101 116 150 116c29 0 53 -10 72 -31c18 -20 27 -45 27 -74c0 -19 -6 -43 -17 -73c-15 -34 -38 -58 -67 -73
c-42 -21 -96 -31 -162 -31c-35 0 -60 1 -75 3zM31 714c129 3 205 22 230 58c-12 41 -37 61 -76 61c-53 0 -104 -40 -154 -119z" />
    <glyph glyph-name="uniFB69" unicode="&#x679;" horiz-adv-x="451" arabic-form="medial" 
d="M-70 128h22c40 0 76 8 109 23c35 16 56 38 63 65l29 108l69 50l6 -7c-15 -52 -22 -91 -22 -116c0 -38 11 -66 33 -83c33 -27 74 -40 124 -40h18v-128h-23c-106 0 -175 34 -206 102h-4c-35 -68 -101 -102 -199 -102h-19c-47 0 -70 22 -70 67c0 16 5 29 15 40
c13 14 32 21 55 21zM19 504l-94 77l4 6l105 -4c12 22 18 58 18 108c0 42 -2 83 -6 124c-5 38 -7 60 -7 67c0 15 15 38 46 71h6c6 -36 20 -73 41 -111l-36 -31l2 -75c0 -25 -3 -48 -10 -67l3 -2c51 77 101 116 150 116c29 0 53 -10 72 -31c18 -20 27 -45 27 -74
c0 -19 -6 -43 -17 -73c-15 -34 -38 -58 -67 -73c-42 -21 -96 -31 -162 -31c-35 0 -60 1 -75 3zM71 584c129 3 205 22 230 58c-12 41 -37 61 -76 61c-53 0 -104 -40 -154 -119z" />
    <glyph glyph-name="uniFB67" unicode="&#x679;" horiz-adv-x="1361" arabic-form="final" 
d="M1461 128v-128h-23c-103 0 -171 29 -204 87c-38 -23 -90 -45 -156 -64c-143 -42 -272 -63 -388 -63c-147 0 -262 26 -343 77c-98 63 -147 154 -147 271c0 87 20 167 59 242l40 -17c-19 -59 -29 -110 -29 -152c0 -94 44 -168 132 -221c71 -43 177 -64 318 -64
c99 0 213 15 341 45c54 13 98 27 133 43l44 140l68 49l6 -7c-16 -50 -24 -90 -24 -119c0 -35 12 -62 35 -81c31 -25 71 -38 120 -38h18zM648 624l-94 77l4 6l105 -4c12 22 18 58 18 108c0 42 -2 83 -6 124c-5 38 -7 60 -7 67c0 15 15 38 46 71h6c6 -36 20 -73 41 -111
l-36 -31l2 -75c0 -25 -3 -48 -10 -67l3 -2c51 77 101 116 150 116c29 0 53 -10 72 -31c18 -20 27 -45 27 -74c0 -19 -6 -43 -17 -73c-15 -34 -38 -58 -67 -73c-42 -21 -96 -31 -162 -31c-35 0 -60 1 -75 3zM700 704c129 3 205 22 230 58c-12 41 -37 61 -76 61
c-53 0 -104 -40 -154 -119z" />
    <glyph glyph-name="uniFB60" unicode="&#x67a;" horiz-adv-x="436" arabic-form="initial" 
d="M-70 128h17c97 0 163 6 197 19c38 14 57 29 57 44c0 34 -33 116 -100 247c25 45 50 83 75 113h5c67 -117 100 -218 100 -305c0 -63 -23 -125 -70 -186c-40 -40 -130 -60 -269 -60h-12c-47 0 -70 22 -70 67c0 16 5 29 15 40c13 14 32 21 55 21zM211 948
c-29 -40 -54 -70 -76 -90c-43 39 -82 73 -118 102c24 33 50 63 79 92c37 -28 76 -63 115 -104zM231 746c-33 -43 -58 -72 -76 -89c-47 43 -86 76 -118 101c21 29 48 60 79 93c36 -27 74 -62 115 -105z" />
    <glyph glyph-name="uniFB61" unicode="&#x67a;" horiz-adv-x="451" arabic-form="medial" 
d="M-70 128h22c40 0 76 8 109 23c35 16 56 38 63 65l29 108l69 50l6 -7c-15 -52 -22 -91 -22 -116c0 -38 11 -66 33 -83c33 -27 74 -40 124 -40h18v-128h-23c-106 0 -175 34 -206 102h-4c-35 -68 -101 -102 -199 -102h-19c-47 0 -70 22 -70 67c0 16 5 29 15 40
c13 14 32 21 55 21zM241 818c-29 -40 -54 -70 -76 -90c-43 39 -82 73 -118 102c24 33 50 63 79 92c37 -28 76 -63 115 -104zM261 616c-33 -43 -58 -72 -76 -89c-47 43 -86 76 -118 101c21 29 48 60 79 93c36 -27 74 -62 115 -105z" />
    <glyph glyph-name="uniFB5F" unicode="&#x67a;" horiz-adv-x="1361" arabic-form="final" 
d="M1461 128v-128h-23c-103 0 -171 29 -204 87c-42 -25 -94 -47 -156 -65c-142 -41 -271 -62 -388 -62c-147 0 -262 26 -343 77c-98 63 -147 154 -147 271c0 87 20 167 59 242l40 -17c-19 -59 -29 -110 -29 -152c0 -94 44 -168 132 -221c71 -43 177 -64 318 -64
c101 0 215 15 342 44c45 11 89 25 132 44l44 140l64 50l6 -7c-15 -46 -23 -83 -23 -112c0 -43 11 -72 34 -89c33 -25 74 -38 124 -38h18zM850 918c-29 -40 -54 -70 -76 -90c-43 39 -82 73 -118 102c24 33 50 63 79 92c37 -28 76 -63 115 -104zM870 716
c-33 -43 -58 -72 -76 -89c-47 43 -86 76 -118 101c21 29 48 60 79 93c36 -27 74 -62 115 -105z" />
    <glyph glyph-name="uniFB54" unicode="&#x67b;" horiz-adv-x="433" arabic-form="initial" 
d="M-70 128h17c97 0 163 6 197 19c38 14 57 29 57 44c0 34 -33 116 -100 247c25 45 50 83 75 113h5c67 -117 100 -218 100 -305c0 -63 -23 -125 -70 -186c-40 -40 -130 -60 -269 -60h-12c-47 0 -70 22 -70 67c0 16 5 29 15 40c13 14 32 21 55 21zM231 -232
c-29 -40 -54 -70 -76 -90c-43 39 -82 73 -118 102c24 33 50 63 79 92c37 -28 76 -63 115 -104zM251 -434c-33 -43 -58 -72 -76 -89c-47 43 -86 76 -118 101c21 29 48 60 79 93c36 -27 74 -62 115 -105z" />
    <glyph glyph-name="uniFB55" unicode="&#x67b;" horiz-adv-x="451" arabic-form="medial" 
d="M-70 128h22c40 0 76 8 109 23c35 16 56 38 63 65l29 108l69 50l6 -7c-15 -52 -22 -91 -22 -116c0 -38 11 -66 33 -83c33 -27 74 -40 124 -40h18v-128h-23c-106 0 -175 34 -206 102h-4c-35 -68 -101 -102 -199 -102h-19c-47 0 -70 22 -70 67c0 16 5 29 15 40
c13 14 32 21 55 21zM241 -232c-29 -40 -54 -70 -76 -90c-43 39 -82 73 -118 102c24 33 50 63 79 92c37 -28 76 -63 115 -104zM261 -434c-33 -43 -58 -72 -76 -89c-47 43 -86 76 -118 101c21 29 48 60 79 93c36 -27 74 -62 115 -105z" />
    <glyph glyph-name="uniFB53" unicode="&#x67b;" horiz-adv-x="1361" arabic-form="final" 
d="M1461 128v-128h-23c-103 0 -171 29 -204 87c-42 -25 -94 -47 -156 -65c-142 -41 -271 -62 -388 -62c-147 0 -262 26 -343 77c-98 63 -147 154 -147 271c0 87 20 167 59 242l40 -17c-19 -59 -29 -110 -29 -152c0 -94 44 -168 132 -221c71 -43 177 -64 318 -64
c101 0 215 15 342 44c45 11 89 25 132 44l44 140l64 50l6 -7c-15 -46 -23 -83 -23 -112c0 -43 11 -72 34 -89c33 -25 74 -38 124 -38h18zM840 -252c-29 -40 -54 -70 -76 -90c-43 39 -82 73 -118 102c24 33 50 63 79 92c37 -28 76 -63 115 -104zM860 -454
c-33 -43 -58 -72 -76 -89c-47 43 -86 76 -118 101c21 29 48 60 79 93c36 -27 74 -62 115 -105z" />
    <glyph glyph-name="_154" unicode="&#x67c;" horiz-adv-x="441" 
d="M203 52c44 -24 66 -61 66 -110c0 -35 -12 -64 -37 -88c-24 -25 -53 -37 -88 -37s-64 12 -88 37c-25 24 -37 53 -37 88c0 23 5 43 16 62c-32 -3 -63 -4 -93 -4h-12c-47 0 -70 22 -70 67c0 16 5 29 15 40c13 14 32 21 55 21h17c97 0 163 6 197 19c38 14 57 29 57 44
c0 34 -33 116 -100 247c25 45 50 83 75 113h5c67 -117 100 -218 100 -305c0 -66 -26 -131 -78 -194zM291 742c-28 -40 -53 -71 -76 -92c-41 39 -80 74 -117 104c24 34 50 66 79 95c33 -27 71 -62 114 -107zM98 729c-28 -40 -53 -71 -76 -92c-41 39 -80 74 -117 104
c24 34 50 66 79 95c33 -27 71 -62 114 -107zM69 -58c0 -21 7 -38 22 -53s32 -22 53 -22s38 7 53 22s22 32 22 53s-7 38 -22 53s-32 22 -53 22s-38 -7 -53 -22s-22 -32 -22 -53z" />
    <glyph glyph-name="_155" unicode="&#x67c;" horiz-adv-x="581" 
d="M268 599c-28 -40 -53 -71 -76 -92c-41 39 -80 74 -117 104c24 34 50 66 79 95c33 -27 71 -62 114 -107zM461 612c-28 -40 -53 -71 -76 -92c-41 39 -80 74 -117 104c24 34 50 66 79 95c33 -27 71 -62 114 -107zM194 24c29 -24 43 -55 43 -92c0 -32 -12 -60 -35 -85
c-23 -23 -52 -35 -85 -35c-32 0 -60 12 -85 35c-23 25 -35 53 -35 85c0 25 7 47 21 68h-88c-47 0 -70 22 -70 67c0 16 5 29 15 40c13 14 32 21 55 21h152c40 0 76 8 109 23c35 16 56 38 63 65l29 108l69 50l6 -7c-15 -52 -22 -91 -22 -116c0 -38 11 -66 33 -83
c33 -27 74 -40 124 -40h18v-128h-23c-106 0 -175 34 -206 102h-4c-18 -35 -46 -61 -84 -78zM42 -68c0 -21 7 -38 22 -53s32 -22 53 -22s38 7 53 22s22 32 22 53s-7 38 -22 53s-32 22 -53 22s-38 -7 -53 -22s-22 -32 -22 -53z" />
    <glyph glyph-name="_156" unicode="&#x67c;" horiz-adv-x="1361" 
d="M960 732c-28 -40 -53 -71 -76 -92c-41 39 -80 74 -117 104c24 34 50 66 79 95c33 -27 71 -62 114 -107zM767 719c-28 -40 -53 -71 -76 -92c-41 39 -80 74 -117 104c24 34 50 66 79 95c33 -27 71 -62 114 -107zM839 -29c28 -27 42 -60 42 -100c0 -39 -14 -72 -41 -99
s-60 -41 -99 -41s-72 14 -99 41s-41 60 -41 99c0 35 11 65 33 90c-118 5 -214 30 -287 76c-98 63 -147 154 -147 271c0 87 20 167 59 242l40 -17c-19 -59 -29 -110 -29 -152c0 -94 44 -168 132 -221c71 -43 177 -64 318 -64c99 0 213 15 341 45c54 13 98 27 133 43l44 140
l68 49l6 -7c-16 -50 -24 -90 -24 -119c0 -35 12 -62 35 -81c31 -25 71 -38 120 -38h18v-128h-23c-103 0 -171 29 -204 87c-38 -23 -90 -45 -156 -64c-83 -24 -163 -41 -239 -52zM651 -129c0 -24 9 -45 26 -64c19 -17 40 -26 64 -26c25 0 47 9 64 26c17 19 26 40 26 64
c0 25 -9 47 -26 64s-39 26 -64 26c-24 0 -45 -9 -64 -26c-17 -17 -26 -39 -26 -64z" />
    <glyph glyph-name="_158" unicode="&#x67d;" horiz-adv-x="440" 
d="M-70 128h17c97 0 163 6 197 19c38 14 57 29 57 44c0 34 -33 116 -100 247c25 45 50 83 75 113h5c67 -117 100 -218 100 -305c0 -63 -23 -125 -70 -186c-40 -40 -130 -60 -269 -60h-12c-47 0 -70 22 -70 67c0 16 5 29 15 40c13 14 32 21 55 21zM285 953
c-28 -40 -53 -71 -76 -92c-41 39 -80 74 -117 104c24 34 50 66 79 95c33 -27 71 -62 114 -107zM92 940c-28 -40 -53 -71 -76 -92c-41 39 -80 74 -117 104c24 34 50 66 79 95c33 -27 71 -62 114 -107zM232 741c-28 -40 -53 -71 -76 -92c-41 39 -80 74 -117 104
c24 34 50 66 79 95c33 -27 71 -62 114 -107z" />
    <glyph glyph-name="_159" unicode="&#x67d;" horiz-adv-x="451" 
d="M-70 128h22c40 0 76 8 109 23c35 16 56 38 63 65l29 108l69 50l6 -7c-15 -52 -22 -91 -22 -116c0 -38 11 -66 33 -83c33 -27 74 -40 124 -40h18v-128h-23c-106 0 -175 34 -206 102h-4c-35 -68 -101 -102 -199 -102h-19c-47 0 -70 22 -70 67c0 16 5 29 15 40
c13 14 32 21 55 21zM315 813c-28 -40 -53 -71 -76 -92c-41 39 -80 74 -117 104c24 34 50 66 79 95c33 -27 71 -62 114 -107zM122 800c-28 -40 -53 -71 -76 -92c-41 39 -80 74 -117 104c24 34 50 66 79 95c33 -27 71 -62 114 -107zM262 601c-28 -40 -53 -71 -76 -92
c-41 39 -80 74 -117 104c24 34 50 66 79 95c33 -27 71 -62 114 -107z" />
    <glyph glyph-name="_160" unicode="&#x67d;" horiz-adv-x="1361" 
d="M1461 128v-128h-23c-103 0 -171 29 -204 87c-42 -25 -94 -47 -156 -65c-142 -41 -271 -62 -388 -62c-147 0 -262 26 -343 77c-98 63 -147 154 -147 271c0 87 20 167 59 242l40 -17c-19 -59 -29 -110 -29 -152c0 -94 44 -168 132 -221c71 -43 177 -64 318 -64
c101 0 215 15 342 44c45 11 89 25 132 44l44 140l64 50l6 -7c-15 -46 -23 -83 -23 -112c0 -43 11 -72 34 -89c33 -25 74 -38 124 -38h18zM947 893c-28 -40 -53 -71 -76 -92c-41 39 -80 74 -117 104c24 34 50 66 79 95c33 -27 71 -62 114 -107zM754 880
c-28 -40 -53 -71 -76 -92c-41 39 -80 74 -117 104c24 34 50 66 79 95c33 -27 71 -62 114 -107zM894 681c-28 -40 -53 -71 -76 -92c-41 39 -80 74 -117 104c24 34 50 66 79 95c33 -27 71 -62 114 -107z" />
    <glyph glyph-name="uniFB58" unicode="&#x67e;" horiz-adv-x="441" arabic-form="initial" 
d="M-70 128h17c97 0 163 6 197 19c38 14 57 29 57 44c0 34 -33 116 -100 247c25 45 50 83 75 113h5c67 -117 100 -218 100 -305c0 -63 -23 -125 -70 -186c-40 -40 -130 -60 -269 -60h-12c-47 0 -70 22 -70 67c0 16 5 29 15 40c13 14 32 21 55 21zM318 -247
c-28 -40 -53 -71 -76 -92c-41 39 -80 74 -117 104c24 34 50 66 79 95c33 -27 71 -62 114 -107zM125 -260c-28 -40 -53 -71 -76 -92c-41 39 -80 74 -117 104c24 34 50 66 79 95c33 -27 71 -62 114 -107zM265 -459c-28 -40 -53 -71 -76 -92c-41 39 -80 74 -117 104
c24 34 50 66 79 95c33 -27 71 -62 114 -107z" />
    <glyph glyph-name="uniFB59" unicode="&#x67e;" horiz-adv-x="451" arabic-form="medial" 
d="M-70 128h22c40 0 76 8 109 23c35 16 56 38 63 65l29 108l69 50l6 -7c-15 -52 -22 -91 -22 -116c0 -38 11 -66 33 -83c33 -27 74 -40 124 -40h18v-128h-23c-106 0 -175 34 -206 102h-4c-35 -68 -101 -102 -199 -102h-19c-47 0 -70 22 -70 67c0 16 5 29 15 40
c13 14 32 21 55 21zM318 -247c-28 -40 -53 -71 -76 -92c-41 39 -80 74 -117 104c24 34 50 66 79 95c33 -27 71 -62 114 -107zM125 -260c-28 -40 -53 -71 -76 -92c-41 39 -80 74 -117 104c24 34 50 66 79 95c33 -27 71 -62 114 -107zM265 -459c-28 -40 -53 -71 -76 -92
c-41 39 -80 74 -117 104c24 34 50 66 79 95c33 -27 71 -62 114 -107z" />
    <glyph glyph-name="uniFB57" unicode="&#x67e;" horiz-adv-x="1361" arabic-form="final" 
d="M1461 128v-128h-23c-103 0 -171 29 -204 87c-42 -25 -94 -47 -156 -65c-142 -41 -271 -62 -388 -62c-147 0 -262 26 -343 77c-98 63 -147 154 -147 271c0 87 20 167 59 242l40 -17c-19 -59 -29 -110 -29 -152c0 -94 44 -168 132 -221c71 -43 177 -64 318 -64
c101 0 215 15 342 44c45 11 89 25 132 44l44 140l64 50l6 -7c-15 -46 -23 -83 -23 -112c0 -43 11 -72 34 -89c33 -25 74 -38 124 -38h18zM957 -247c-28 -40 -53 -71 -76 -92c-41 39 -80 74 -117 104c24 34 50 66 79 95c33 -27 71 -62 114 -107zM764 -260
c-28 -40 -53 -71 -76 -92c-41 39 -80 74 -117 104c24 34 50 66 79 95c33 -27 71 -62 114 -107zM904 -459c-28 -40 -53 -71 -76 -92c-41 39 -80 74 -117 104c24 34 50 66 79 95c33 -27 71 -62 114 -107z" />
    <glyph glyph-name="uniFB64" unicode="&#x67f;" horiz-adv-x="441" arabic-form="initial" 
d="M-70 128h17c97 0 163 6 197 19c38 14 57 29 57 44c0 34 -33 116 -100 247c25 45 50 83 75 113h5c67 -117 100 -218 100 -305c0 -63 -23 -125 -70 -186c-40 -40 -130 -60 -269 -60h-12c-47 0 -70 22 -70 67c0 16 5 29 15 40c13 14 32 21 55 21zM100 726
c-32 -43 -56 -71 -72 -86c-40 39 -77 71 -110 98c28 38 53 68 74 89c33 -25 69 -59 108 -101zM281 739c-26 -39 -50 -68 -71 -87c-35 33 -72 66 -110 98c24 34 49 64 74 89c31 -24 66 -57 107 -100zM88 916c-25 -36 -49 -65 -71 -86c-30 28 -67 61 -110 98
c20 27 45 56 74 89c35 -27 70 -60 107 -101zM270 928c-32 -43 -56 -71 -72 -86c-40 39 -77 71 -110 98c27 36 52 66 75 89c37 -30 72 -64 107 -101z" />
    <glyph glyph-name="uniFB65" unicode="&#x67f;" horiz-adv-x="451" arabic-form="medial" 
d="M-70 128h22c40 0 76 8 109 23c35 16 56 38 63 65l29 108l69 50l6 -7c-15 -52 -22 -91 -22 -116c0 -38 11 -66 33 -83c33 -27 74 -40 124 -40h18v-128h-23c-106 0 -175 34 -206 102h-4c-35 -68 -101 -102 -199 -102h-19c-47 0 -70 22 -70 67c0 16 5 29 15 40
c13 14 32 21 55 21zM140 596c-32 -43 -56 -71 -72 -86c-40 39 -77 71 -110 98c28 38 53 68 74 89c33 -25 69 -59 108 -101zM321 609c-26 -39 -50 -68 -71 -87c-35 33 -72 66 -110 98c24 34 49 64 74 89c31 -24 66 -57 107 -100zM128 786c-25 -36 -49 -65 -71 -86
c-30 28 -67 61 -110 98c20 27 45 56 74 89c35 -27 70 -60 107 -101zM310 798c-32 -43 -56 -71 -72 -86c-40 39 -77 71 -110 98c27 36 52 66 75 89c37 -30 72 -64 107 -101z" />
    <glyph glyph-name="uniFB63" unicode="&#x67f;" horiz-adv-x="1361" arabic-form="final" 
d="M1461 128v-128h-23c-103 0 -171 29 -204 87c-42 -25 -94 -47 -156 -65c-142 -41 -271 -62 -388 -62c-147 0 -262 26 -343 77c-98 63 -147 154 -147 271c0 87 20 167 59 242l40 -17c-19 -59 -29 -110 -29 -152c0 -94 44 -168 132 -221c71 -43 177 -64 318 -64
c101 0 215 15 342 44c45 11 89 25 132 44l44 140l64 50l6 -7c-15 -46 -23 -83 -23 -112c0 -43 11 -72 34 -89c33 -25 74 -38 124 -38h18zM770 716c-32 -43 -56 -71 -72 -86c-40 39 -77 71 -110 98c28 38 53 68 74 89c33 -25 69 -59 108 -101zM951 729
c-26 -39 -50 -68 -71 -87c-35 33 -72 66 -110 98c24 34 49 64 74 89c31 -24 66 -57 107 -100zM758 906c-25 -36 -49 -65 -71 -86c-30 28 -67 61 -110 98c20 27 45 56 74 89c35 -27 70 -60 107 -101zM940 918c-32 -43 -56 -71 -72 -86c-40 39 -77 71 -110 98
c27 36 52 66 75 89c37 -30 72 -64 107 -101z" />
    <glyph glyph-name="uniFB5C" unicode="&#x680;" horiz-adv-x="451" arabic-form="initial" 
d="M-70 128h17c97 0 163 6 197 19c38 14 57 29 57 44c0 34 -33 116 -100 247c25 45 50 83 75 113h5c67 -117 100 -218 100 -305c0 -63 -23 -125 -70 -186c-40 -40 -130 -60 -269 -60h-12c-47 0 -70 22 -70 67c0 16 5 29 15 40c13 14 32 21 55 21zM135 -444
c-32 -43 -56 -71 -72 -86c-40 39 -77 71 -110 98c28 38 53 68 74 89c33 -25 69 -59 108 -101zM319 -431c-26 -39 -50 -68 -71 -87c-35 33 -72 66 -110 98c24 34 49 64 74 89c31 -24 66 -57 107 -100zM123 -254c-25 -36 -49 -65 -71 -86c-30 28 -67 61 -110 98
c20 27 45 56 74 89c35 -27 70 -60 107 -101zM308 -242c-32 -43 -56 -71 -72 -86c-40 39 -77 71 -110 98c27 36 52 66 75 89c37 -30 72 -64 107 -101z" />
    <glyph glyph-name="uniFB5D" unicode="&#x680;" horiz-adv-x="451" arabic-form="medial" 
d="M-70 128h22c40 0 76 8 109 23c35 16 56 38 63 65l29 108l69 50l6 -7c-15 -52 -22 -91 -22 -116c0 -38 11 -66 33 -83c33 -27 74 -40 124 -40h18v-128h-23c-106 0 -175 34 -206 102h-4c-35 -68 -101 -102 -199 -102h-19c-47 0 -70 22 -70 67c0 16 5 29 15 40
c13 14 32 21 55 21zM135 -444c-32 -43 -56 -71 -72 -86c-40 39 -77 71 -110 98c28 38 53 68 74 89c33 -25 69 -59 108 -101zM319 -431c-26 -39 -50 -68 -71 -87c-35 33 -72 66 -110 98c24 34 49 64 74 89c31 -24 66 -57 107 -100zM123 -254c-25 -36 -49 -65 -71 -86
c-30 28 -67 61 -110 98c20 27 45 56 74 89c35 -27 70 -60 107 -101zM308 -242c-32 -43 -56 -71 -72 -86c-40 39 -77 71 -110 98c27 36 52 66 75 89c37 -30 72 -64 107 -101z" />
    <glyph glyph-name="uniFB5B" unicode="&#x680;" horiz-adv-x="1361" arabic-form="final" 
d="M1461 128v-128h-23c-103 0 -171 29 -204 87c-42 -25 -94 -47 -156 -65c-142 -41 -271 -62 -388 -62c-147 0 -262 26 -343 77c-98 63 -147 154 -147 271c0 87 20 167 59 242l40 -17c-19 -59 -29 -110 -29 -152c0 -94 44 -168 132 -221c71 -43 177 -64 318 -64
c101 0 215 15 342 44c45 11 89 25 132 44l44 140l64 50l6 -7c-15 -46 -23 -83 -23 -112c0 -43 11 -72 34 -89c33 -25 74 -38 124 -38h18zM775 -444c-32 -43 -56 -71 -72 -86c-40 39 -77 71 -110 98c28 38 53 68 74 89c33 -25 69 -59 108 -101zM959 -431
c-26 -39 -50 -68 -71 -87c-35 33 -72 66 -110 98c24 34 49 64 74 89c31 -24 66 -57 107 -100zM763 -254c-25 -36 -49 -65 -71 -86c-30 28 -67 61 -110 98c20 27 45 56 74 89c35 -27 70 -60 107 -101zM948 -242c-32 -43 -56 -71 -72 -86c-40 39 -77 71 -110 98
c27 36 52 66 75 89c37 -30 72 -64 107 -101z" />
    <glyph glyph-name="_202" unicode="&#x681;" horiz-adv-x="935" 
d="M-70 128h61c155 0 333 60 534 181l1 4c-125 47 -230 70 -314 70c-55 0 -98 -17 -127 -50l12 -50l-30 -90h-10l-49 132c4 55 26 99 67 132c39 32 89 48 150 48c76 0 185 -29 328 -87c49 -20 106 -31 171 -32l81 1l3 -2l-53 -105c-75 2 -132 -10 -173 -37l-167 -109
c-137 -89 -282 -134 -433 -134h-52c-47 0 -70 22 -70 67c0 16 5 29 15 40c13 14 32 21 55 21zM482 829v-3c-13 -27 -26 -50 -39 -68c-97 -15 -184 -40 -260 -75l-2 3l24 42c13 16 29 27 46 33v3c-52 15 -78 44 -78 87c0 27 16 57 47 88c43 38 84 57 121 57
c19 0 35 -5 47 -15c11 -9 16 -20 16 -34c0 -18 -11 -40 -32 -65h-2c-12 23 -23 36 -32 39c-7 2 -17 3 -31 3c-17 0 -33 -4 -48 -12c-15 -7 -22 -14 -22 -23c0 -23 16 -39 49 -50c28 -9 59 -14 94 -14c28 0 62 1 102 4z" />
    <glyph glyph-name="_203" unicode="&#x681;" horiz-adv-x="915" 
d="M525 309l1 4c-125 47 -230 70 -314 70c-55 0 -98 -17 -127 -50l12 -50l-30 -90h-10l-49 132c4 55 26 99 67 132c39 32 89 48 150 48c74 0 183 -29 328 -86c55 -22 112 -33 171 -33h87l2 -2l-62 -103c-72 0 -128 -13 -169 -38l-167 -109c-139 -89 -286 -134 -439 -134h-46
c-47 0 -70 22 -70 67c0 16 5 29 15 40c13 14 32 21 55 21h61c155 0 333 60 534 181zM602 221l36 24l3 -1c3 -77 62 -116 177 -116h27v-128h-31c-143 0 -215 55 -215 165c0 19 1 37 3 56zM482 829v-3c-13 -27 -26 -50 -39 -68c-97 -15 -184 -40 -260 -75l-2 3l24 42
c13 16 29 27 46 33v3c-52 15 -78 44 -78 87c0 27 16 57 47 88c43 38 84 57 121 57c19 0 35 -5 47 -15c11 -9 16 -20 16 -34c0 -18 -11 -40 -32 -65h-2c-12 23 -23 36 -32 39c-7 2 -17 3 -31 3c-17 0 -33 -4 -48 -12c-15 -7 -22 -14 -22 -23c0 -23 16 -39 49 -50
c28 -9 59 -14 94 -14c28 0 62 1 102 4z" />
    <glyph glyph-name="_204" unicode="&#x681;" horiz-adv-x="939" 
d="M639 324l-1 3c-102 37 -195 56 -278 56c-55 0 -98 -17 -127 -50l20 -84l-28 -79l-11 -3l-58 158c4 55 26 99 67 132c39 32 89 48 150 48c76 0 185 -29 328 -87c53 -20 110 -31 171 -32l88 1l1 -2l-60 -101c-73 -7 -162 -29 -267 -66c-247 -94 -370 -205 -370 -333
c0 -101 48 -182 145 -242c93 -57 211 -86 354 -86c81 0 166 7 257 22l3 -10c-69 -57 -123 -96 -163 -119c-63 -12 -126 -18 -189 -18c-139 0 -253 33 -340 99c-95 72 -142 174 -142 307c0 116 44 219 132 310c82 86 188 145 318 176zM750 221l36 24l3 -1
c3 -77 62 -116 177 -116h51v-128h-55c-143 0 -215 55 -215 165c0 19 1 37 3 56zM700 829v-3c-13 -27 -26 -50 -39 -68c-97 -15 -184 -40 -260 -75l-2 3l24 42c13 16 29 27 46 33v3c-52 15 -78 44 -78 87c0 27 16 57 47 88c43 38 84 57 121 57c19 0 35 -5 47 -15
c11 -9 16 -20 16 -34c0 -18 -11 -40 -32 -65h-2c-12 23 -23 36 -32 39c-7 2 -17 3 -31 3c-17 0 -33 -4 -48 -12c-15 -7 -22 -14 -22 -23c0 -23 16 -39 49 -50c28 -9 59 -14 94 -14c28 0 62 1 102 4z" />
    <glyph glyph-name="_206" unicode="&#x682;" horiz-adv-x="935" 
d="M-70 128h61c155 0 333 60 534 181l1 4c-125 47 -230 70 -314 70c-55 0 -98 -17 -127 -50l12 -50l-30 -90h-10l-49 132c4 55 26 99 67 132c39 32 89 48 150 48c76 0 185 -29 328 -87c49 -20 106 -31 171 -32l81 1l3 -2l-53 -105c-75 2 -132 -10 -173 -37l-167 -109
c-137 -89 -282 -134 -433 -134h-52c-47 0 -70 22 -70 67c0 16 5 29 15 40c13 14 32 21 55 21zM371 936c-29 -40 -54 -70 -76 -90c-43 39 -82 73 -118 102c24 33 50 63 79 92c37 -28 76 -63 115 -104zM391 734c-33 -43 -58 -72 -76 -89c-47 43 -86 76 -118 101
c21 29 48 60 79 93c36 -27 74 -62 115 -105z" />
    <glyph glyph-name="_207" unicode="&#x682;" horiz-adv-x="915" 
d="M525 309l1 4c-125 47 -230 70 -314 70c-55 0 -98 -17 -127 -50l12 -50l-30 -90h-10l-49 132c4 55 26 99 67 132c39 32 89 48 150 48c74 0 183 -29 328 -86c55 -22 112 -33 171 -33h87l2 -2l-62 -103c-72 0 -128 -13 -169 -38l-167 -109c-139 -89 -286 -134 -439 -134h-46
c-47 0 -70 22 -70 67c0 16 5 29 15 40c13 14 32 21 55 21h61c155 0 333 60 534 181zM602 221l36 24l3 -1c3 -77 62 -116 177 -116h27v-128h-31c-143 0 -215 55 -215 165c0 19 1 37 3 56zM371 936c-29 -40 -54 -70 -76 -90c-43 39 -82 73 -118 102c24 33 50 63 79 92
c37 -28 76 -63 115 -104zM391 734c-33 -43 -58 -72 -76 -89c-47 43 -86 76 -118 101c21 29 48 60 79 93c36 -27 74 -62 115 -105z" />
    <glyph glyph-name="_208" unicode="&#x682;" horiz-adv-x="939" 
d="M639 324l-1 3c-102 37 -195 56 -278 56c-55 0 -98 -17 -127 -50l20 -84l-28 -79l-11 -3l-58 158c4 55 26 99 67 132c39 32 89 48 150 48c76 0 185 -29 328 -87c53 -20 110 -31 171 -32l88 1l1 -2l-60 -101c-73 -7 -162 -29 -267 -66c-247 -94 -370 -205 -370 -333
c0 -101 48 -182 145 -242c93 -57 211 -86 354 -86c81 0 166 7 257 22l3 -10c-69 -57 -123 -96 -163 -119c-63 -12 -126 -18 -189 -18c-139 0 -253 33 -340 99c-95 72 -142 174 -142 307c0 116 44 219 132 310c82 86 188 145 318 176zM750 221l36 24l3 -1
c3 -77 62 -116 177 -116h51v-128h-55c-143 0 -215 55 -215 165c0 19 1 37 3 56zM599 936c-29 -40 -54 -70 -76 -90c-43 39 -82 73 -118 102c24 33 50 63 79 92c37 -28 76 -63 115 -104zM619 734c-33 -43 -58 -72 -76 -89c-47 43 -86 76 -118 101c21 29 48 60 79 93
c36 -27 74 -62 115 -105z" />
    <glyph glyph-name="uniFB78" unicode="&#x683;" horiz-adv-x="935" arabic-form="initial" 
d="M-70 128h61c155 0 333 60 534 181l1 4c-125 47 -230 70 -314 70c-55 0 -98 -17 -127 -50l12 -50l-30 -90h-10l-49 132c4 55 26 99 67 132c39 32 89 48 150 48c76 0 185 -29 328 -87c49 -20 106 -31 171 -32l81 1l3 -2l-53 -105c-75 2 -132 -10 -173 -37l-167 -109
c-137 -89 -282 -134 -433 -134h-52c-47 0 -70 22 -70 67c0 16 5 29 15 40c13 14 32 21 55 21zM331 -257c-28 -40 -53 -71 -76 -92c-41 39 -80 74 -117 104c24 34 50 66 79 95c33 -27 71 -62 114 -107zM524 -244c-28 -40 -53 -71 -76 -92c-41 39 -80 74 -117 104
c24 34 50 66 79 95c33 -27 71 -62 114 -107z" />
    <glyph glyph-name="uniFB79" unicode="&#x683;" horiz-adv-x="915" arabic-form="medial" 
d="M525 309l1 4c-125 47 -230 70 -314 70c-55 0 -98 -17 -127 -50l12 -50l-30 -90h-10l-49 132c4 55 26 99 67 132c39 32 89 48 150 48c74 0 183 -29 328 -86c55 -22 112 -33 171 -33h87l2 -2l-62 -103c-72 0 -128 -13 -169 -38l-167 -109c-139 -89 -286 -134 -439 -134h-46
c-47 0 -70 22 -70 67c0 16 5 29 15 40c13 14 32 21 55 21h61c155 0 333 60 534 181zM602 221l36 24l3 -1c3 -77 62 -116 177 -116h27v-128h-31c-143 0 -215 55 -215 165c0 19 1 37 3 56zM331 -257c-28 -40 -53 -71 -76 -92c-41 39 -80 74 -117 104c24 34 50 66 79 95
c33 -27 71 -62 114 -107zM524 -244c-28 -40 -53 -71 -76 -92c-41 39 -80 74 -117 104c24 34 50 66 79 95c33 -27 71 -62 114 -107z" />
    <glyph glyph-name="uniFB77" unicode="&#x683;" horiz-adv-x="939" arabic-form="final" 
d="M639 324l-1 3c-102 37 -195 56 -278 56c-55 0 -98 -17 -127 -50l20 -84l-28 -79l-11 -3l-58 158c4 55 26 99 67 132c39 32 89 48 150 48c76 0 185 -29 328 -87c53 -20 110 -31 171 -32l88 1l1 -2l-60 -101c-73 -7 -162 -29 -267 -66c-247 -94 -370 -205 -370 -333
c0 -101 48 -182 145 -242c93 -57 211 -86 354 -86c81 0 166 7 257 22l3 -10c-69 -57 -123 -96 -163 -119c-63 -12 -126 -18 -189 -18c-139 0 -253 33 -340 99c-95 72 -142 174 -142 307c0 116 44 219 132 310c82 86 188 145 318 176zM750 221l36 24l3 -1
c3 -77 62 -116 177 -116h51v-128h-55c-143 0 -215 55 -215 165c0 19 1 37 3 56zM599 -137c-28 -40 -53 -71 -76 -92c-41 39 -80 74 -117 104c24 34 50 66 79 95c33 -27 71 -62 114 -107zM792 -124c-28 -40 -53 -71 -76 -92c-41 39 -80 74 -117 104c24 34 50 66 79 95
c33 -27 71 -62 114 -107z" />
    <glyph glyph-name="uniFB74" unicode="&#x684;" horiz-adv-x="935" arabic-form="initial" 
d="M-70 128h61c155 0 333 60 534 181l1 4c-125 47 -230 70 -314 70c-55 0 -98 -17 -127 -50l12 -50l-30 -90h-10l-49 132c4 55 26 99 67 132c39 32 89 48 150 48c76 0 185 -29 328 -87c49 -20 106 -31 171 -32l81 1l3 -2l-53 -105c-75 2 -132 -10 -173 -37l-167 -109
c-137 -89 -282 -134 -433 -134h-52c-47 0 -70 22 -70 67c0 16 5 29 15 40c13 14 32 21 55 21zM401 -192c-29 -40 -54 -70 -76 -90c-43 39 -82 73 -118 102c24 33 50 63 79 92c37 -28 76 -63 115 -104zM421 -394c-33 -43 -58 -72 -76 -89c-47 43 -86 76 -118 101
c21 29 48 60 79 93c36 -27 74 -62 115 -105z" />
    <glyph glyph-name="uniFB75" unicode="&#x684;" horiz-adv-x="915" arabic-form="medial" 
d="M525 309l1 4c-125 47 -230 70 -314 70c-55 0 -98 -17 -127 -50l12 -50l-30 -90h-10l-49 132c4 55 26 99 67 132c39 32 89 48 150 48c74 0 183 -29 328 -86c55 -22 112 -33 171 -33h87l2 -2l-62 -103c-72 0 -128 -13 -169 -38l-167 -109c-139 -89 -286 -134 -439 -134h-46
c-47 0 -70 22 -70 67c0 16 5 29 15 40c13 14 32 21 55 21h61c155 0 333 60 534 181zM602 221l36 24l3 -1c3 -77 62 -116 177 -116h27v-128h-31c-143 0 -215 55 -215 165c0 19 1 37 3 56zM401 -192c-29 -40 -54 -70 -76 -90c-43 39 -82 73 -118 102c24 33 50 63 79 92
c37 -28 76 -63 115 -104zM421 -394c-33 -43 -58 -72 -76 -89c-47 43 -86 76 -118 101c21 29 48 60 79 93c36 -27 74 -62 115 -105z" />
    <glyph glyph-name="uniFB73" unicode="&#x684;" horiz-adv-x="939" arabic-form="final" 
d="M639 324l-1 3c-102 37 -195 56 -278 56c-55 0 -98 -17 -127 -50l20 -84l-28 -79l-11 -3l-58 158c4 55 26 99 67 132c39 32 89 48 150 48c76 0 185 -29 328 -87c53 -20 110 -31 171 -32l88 1l1 -2l-60 -101c-73 -7 -162 -29 -267 -66c-247 -94 -370 -205 -370 -333
c0 -101 48 -182 145 -242c93 -57 211 -86 354 -86c81 0 166 7 257 22l3 -10c-69 -57 -123 -96 -163 -119c-63 -12 -126 -18 -189 -18c-139 0 -253 33 -340 99c-95 72 -142 174 -142 307c0 116 44 219 132 310c82 86 188 145 318 176zM750 221l36 24l3 -1
c3 -77 62 -116 177 -116h51v-128h-55c-143 0 -215 55 -215 165c0 19 1 37 3 56zM689 -42c-29 -40 -54 -70 -76 -90c-43 39 -82 73 -118 102c24 33 50 63 79 92c37 -28 76 -63 115 -104zM709 -244c-33 -43 -58 -72 -76 -89c-47 43 -86 76 -118 101c21 29 48 60 79 93
c36 -27 74 -62 115 -105z" />
    <glyph glyph-name="_218" unicode="&#x685;" horiz-adv-x="935" 
d="M-70 128h61c155 0 333 60 534 181l1 4c-125 47 -230 70 -314 70c-55 0 -98 -17 -127 -50l12 -50l-30 -90h-10l-49 132c4 55 26 99 67 132c39 32 89 48 150 48c76 0 185 -29 328 -87c49 -20 106 -31 171 -32l81 1l3 -2l-53 -105c-75 2 -132 -10 -173 -37l-167 -109
c-137 -89 -282 -134 -433 -134h-52c-47 0 -70 22 -70 67c0 16 5 29 15 40c13 14 32 21 55 21zM318 739c-28 -40 -53 -71 -76 -92c-41 39 -80 74 -117 104c24 34 50 66 79 95c33 -27 71 -62 114 -107zM372 952c-28 -40 -53 -71 -76 -92c-41 39 -80 74 -117 104
c24 34 50 66 79 95c33 -27 71 -62 114 -107zM511 752c-28 -40 -53 -71 -76 -92c-41 39 -80 74 -117 104c24 34 50 66 79 95c33 -27 71 -62 114 -107z" />
    <glyph glyph-name="_219" unicode="&#x685;" horiz-adv-x="915" 
d="M525 309l1 4c-125 47 -230 70 -314 70c-55 0 -98 -17 -127 -50l12 -50l-30 -90h-10l-49 132c4 55 26 99 67 132c39 32 89 48 150 48c74 0 183 -29 328 -86c55 -22 112 -33 171 -33h87l2 -2l-62 -103c-72 0 -128 -13 -169 -38l-167 -109c-139 -89 -286 -134 -439 -134h-46
c-47 0 -70 22 -70 67c0 16 5 29 15 40c13 14 32 21 55 21h61c155 0 333 60 534 181zM602 221l36 24l3 -1c3 -77 62 -116 177 -116h27v-128h-31c-143 0 -215 55 -215 165c0 19 1 37 3 56zM318 739c-28 -40 -53 -71 -76 -92c-41 39 -80 74 -117 104c24 34 50 66 79 95
c33 -27 71 -62 114 -107zM372 952c-28 -40 -53 -71 -76 -92c-41 39 -80 74 -117 104c24 34 50 66 79 95c33 -27 71 -62 114 -107zM511 752c-28 -40 -53 -71 -76 -92c-41 39 -80 74 -117 104c24 34 50 66 79 95c33 -27 71 -62 114 -107z" />
    <glyph glyph-name="_220" unicode="&#x685;" horiz-adv-x="939" 
d="M639 324l-1 3c-102 37 -195 56 -278 56c-55 0 -98 -17 -127 -50l20 -84l-28 -79l-11 -3l-58 158c4 55 26 99 67 132c39 32 89 48 150 48c76 0 185 -29 328 -87c53 -20 110 -31 171 -32l88 1l1 -2l-60 -101c-73 -7 -162 -29 -267 -66c-247 -94 -370 -205 -370 -333
c0 -101 48 -182 145 -242c93 -57 211 -86 354 -86c81 0 166 7 257 22l3 -10c-69 -57 -123 -96 -163 -119c-63 -12 -126 -18 -189 -18c-139 0 -253 33 -340 99c-95 72 -142 174 -142 307c0 116 44 219 132 310c82 86 188 145 318 176zM750 221l36 24l3 -1
c3 -77 62 -116 177 -116h51v-128h-55c-143 0 -215 55 -215 165c0 19 1 37 3 56zM546 729c-28 -40 -53 -71 -76 -92c-41 39 -80 74 -117 104c24 34 50 66 79 95c33 -27 71 -62 114 -107zM600 942c-28 -40 -53 -71 -76 -92c-41 39 -80 74 -117 104c24 34 50 66 79 95
c33 -27 71 -62 114 -107zM739 742c-28 -40 -53 -71 -76 -92c-41 39 -80 74 -117 104c24 34 50 66 79 95c33 -27 71 -62 114 -107z" />
    <glyph glyph-name="uniFB7C" unicode="&#x686;" horiz-adv-x="935" arabic-form="initial" 
d="M-70 128h61c155 0 333 60 534 181l1 4c-125 47 -230 70 -314 70c-55 0 -98 -17 -127 -50l12 -50l-30 -90h-10l-49 132c4 55 26 99 67 132c39 32 89 48 150 48c76 0 185 -29 328 -87c49 -20 106 -31 171 -32l81 1l3 -2l-53 -105c-75 2 -132 -10 -173 -37l-167 -109
c-137 -89 -282 -134 -433 -134h-52c-47 0 -70 22 -70 67c0 16 5 29 15 40c13 14 32 21 55 21zM524 -199c-28 -40 -53 -71 -76 -92c-41 39 -80 74 -117 104c24 34 50 66 79 95c33 -27 71 -62 114 -107zM331 -212c-28 -40 -53 -71 -76 -92c-41 39 -80 74 -117 104
c24 34 50 66 79 95c33 -27 71 -62 114 -107zM471 -411c-28 -40 -53 -71 -76 -92c-41 39 -80 74 -117 104c24 34 50 66 79 95c33 -27 71 -62 114 -107z" />
    <glyph glyph-name="uniFB7D" unicode="&#x686;" horiz-adv-x="915" arabic-form="medial" 
d="M525 309l1 4c-125 47 -230 70 -314 70c-55 0 -98 -17 -127 -50l12 -50l-30 -90h-10l-49 132c4 55 26 99 67 132c39 32 89 48 150 48c74 0 183 -29 328 -86c55 -22 112 -33 171 -33h87l2 -2l-62 -103c-72 0 -128 -13 -169 -38l-167 -109c-139 -89 -286 -134 -439 -134h-46
c-47 0 -70 22 -70 67c0 16 5 29 15 40c13 14 32 21 55 21h61c155 0 333 60 534 181zM602 221l36 24l3 -1c3 -77 62 -116 177 -116h27v-128h-31c-143 0 -215 55 -215 165c0 19 1 37 3 56zM524 -199c-28 -40 -53 -71 -76 -92c-41 39 -80 74 -117 104c24 34 50 66 79 95
c33 -27 71 -62 114 -107zM331 -212c-28 -40 -53 -71 -76 -92c-41 39 -80 74 -117 104c24 34 50 66 79 95c33 -27 71 -62 114 -107zM471 -411c-28 -40 -53 -71 -76 -92c-41 39 -80 74 -117 104c24 34 50 66 79 95c33 -27 71 -62 114 -107z" />
    <glyph glyph-name="uniFB7B" unicode="&#x686;" horiz-adv-x="939" arabic-form="final" 
d="M639 324l-1 3c-102 37 -195 56 -278 56c-55 0 -98 -17 -127 -50l20 -84l-28 -79l-11 -3l-58 158c4 55 26 99 67 132c39 32 89 48 150 48c76 0 185 -29 328 -87c53 -20 110 -31 171 -32l88 1l1 -2l-60 -101c-73 -7 -162 -29 -267 -66c-247 -94 -370 -205 -370 -333
c0 -101 48 -182 145 -242c93 -57 211 -86 354 -86c81 0 166 7 257 22l3 -10c-69 -57 -123 -96 -163 -119c-63 -12 -126 -18 -189 -18c-139 0 -253 33 -340 99c-95 72 -142 174 -142 307c0 116 44 219 132 310c82 86 188 145 318 176zM750 221l36 24l3 -1
c3 -77 62 -116 177 -116h51v-128h-55c-143 0 -215 55 -215 165c0 19 1 37 3 56zM718 -262c-32 -43 -56 -71 -72 -86c-40 39 -77 71 -110 98c28 38 53 68 74 89c33 -25 69 -59 108 -101zM578 -74c-25 -36 -49 -65 -71 -86c-30 28 -67 61 -110 98c20 27 45 56 74 89
c35 -27 70 -60 107 -101zM768 -62c-32 -43 -56 -71 -72 -86c-40 39 -77 71 -110 98c27 36 52 66 75 89c37 -30 72 -64 107 -101z" />
    <glyph glyph-name="_226" unicode="&#x6bf;" horiz-adv-x="935" 
d="M-70 128h61c155 0 333 60 534 181l1 4c-125 47 -230 70 -314 70c-55 0 -98 -17 -127 -50l12 -50l-30 -90h-10l-49 132c4 55 26 99 67 132c39 32 89 48 150 48c76 0 185 -29 328 -87c49 -20 106 -31 171 -32l81 1l3 -2l-53 -105c-75 2 -132 -10 -173 -37l-167 -109
c-137 -89 -282 -134 -433 -134h-52c-47 0 -70 22 -70 67c0 16 5 29 15 40c13 14 32 21 55 21zM524 -199c-28 -40 -53 -71 -76 -92c-41 39 -80 74 -117 104c24 34 50 66 79 95c33 -27 71 -62 114 -107zM331 -212c-28 -40 -53 -71 -76 -92c-41 39 -80 74 -117 104
c24 34 50 66 79 95c33 -27 71 -62 114 -107zM471 -411c-28 -40 -53 -71 -76 -92c-41 39 -80 74 -117 104c24 34 50 66 79 95c33 -27 71 -62 114 -107zM195 749c33 43 60 77 81 102c39 -28 79 -64 120 -107c-23 -38 -51 -71 -83 -98c-27 25 -66 60 -118 103z" />
    <glyph glyph-name="_227" unicode="&#x6bf;" horiz-adv-x="915" 
d="M525 309l1 4c-125 47 -230 70 -314 70c-55 0 -98 -17 -127 -50l12 -50l-30 -90h-10l-49 132c4 55 26 99 67 132c39 32 89 48 150 48c74 0 183 -29 328 -86c55 -22 112 -33 171 -33h87l2 -2l-62 -103c-72 0 -128 -13 -169 -38l-167 -109c-139 -89 -286 -134 -439 -134h-46
c-47 0 -70 22 -70 67c0 16 5 29 15 40c13 14 32 21 55 21h61c155 0 333 60 534 181zM602 221l36 24l3 -1c3 -77 62 -116 177 -116h27v-128h-31c-143 0 -215 55 -215 165c0 19 1 37 3 56zM524 -199c-28 -40 -53 -71 -76 -92c-41 39 -80 74 -117 104c24 34 50 66 79 95
c33 -27 71 -62 114 -107zM331 -212c-28 -40 -53 -71 -76 -92c-41 39 -80 74 -117 104c24 34 50 66 79 95c33 -27 71 -62 114 -107zM471 -411c-28 -40 -53 -71 -76 -92c-41 39 -80 74 -117 104c24 34 50 66 79 95c33 -27 71 -62 114 -107zM195 749c33 43 60 77 81 102
c39 -28 79 -64 120 -107c-23 -38 -51 -71 -83 -98c-27 25 -66 60 -118 103z" />
    <glyph glyph-name="_228" unicode="&#x6bf;" horiz-adv-x="939" 
d="M639 324l-1 3c-102 37 -195 56 -278 56c-55 0 -98 -17 -127 -50l20 -84l-28 -79l-11 -3l-58 158c4 55 26 99 67 132c39 32 89 48 150 48c76 0 185 -29 328 -87c53 -20 110 -31 171 -32l88 1l1 -2l-60 -101c-73 -7 -162 -29 -267 -66c-247 -94 -370 -205 -370 -333
c0 -101 48 -182 145 -242c93 -57 211 -86 354 -86c81 0 166 7 257 22l3 -10c-69 -57 -123 -96 -163 -119c-63 -12 -126 -18 -189 -18c-139 0 -253 33 -340 99c-95 72 -142 174 -142 307c0 116 44 219 132 310c82 86 188 145 318 176zM750 221l36 24l3 -1
c3 -77 62 -116 177 -116h51v-128h-55c-143 0 -215 55 -215 165c0 19 1 37 3 56zM718 -262c-32 -43 -56 -71 -72 -86c-40 39 -77 71 -110 98c28 38 53 68 74 89c33 -25 69 -59 108 -101zM578 -74c-25 -36 -49 -65 -71 -86c-30 28 -67 61 -110 98c20 27 45 56 74 89
c35 -27 70 -60 107 -101zM768 -62c-32 -43 -56 -71 -72 -86c-40 39 -77 71 -110 98c27 36 52 66 75 89c37 -30 72 -64 107 -101zM423 749c33 43 60 77 81 102c39 -28 79 -64 120 -107c-23 -38 -51 -71 -83 -98c-27 25 -66 60 -118 103z" />
    <glyph glyph-name="uniFB80" unicode="&#x687;" horiz-adv-x="935" arabic-form="initial" 
d="M-70 128h61c155 0 333 60 534 181l1 4c-125 47 -230 70 -314 70c-55 0 -98 -17 -127 -50l12 -50l-30 -90h-10l-49 132c4 55 26 99 67 132c39 32 89 48 150 48c76 0 185 -29 328 -87c49 -20 106 -31 171 -32l81 1l3 -2l-53 -105c-75 2 -132 -10 -173 -37l-167 -109
c-137 -89 -282 -134 -433 -134h-52c-47 0 -70 22 -70 67c0 16 5 29 15 40c13 14 32 21 55 21zM340 -395c-32 -43 -56 -71 -72 -86c-40 39 -77 71 -110 98c28 38 53 68 74 89c33 -25 69 -59 108 -101zM524 -382c-26 -39 -50 -68 -71 -87c-35 33 -72 66 -110 98
c24 34 49 64 74 89c31 -24 66 -57 107 -100zM328 -205c-25 -36 -49 -65 -71 -86c-30 28 -67 61 -110 98c20 27 45 56 74 89c35 -27 70 -60 107 -101zM513 -193c-32 -43 -56 -71 -72 -86c-40 39 -77 71 -110 98c27 36 52 66 75 89c37 -30 72 -64 107 -101z" />
    <glyph glyph-name="uniFB81" unicode="&#x687;" horiz-adv-x="915" arabic-form="medial" 
d="M525 309l1 4c-125 47 -230 70 -314 70c-55 0 -98 -17 -127 -50l12 -50l-30 -90h-10l-49 132c4 55 26 99 67 132c39 32 89 48 150 48c74 0 183 -29 328 -86c55 -22 112 -33 171 -33h87l2 -2l-62 -103c-72 0 -128 -13 -169 -38l-167 -109c-139 -89 -286 -134 -439 -134h-46
c-47 0 -70 22 -70 67c0 16 5 29 15 40c13 14 32 21 55 21h61c155 0 333 60 534 181zM602 221l36 24l3 -1c3 -77 62 -116 177 -116h27v-128h-31c-143 0 -215 55 -215 165c0 19 1 37 3 56zM340 -395c-32 -43 -56 -71 -72 -86c-40 39 -77 71 -110 98c28 38 53 68 74 89
c33 -25 69 -59 108 -101zM524 -382c-26 -39 -50 -68 -71 -87c-35 33 -72 66 -110 98c24 34 49 64 74 89c31 -24 66 -57 107 -100zM328 -205c-25 -36 -49 -65 -71 -86c-30 28 -67 61 -110 98c20 27 45 56 74 89c35 -27 70 -60 107 -101zM513 -193c-32 -43 -56 -71 -72 -86
c-40 39 -77 71 -110 98c27 36 52 66 75 89c37 -30 72 -64 107 -101z" />
    <glyph glyph-name="uniFB7F" unicode="&#x687;" horiz-adv-x="939" arabic-form="final" 
d="M639 324l-1 3c-102 37 -195 56 -278 56c-55 0 -98 -17 -127 -50l20 -84l-28 -79l-11 -3l-58 158c4 55 26 99 67 132c39 32 89 48 150 48c76 0 185 -29 328 -87c53 -20 110 -31 171 -32l88 1l1 -2l-60 -101c-73 -7 -162 -29 -267 -66c-247 -94 -370 -205 -370 -333
c0 -101 48 -182 145 -242c93 -57 211 -86 354 -86c81 0 166 7 257 22l3 -10c-69 -57 -123 -96 -163 -119c-63 -12 -126 -18 -189 -18c-139 0 -253 33 -340 99c-95 72 -142 174 -142 307c0 116 44 219 132 310c82 86 188 145 318 176zM750 221l36 24l3 -1
c3 -77 62 -116 177 -116h51v-128h-55c-143 0 -215 55 -215 165c0 19 1 37 3 56zM596 -246c-26 -37 -50 -66 -71 -85c-25 25 -61 57 -108 97c33 43 58 72 73 88c37 -30 73 -63 106 -100zM783 -233c-25 -36 -48 -65 -70 -86c-44 40 -80 72 -109 97c26 35 50 64 73 87
c32 -25 67 -57 106 -98zM585 -57c-28 -39 -51 -67 -70 -85c-44 40 -80 72 -109 97c23 32 48 61 73 88c35 -27 70 -60 106 -100zM772 -45c-28 -39 -52 -68 -71 -85c-25 25 -61 57 -108 97c24 33 49 63 74 88c38 -31 73 -64 105 -100z" />
    <glyph glyph-name="uniFB89" unicode="&#x688;" horiz-adv-x="770" arabic-form="final" 
d="M865 128v-128h-19c-102 0 -170 54 -204 163h-5c-9 -40 -33 -72 -72 -96c-73 -45 -140 -67 -201 -67c-56 0 -99 16 -129 49c-30 32 -45 77 -45 136c0 25 1 49 3 74l39 3c4 -89 51 -134 141 -134c50 0 104 17 163 50c43 25 65 50 65 75c0 46 -28 170 -83 372
c33 51 57 85 71 103l6 -4c33 -126 64 -274 95 -445c9 -49 29 -86 58 -113c29 -25 62 -38 100 -38h17zM388 837l-94 77l4 6l105 -4c12 22 18 58 18 108c0 42 -2 83 -6 124c-5 38 -7 60 -7 67c0 15 15 38 46 71h6c6 -36 20 -73 41 -111l-36 -31l2 -75c0 -25 -3 -48 -10 -67
l3 -2c51 77 101 116 150 116c29 0 53 -10 72 -31c18 -20 27 -45 27 -74c0 -19 -6 -43 -17 -73c-15 -34 -38 -58 -67 -73c-42 -21 -96 -31 -162 -31c-35 0 -60 1 -75 3zM440 917c129 3 205 22 230 58c-12 41 -37 61 -76 61c-53 0 -104 -40 -154 -119z" />
    <glyph glyph-name="_244" unicode="&#x689;" horiz-adv-x="770" 
d="M565 67l-26 -15c46 -25 69 -63 69 -115c0 -36 -13 -67 -38 -92s-56 -38 -92 -38s-67 13 -92 38s-38 56 -38 92c0 23 5 44 16 63c-56 0 -99 16 -129 49c-30 32 -45 77 -45 136c0 25 1 49 3 74l39 3c4 -89 51 -134 141 -134c50 0 104 17 163 50c43 25 65 50 65 75
c0 46 -28 170 -83 372c33 51 57 85 71 103l6 -4c33 -126 64 -274 95 -445c9 -49 29 -86 58 -113c29 -25 62 -38 100 -38h17v-128h-19c-102 0 -170 54 -204 163h-5c-9 -40 -33 -72 -72 -96zM398 -63c0 -22 8 -41 24 -56c15 -16 34 -24 56 -24s41 8 57 24c15 15 23 34 23 56
c0 21 -8 40 -23 57c-17 15 -36 23 -57 23c-22 0 -41 -8 -56 -23c-16 -16 -24 -35 -24 -57z" />
    <glyph glyph-name="_246" unicode="&#x68a;" horiz-adv-x="770" 
d="M865 128v-128h-19c-102 0 -170 54 -204 163h-5c-9 -40 -33 -72 -72 -96c-73 -45 -140 -67 -201 -67c-56 0 -99 16 -129 49c-30 32 -45 77 -45 136c0 25 1 49 3 74l39 3c4 -89 51 -134 141 -134c50 0 104 17 163 50c43 25 65 50 65 75c0 46 -28 170 -83 372
c33 51 57 85 71 103l6 -4c33 -126 64 -274 95 -445c9 -49 29 -86 58 -113c29 -25 62 -38 100 -38h17zM327 -291c33 43 60 77 81 102c39 -28 79 -64 120 -107c-23 -38 -51 -71 -83 -98c-27 25 -66 60 -118 103z" />
    <glyph glyph-name="_248" unicode="&#x68b;" horiz-adv-x="770" 
d="M865 128v-128h-19c-102 0 -170 54 -204 163h-5c-9 -40 -33 -72 -72 -96c-73 -45 -140 -67 -201 -67c-56 0 -99 16 -129 49c-30 32 -45 77 -45 136c0 25 1 49 3 74l39 3c4 -89 51 -134 141 -134c50 0 104 17 163 50c43 25 65 50 65 75c0 46 -28 170 -83 372
c33 51 57 85 71 103l6 -4c33 -126 64 -274 95 -445c9 -49 29 -86 58 -113c29 -25 62 -38 100 -38h17zM388 837l-94 77l4 6l105 -4c12 22 18 58 18 108c0 42 -2 83 -6 124c-5 38 -7 60 -7 67c0 15 15 38 46 71h6c6 -36 20 -73 41 -111l-36 -31l2 -75c0 -25 -3 -48 -10 -67
l3 -2c51 77 101 116 150 116c29 0 53 -10 72 -31c18 -20 27 -45 27 -74c0 -19 -6 -43 -17 -73c-15 -34 -38 -58 -67 -73c-42 -21 -96 -31 -162 -31c-35 0 -60 1 -75 3zM440 917c129 3 205 22 230 58c-12 41 -37 61 -76 61c-53 0 -104 -40 -154 -119zM347 -291
c33 43 60 77 81 102c39 -28 79 -64 120 -107c-23 -38 -51 -71 -83 -98c-27 25 -66 60 -118 103z" />
    <glyph glyph-name="uniFB85" unicode="&#x68c;" horiz-adv-x="770" arabic-form="final" 
d="M865 128v-128h-19c-102 0 -170 54 -204 163h-5c-9 -40 -33 -72 -72 -96c-73 -45 -140 -67 -201 -67c-56 0 -99 16 -129 49c-30 32 -45 77 -45 136c0 25 1 49 3 74l39 3c4 -89 51 -134 141 -134c50 0 104 17 163 50c43 25 65 50 65 75c0 46 -28 170 -83 372
c33 51 57 85 71 103l6 -4c33 -126 64 -274 95 -445c9 -49 29 -86 58 -113c29 -25 62 -38 100 -38h17zM703 932c-28 -40 -53 -71 -76 -92c-41 39 -80 74 -117 104c24 34 50 66 79 95c33 -27 71 -62 114 -107zM510 919c-28 -40 -53 -71 -76 -92c-41 39 -80 74 -117 104
c24 34 50 66 79 95c33 -27 71 -62 114 -107z" />
    <glyph glyph-name="uniFB83" unicode="&#x68d;" horiz-adv-x="770" arabic-form="final" 
d="M865 128v-128h-19c-102 0 -170 54 -204 163h-5c-9 -40 -33 -72 -72 -96c-73 -45 -140 -67 -201 -67c-56 0 -99 16 -129 49c-30 32 -45 77 -45 136c0 25 1 49 3 74l39 3c4 -89 51 -134 141 -134c50 0 104 17 163 50c43 25 65 50 65 75c0 46 -28 170 -83 372
c33 51 57 85 71 103l6 -4c33 -126 64 -274 95 -445c9 -49 29 -86 58 -113c29 -25 62 -38 100 -38h17zM413 -307c-28 -40 -53 -71 -76 -92c-41 39 -80 74 -117 104c24 34 50 66 79 95c33 -27 71 -62 114 -107zM606 -294c-28 -40 -53 -71 -76 -92c-41 39 -80 74 -117 104
c24 34 50 66 79 95c33 -27 71 -62 114 -107z" />
    <glyph glyph-name="uniFB87" unicode="&#x68e;" horiz-adv-x="770" arabic-form="final" 
d="M865 128v-128h-19c-102 0 -170 54 -204 163h-5c-9 -40 -33 -72 -72 -96c-73 -45 -140 -67 -201 -67c-56 0 -99 16 -129 49c-30 32 -45 77 -45 136c0 25 1 49 3 74l39 3c4 -89 51 -134 141 -134c50 0 104 17 163 50c43 25 65 50 65 75c0 46 -28 170 -83 372
c33 51 57 85 71 103l6 -4c33 -126 64 -274 95 -445c9 -49 29 -86 58 -113c29 -25 62 -38 100 -38h17zM520 889c-28 -40 -53 -71 -76 -92c-41 39 -80 74 -117 104c24 34 50 66 79 95c33 -27 71 -62 114 -107zM574 1102c-28 -40 -53 -71 -76 -92c-41 39 -80 74 -117 104
c24 34 50 66 79 95c33 -27 71 -62 114 -107zM713 902c-28 -40 -53 -71 -76 -92c-41 39 -80 74 -117 104c24 34 50 66 79 95c33 -27 71 -62 114 -107z" />
    <glyph glyph-name="_256" unicode="&#x68f;" horiz-adv-x="770" 
d="M865 128v-128h-19c-102 0 -170 54 -204 163h-5c-9 -40 -33 -72 -72 -96c-73 -45 -140 -67 -201 -67c-56 0 -99 16 -129 49c-30 32 -45 77 -45 136c0 25 1 49 3 74l39 3c4 -89 51 -134 141 -134c50 0 104 17 163 50c43 25 65 50 65 75c0 46 -28 170 -83 372
c33 51 57 85 71 103l6 -4c33 -126 64 -274 95 -445c9 -49 29 -86 58 -113c29 -25 62 -38 100 -38h17zM702 1123c-28 -40 -53 -71 -76 -92c-41 39 -80 74 -117 104c24 34 50 66 79 95c33 -27 71 -62 114 -107zM509 1110c-28 -40 -53 -71 -76 -92c-41 39 -80 74 -117 104
c24 34 50 66 79 95c33 -27 71 -62 114 -107zM649 911c-28 -40 -53 -71 -76 -92c-41 39 -80 74 -117 104c24 34 50 66 79 95c33 -27 71 -62 114 -107z" />
    <glyph glyph-name="_258" unicode="&#x690;" horiz-adv-x="770" 
d="M865 128v-128h-19c-102 0 -170 54 -204 163h-5c-9 -40 -33 -72 -72 -96c-73 -45 -140 -67 -201 -67c-56 0 -99 16 -129 49c-30 32 -45 77 -45 136c0 25 1 49 3 74l39 3c4 -89 51 -134 141 -134c50 0 104 17 163 50c43 25 65 50 65 75c0 46 -28 170 -83 372
c33 51 57 85 71 103l6 -4c33 -126 64 -274 95 -445c9 -49 29 -86 58 -113c29 -25 62 -38 100 -38h17zM522 886c-32 -43 -56 -71 -72 -86c-40 39 -77 71 -110 98c28 38 53 68 74 89c33 -25 69 -59 108 -101zM703 899c-26 -39 -50 -68 -71 -87c-35 33 -72 66 -110 98
c24 34 49 64 74 89c31 -24 66 -57 107 -100zM510 1076c-25 -36 -49 -65 -71 -86c-30 28 -67 61 -110 98c20 27 45 56 74 89c35 -27 70 -60 107 -101zM692 1088c-32 -43 -56 -71 -72 -86c-40 39 -77 71 -110 98c27 36 52 66 75 89c37 -30 72 -64 107 -101z" />
    <glyph glyph-name="_260" unicode="&#x6ee;" horiz-adv-x="770" 
d="M865 128v-128h-19c-102 0 -170 54 -204 163h-5c-9 -40 -33 -72 -72 -96c-73 -45 -140 -67 -201 -67c-56 0 -99 16 -129 49c-30 32 -45 77 -45 136c0 25 1 49 3 74l39 3c4 -89 51 -134 141 -134c50 0 104 17 163 50c43 25 65 50 65 75c0 46 -28 170 -83 372
c33 51 57 85 71 103l6 -4c33 -126 64 -274 95 -445c9 -49 29 -86 58 -113c29 -25 62 -38 100 -38h17zM390 840c-11 25 -18 50 -23 75c89 102 139 173 150 212l19 10c7 -40 66 -105 175 -195l-23 -97h-8c-80 78 -131 137 -154 176h-3c-18 -39 -62 -99 -133 -181z" />
    <glyph glyph-name="uniFB8D" unicode="&#x691;" horiz-adv-x="656" arabic-form="final" 
d="M409 343l7 1c31 -75 61 -128 90 -159c36 -38 81 -57 135 -57h18v-128h-21c-44 0 -78 11 -101 32h-4l2 -35c0 -57 -13 -108 -40 -155c-75 -133 -154 -199 -239 -199c-69 0 -152 26 -250 78l15 34c30 -15 68 -22 115 -22c67 0 137 32 208 95s113 131 124 205
c-6 14 -15 29 -27 45c-31 44 -60 94 -87 149c13 31 32 70 55 116zM209 507l-94 77l4 6l105 -4c12 22 18 58 18 108c0 42 -2 83 -6 124c-5 38 -7 60 -7 67c0 15 15 38 46 71h6c6 -36 20 -73 41 -111l-36 -31l2 -75c0 -25 -3 -48 -10 -67l3 -2c51 77 101 116 150 116
c29 0 53 -10 72 -31c18 -20 27 -45 27 -74c0 -19 -6 -43 -17 -73c-15 -34 -38 -58 -67 -73c-42 -21 -96 -31 -162 -31c-35 0 -60 1 -75 3zM261 587c129 3 205 22 230 58c-12 41 -37 61 -76 61c-53 0 -104 -40 -154 -119z" />
    <glyph glyph-name="_268" unicode="&#x692;" horiz-adv-x="656" 
d="M409 343l7 1c31 -75 61 -128 90 -159c36 -38 81 -57 135 -57h18v-128h-21c-44 0 -78 11 -101 32h-4l2 -35c0 -57 -13 -108 -40 -155c-75 -133 -154 -199 -239 -199c-69 0 -152 26 -250 78l15 34c30 -15 68 -22 115 -22c67 0 137 32 208 95s113 131 124 205
c-6 14 -15 29 -27 45c-31 44 -60 94 -87 149c13 31 32 70 55 116zM529 768c11 -25 18 -50 23 -75c-89 -102 -139 -173 -150 -212l-19 -10c-7 40 -66 105 -175 195l23 97h8c80 -78 131 -137 154 -176h3c18 39 62 99 133 181z" />
    <glyph glyph-name="_270" unicode="&#x693;" horiz-adv-x="696" 
d="M500 -148h10c36 0 67 -13 92 -38s38 -56 38 -92s-13 -67 -38 -92s-56 -38 -92 -38c-32 0 -60 10 -84 30c-25 21 -39 46 -44 76c-43 -37 -85 -55 -126 -55c-69 0 -152 26 -250 78l15 34c30 -15 68 -22 115 -22c67 0 137 32 208 95s113 131 124 205c-6 14 -15 29 -27 45
c-31 44 -60 94 -87 149c13 31 32 70 55 116l7 1c31 -75 61 -128 90 -159c36 -38 81 -57 135 -57h58v-128h-61c-44 0 -78 11 -101 32h-4l2 -35c0 -51 -12 -100 -35 -145zM430 -278c0 -22 8 -41 24 -56c15 -16 34 -24 56 -24s41 8 57 24c15 15 23 34 23 56c0 21 -8 40 -23 57
c-17 15 -36 23 -57 23c-22 0 -41 -8 -56 -23c-16 -16 -24 -35 -24 -57z" />
    <glyph glyph-name="_272" unicode="&#x694;" horiz-adv-x="656" 
d="M409 343l7 1c31 -75 61 -128 90 -159c36 -38 81 -57 135 -57h18v-128h-21c-44 0 -78 11 -101 32h-4l2 -35c0 -57 -13 -108 -40 -155c-75 -133 -154 -199 -239 -199c-69 0 -152 26 -250 78l15 34c30 -15 68 -22 115 -22c67 0 137 32 208 95s113 131 124 205
c-6 14 -15 29 -27 45c-31 44 -60 94 -87 149c13 31 32 70 55 116zM368 -511c33 43 60 77 81 102c39 -28 79 -64 120 -107c-23 -38 -51 -71 -83 -98c-27 25 -66 60 -118 103z" />
    <glyph glyph-name="_274" unicode="&#x695;" horiz-adv-x="656" 
d="M409 343l7 1c31 -75 61 -128 90 -159c36 -38 81 -57 135 -57h18v-128h-21c-44 0 -78 11 -101 32h-4l2 -35c0 -57 -13 -108 -40 -155c-75 -133 -154 -199 -239 -199c-69 0 -152 26 -250 78l15 34c30 -15 68 -22 115 -22c67 0 137 32 208 95s113 131 124 205
c-6 14 -15 29 -27 45c-31 44 -60 94 -87 149c13 31 32 70 55 116zM519 -442c11 -25 18 -50 23 -75c-89 -102 -139 -173 -150 -212l-19 -10c-7 40 -66 105 -175 195l23 97h8c80 -78 131 -137 154 -176h3c18 39 62 99 133 181z" />
    <glyph glyph-name="_276" unicode="&#x696;" horiz-adv-x="656" 
d="M409 343l7 1c31 -75 61 -128 90 -159c36 -38 81 -57 135 -57h18v-128h-21c-44 0 -78 11 -101 32h-4l2 -35c0 -57 -13 -108 -40 -155c-75 -133 -154 -199 -239 -199c-69 0 -152 26 -250 78l15 34c30 -15 68 -22 115 -22c67 0 137 32 208 95s113 131 124 205
c-6 14 -15 29 -27 45c-31 44 -60 94 -87 149c13 31 32 70 55 116zM368 -511c33 43 60 77 81 102c39 -28 79 -64 120 -107c-23 -38 -51 -71 -83 -98c-27 25 -66 60 -118 103zM88 0c33 43 60 77 81 102c39 -28 79 -64 120 -107c-23 -38 -51 -71 -83 -98
c-27 25 -66 60 -118 103z" />
    <glyph glyph-name="_278" unicode="&#x697;" horiz-adv-x="656" 
d="M409 343l7 1c31 -75 61 -128 90 -159c36 -38 81 -57 135 -57h18v-128h-21c-44 0 -78 11 -101 32h-4l2 -35c0 -57 -13 -108 -40 -155c-75 -133 -154 -199 -239 -199c-69 0 -152 26 -250 78l15 34c30 -15 68 -22 115 -22c67 0 137 32 208 95s113 131 124 205
c-6 14 -15 29 -27 45c-31 44 -60 94 -87 149c13 31 32 70 55 116zM544 572c-28 -40 -53 -71 -76 -92c-41 39 -80 74 -117 104c24 34 50 66 79 95c33 -27 71 -62 114 -107zM351 559c-28 -40 -53 -71 -76 -92c-41 39 -80 74 -117 104c24 34 50 66 79 95
c33 -27 71 -62 114 -107z" />
    <glyph glyph-name="uniFB8B" unicode="&#x698;" horiz-adv-x="656" arabic-form="final" 
d="M409 343l7 1c31 -75 61 -128 90 -159c36 -38 81 -57 135 -57h18v-128h-21c-44 0 -78 11 -101 32h-4l2 -35c0 -57 -13 -108 -40 -155c-75 -133 -154 -199 -239 -199c-69 0 -152 26 -250 78l15 34c30 -15 68 -22 115 -22c67 0 137 32 208 95s113 131 124 205
c-6 14 -15 29 -27 45c-31 44 -60 94 -87 149c13 31 32 70 55 116zM351 549c-28 -40 -53 -71 -76 -92c-41 39 -80 74 -117 104c24 34 50 66 79 95c33 -27 71 -62 114 -107zM405 762c-28 -40 -53 -71 -76 -92c-41 39 -80 74 -117 104c24 34 50 66 79 95
c33 -27 71 -62 114 -107zM544 562c-28 -40 -53 -71 -76 -92c-41 39 -80 74 -117 104c24 34 50 66 79 95c33 -27 71 -62 114 -107z" />
    <glyph glyph-name="_282" unicode="&#x699;" horiz-adv-x="656" 
d="M409 343l7 1c31 -75 61 -128 90 -159c36 -38 81 -57 135 -57h18v-128h-21c-44 0 -78 11 -101 32h-4l2 -35c0 -57 -13 -108 -40 -155c-75 -133 -154 -199 -239 -199c-69 0 -152 26 -250 78l15 34c30 -15 68 -22 115 -22c67 0 137 32 208 95s113 131 124 205
c-6 14 -15 29 -27 45c-31 44 -60 94 -87 149c13 31 32 70 55 116zM353 546c-32 -43 -56 -71 -72 -86c-40 39 -77 71 -110 98c28 38 53 68 74 89c33 -25 69 -59 108 -101zM534 559c-26 -39 -50 -68 -71 -87c-35 33 -72 66 -110 98c24 34 49 64 74 89c31 -24 66 -57 107 -100z
M341 736c-25 -36 -49 -65 -71 -86c-30 28 -67 61 -110 98c20 27 45 56 74 89c35 -27 70 -60 107 -101zM523 748c-32 -43 -56 -71 -72 -86c-40 39 -77 71 -110 98c27 36 52 66 75 89c37 -30 72 -64 107 -101z" />
    <glyph glyph-name="_284" unicode="&#x6ef;" horiz-adv-x="656" 
d="M409 343l7 1c31 -75 61 -128 90 -159c36 -38 81 -57 135 -57h18v-128h-21c-44 0 -78 11 -101 32h-4l2 -35c0 -57 -13 -108 -40 -155c-75 -133 -154 -199 -239 -199c-69 0 -152 26 -250 78l15 34c30 -15 68 -22 115 -22c67 0 137 32 208 95s113 131 124 205
c-6 14 -15 29 -27 45c-31 44 -60 94 -87 149c13 31 32 70 55 116zM227 490c-11 25 -18 50 -23 75c89 102 139 173 150 212l19 10c7 -40 66 -105 175 -195l-23 -97h-8c-80 78 -131 137 -154 176h-3c-18 -39 -62 -99 -133 -181z" />
    <glyph glyph-name="_292" unicode="&#x69a;" horiz-adv-x="905" 
d="M730 431l6 -3c11 -65 16 -124 16 -178c0 -44 -12 -90 -36 -137c-44 -73 -93 -110 -148 -110c-44 0 -86 28 -125 83h-8c-53 -57 -112 -86 -175 -86c-58 0 -90 28 -96 85h-4c-49 -57 -120 -85 -213 -85h-17c-47 0 -70 22 -70 67c0 16 5 29 15 40c13 14 32 21 55 21h34
c97 1 168 32 211 93l55 79l77 27l4 -5c-45 -73 -68 -121 -68 -144c0 -33 17 -50 52 -50c32 0 62 10 89 29c21 15 44 68 71 159l60 35l6 -4c-9 -34 -13 -67 -13 -98c0 -35 11 -64 34 -86c21 -19 44 -29 70 -29c35 0 53 15 53 45c0 35 -8 89 -25 162c28 33 58 63 90 90z
M335 690c33 43 60 77 81 102c39 -28 79 -64 120 -107c-23 -38 -51 -71 -83 -98c-27 25 -66 60 -118 103zM325 -290c33 43 60 77 81 102c39 -28 79 -64 120 -107c-23 -38 -51 -71 -83 -98c-27 25 -66 60 -118 103z" />
    <glyph glyph-name="_293" unicode="&#x69a;" horiz-adv-x="1024" 
d="M954 128v-128h-25c-109 0 -178 31 -206 94h-6c-53 -63 -110 -94 -171 -94c-59 0 -96 28 -109 83h-4c-51 -55 -109 -83 -173 -83c-58 0 -90 28 -96 85h-4c-49 -57 -120 -85 -213 -85h-17c-47 0 -70 22 -70 67c0 16 5 29 15 40c13 14 32 21 55 21h34c95 1 166 32 211 93
l50 78l77 27l4 -5c-43 -75 -65 -123 -65 -143c0 -33 18 -50 54 -50c32 0 61 10 87 30c27 19 48 49 65 88l24 59l76 35l4 -4c-27 -70 -41 -120 -41 -150c0 -15 4 -28 13 -39c11 -13 25 -19 43 -19c25 0 48 7 69 22c26 17 45 49 58 96l20 79l76 51l4 -3
c-17 -56 -25 -102 -25 -137c0 -72 55 -108 164 -108h22zM375 680c33 43 60 77 81 102c39 -28 79 -64 120 -107c-23 -38 -51 -71 -83 -98c-27 25 -66 60 -118 103zM355 -290c33 43 60 77 81 102c39 -28 79 -64 120 -107c-23 -38 -51 -71 -83 -98c-27 25 -66 60 -118 103z" />
    <glyph glyph-name="_294" unicode="&#x69a;" horiz-adv-x="1467" 
d="M861 0h-20c-11 -73 -23 -126 -38 -160c-25 -57 -70 -104 -135 -141c-63 -36 -130 -54 -201 -54c-95 0 -167 29 -218 88c-49 55 -73 128 -73 219c0 106 26 199 79 280l35 -18c-32 -72 -48 -134 -48 -187c0 -79 24 -139 73 -182c44 -40 101 -60 171 -60c75 0 144 24 207 71
c60 45 90 92 90 141c0 72 -34 160 -103 265c13 26 35 62 66 107h4c32 -61 59 -124 82 -191c14 -33 35 -50 64 -50c26 0 51 9 76 28c27 18 46 44 58 79l26 74l68 31l4 -5c-20 -63 -30 -111 -30 -146c0 -41 23 -61 69 -61c60 0 101 44 123 133l17 70l73 43l4 -5
c-16 -61 -24 -106 -24 -137c0 -69 58 -104 173 -104h22v-128h-25c-116 0 -188 31 -216 94h-6c-53 -63 -111 -94 -175 -94c-58 0 -94 28 -107 83h-6c-37 -55 -90 -83 -159 -83zM943 680c33 43 60 77 81 102c39 -28 79 -64 120 -107c-23 -38 -51 -71 -83 -98
c-27 25 -66 60 -118 103zM1013 -300c33 43 60 77 81 102c39 -28 79 -64 120 -107c-23 -38 -51 -71 -83 -98c-27 25 -66 60 -118 103z" />
    <glyph glyph-name="_296" unicode="&#x69b;" horiz-adv-x="905" 
d="M730 431l6 -3c11 -65 16 -124 16 -178c0 -44 -12 -90 -36 -137c-44 -73 -93 -110 -148 -110c-44 0 -86 28 -125 83h-8c-53 -57 -112 -86 -175 -86c-58 0 -90 28 -96 85h-4c-49 -57 -120 -85 -213 -85h-17c-47 0 -70 22 -70 67c0 16 5 29 15 40c13 14 32 21 55 21h34
c97 1 168 32 211 93l55 79l77 27l4 -5c-45 -73 -68 -121 -68 -144c0 -33 17 -50 52 -50c32 0 62 10 89 29c21 15 44 68 71 159l60 35l6 -4c-9 -34 -13 -67 -13 -98c0 -35 11 -64 34 -86c21 -19 44 -29 70 -29c35 0 53 15 53 45c0 35 -8 89 -25 162c28 33 58 63 90 90z
M608 -247c-28 -40 -53 -71 -76 -92c-41 39 -80 74 -117 104c24 34 50 66 79 95c33 -27 71 -62 114 -107zM415 -260c-28 -40 -53 -71 -76 -92c-41 39 -80 74 -117 104c24 34 50 66 79 95c33 -27 71 -62 114 -107zM555 -459c-28 -40 -53 -71 -76 -92c-41 39 -80 74 -117 104
c24 34 50 66 79 95c33 -27 71 -62 114 -107z" />
    <glyph glyph-name="_297" unicode="&#x69b;" horiz-adv-x="1024" 
d="M954 128v-128h-25c-109 0 -178 31 -206 94h-6c-53 -63 -110 -94 -171 -94c-59 0 -96 28 -109 83h-4c-51 -55 -109 -83 -173 -83c-58 0 -90 28 -96 85h-4c-49 -57 -120 -85 -213 -85h-17c-47 0 -70 22 -70 67c0 16 5 29 15 40c13 14 32 21 55 21h34c95 1 166 32 211 93
l50 78l77 27l4 -5c-43 -75 -65 -123 -65 -143c0 -33 18 -50 54 -50c32 0 61 10 87 30c27 19 48 49 65 88l24 59l76 35l4 -4c-27 -70 -41 -120 -41 -150c0 -15 4 -28 13 -39c11 -13 25 -19 43 -19c25 0 48 7 69 22c26 17 45 49 58 96l20 79l76 51l4 -3
c-17 -56 -25 -102 -25 -137c0 -72 55 -108 164 -108h22zM618 -247c-28 -40 -53 -71 -76 -92c-41 39 -80 74 -117 104c24 34 50 66 79 95c33 -27 71 -62 114 -107zM425 -260c-28 -40 -53 -71 -76 -92c-41 39 -80 74 -117 104c24 34 50 66 79 95c33 -27 71 -62 114 -107z
M565 -459c-28 -40 -53 -71 -76 -92c-41 39 -80 74 -117 104c24 34 50 66 79 95c33 -27 71 -62 114 -107z" />
    <glyph glyph-name="_298" unicode="&#x69b;" horiz-adv-x="1467" 
d="M861 0h-20c-11 -73 -23 -126 -38 -160c-25 -57 -70 -104 -135 -141c-63 -36 -130 -54 -201 -54c-95 0 -167 29 -218 88c-49 55 -73 128 -73 219c0 106 26 199 79 280l35 -18c-32 -72 -48 -134 -48 -187c0 -79 24 -139 73 -182c44 -40 101 -60 171 -60c75 0 144 24 207 71
c60 45 90 92 90 141c0 72 -34 160 -103 265c13 26 35 62 66 107h4c32 -61 59 -124 82 -191c14 -33 35 -50 64 -50c26 0 51 9 76 28c27 18 46 44 58 79l26 74l68 31l4 -5c-20 -63 -30 -111 -30 -146c0 -41 23 -61 69 -61c60 0 101 44 123 133l17 70l73 43l4 -5
c-16 -61 -24 -106 -24 -137c0 -69 58 -104 173 -104h22v-128h-25c-116 0 -188 31 -216 94h-6c-53 -63 -111 -94 -175 -94c-58 0 -94 28 -107 83h-6c-37 -55 -90 -83 -159 -83zM1296 -247c-28 -40 -53 -71 -76 -92c-41 39 -80 74 -117 104c24 34 50 66 79 95
c33 -27 71 -62 114 -107zM1103 -260c-28 -40 -53 -71 -76 -92c-41 39 -80 74 -117 104c24 34 50 66 79 95c33 -27 71 -62 114 -107zM1243 -459c-28 -40 -53 -71 -76 -92c-41 39 -80 74 -117 104c24 34 50 66 79 95c33 -27 71 -62 114 -107z" />
    </font>
</defs>
</svg>
